<svg width="48" height="48" viewBox="0 0 48 48" fill="none" xmlns="http://www.w3.org/2000/svg">
<circle cx="24" cy="24" r="24" fill="#00A551"/>
<path d="M23.649 13.5619C26.7237 13.5619 29.216 16.0545 29.216 19.1289C29.216 19.4782 29.1753 19.8554 29.1134 20.1897L28.4975 19.5739L28.4892 19.5652C28.5024 19.4264 28.5201 19.2621 28.5201 19.1289C28.5201 16.4393 26.3393 14.2578 23.649 14.2578C23.4987 14.2578 23.3512 14.2672 23.2044 14.28C22.919 14.3058 22.6421 14.3597 22.3724 14.4328C21.146 14.7651 20.1143 15.5629 19.4752 16.6272C19.3551 16.8269 19.2455 17.0329 19.1547 17.2497C18.9126 17.8283 18.7779 18.4629 18.7779 19.1289C18.7779 19.3436 18.8235 19.7614 18.8235 19.7614C18.8235 19.7614 18.5678 19.8248 18.43 19.8248C18.3245 19.8248 18.2229 19.8105 18.1245 19.7886C18.1113 19.7858 18.113 19.7858 18.1245 19.7886C18.0991 19.5718 18.082 19.3526 18.082 19.1289C18.082 18.3923 18.2285 17.6909 18.4884 17.0475C18.5817 16.8172 18.6892 16.5956 18.811 16.3816C19.4717 15.2209 20.5378 14.3239 21.8171 13.8775C22.0676 13.7898 22.3244 13.7171 22.5899 13.6663C22.9326 13.5991 23.2865 13.5619 23.649 13.5619Z" fill="#F9EBB2"/>
<path d="M34.2309 27.2755L27.2718 34.2342C27.1407 34.3654 26.966 34.4381 26.7802 34.4381C26.5944 34.4381 26.4197 34.3654 26.2882 34.2342L13.7625 21.7085C13.6331 21.5787 13.5586 21.3992 13.5586 21.2165V14.2578C13.5586 13.8736 13.8707 13.5619 14.2545 13.5619H20.788C19.589 14.1795 18.6186 15.1718 18.0254 16.3854C17.0661 16.5736 16.3421 17.4184 16.3421 18.433C16.3421 19.5854 17.277 20.5206 18.4297 20.5206C19.5824 20.5206 20.5173 19.5854 20.5173 18.433C20.5173 17.9153 20.3277 17.4421 20.0153 17.0774C20.6234 16.003 21.693 15.2278 22.9557 15.0163L34.2309 26.2915C34.3624 26.4227 34.4348 26.5973 34.4348 26.7835C34.4348 26.9689 34.3624 27.1436 34.2309 27.2755Z" fill="white"/>
<path d="M34.7235 25.7995L29.685 20.7603L29.6892 20.7645C29.8301 20.2426 29.9122 19.6956 29.9122 19.1288C29.9122 15.67 27.1082 12.866 23.6493 12.866C23.0707 12.866 22.513 12.9509 21.9817 13.0977C21.7555 12.9481 21.489 12.866 21.2138 12.866H14.255C13.4864 12.866 12.8633 13.4891 12.8633 14.2577V21.2164C12.8633 21.5856 13.0101 21.9395 13.2711 22.2004L25.7968 34.7261C26.0682 34.9979 26.4248 35.1339 26.7808 35.1339C27.1367 35.1339 27.4933 34.9979 27.7647 34.7261L34.7235 27.7674C35.2673 27.2239 35.2673 26.3423 34.7235 25.7995ZM21.8171 13.8771C22.0676 13.7894 22.3244 13.7167 22.5899 13.6659C22.9329 13.5991 23.2868 13.5618 23.6493 13.5618C26.724 13.5618 29.2163 16.0545 29.2163 19.1288C29.2163 19.4782 29.1756 19.8553 29.1137 20.1897L28.4978 19.5738L28.4895 19.5651C28.5027 19.4263 28.5204 19.2621 28.5204 19.1288C28.5204 16.4393 26.3396 14.2577 23.6493 14.2577C23.499 14.2577 23.3515 14.2671 23.2047 14.28C22.9193 14.3057 22.6424 14.3597 22.3727 14.4327C21.1463 14.765 20.1146 15.5628 19.4755 16.6272C19.3554 16.8269 19.2458 17.0329 19.155 17.2496C18.9129 17.8282 18.7782 18.4629 18.7782 19.1288C18.7782 19.3435 18.8238 19.7614 18.8238 19.7614C18.8238 19.7614 18.5681 19.8247 18.4303 19.8247C18.3248 19.8247 18.2232 19.8104 18.1248 19.7885C18.0994 19.5718 18.0823 19.3526 18.0823 19.1288C18.0823 18.3922 18.2288 17.6908 18.4887 17.0475C18.582 16.8171 18.6895 16.5955 18.8113 16.3815C19.472 15.2208 20.5381 14.3235 21.8171 13.8771ZM27.8124 18.8884L23.8901 14.9658C26.0031 15.0868 27.6913 16.7747 27.8124 18.8884ZM19.822 18.433C19.822 18.7774 19.6929 19.0888 19.4842 19.3299C19.4814 19.2635 19.4741 19.1974 19.4741 19.1288C19.4741 18.6762 19.5482 18.2419 19.6815 17.8335C19.7691 18.0158 19.822 18.2176 19.822 18.433ZM34.2315 27.2754L27.2724 34.2342C27.1412 34.3653 26.9666 34.438 26.7808 34.438C26.595 34.438 26.4203 34.3653 26.2888 34.2342L13.763 21.7084C13.6336 21.5787 13.5592 21.3991 13.5592 21.2164V14.2577C13.5592 13.8736 13.8713 13.5618 14.255 13.5618H20.7886C19.5896 14.1794 18.6192 15.1717 18.026 16.3853C17.0667 16.5736 16.3426 17.4184 16.3426 18.433C16.3426 19.5853 17.2776 20.5206 18.4303 20.5206C19.583 20.5206 20.5179 19.5853 20.5179 18.433C20.5179 17.9152 20.3283 17.442 20.0158 17.0774C20.624 16.003 21.6936 15.2278 22.9562 15.0162L34.2315 26.2915C34.363 26.4226 34.4354 26.5973 34.4354 26.7834C34.4354 26.9689 34.363 27.1436 34.2315 27.2754ZM17.3972 19.347C17.1784 19.1024 17.0385 18.7872 17.0385 18.433C17.0385 17.9465 17.289 17.5196 17.6669 17.2708C17.4846 17.8582 17.3865 18.482 17.3865 19.1288C17.3865 19.2022 17.3941 19.2743 17.3972 19.347Z" fill="#394240"/>
<path d="M30.3051 26.0455C29.898 25.6384 29.2359 25.6384 28.8288 26.0455L26.0509 28.8234C25.6441 29.2298 25.6292 29.9072 26.0363 30.3143C26.4426 30.7214 27.1176 30.7092 27.5247 30.3021L30.3054 27.5221H30.3047C30.7118 27.115 30.7118 26.4526 30.3051 26.0455ZM29.8128 27.0301L27.0432 29.7994C26.9071 29.9354 26.6632 29.9584 26.5282 29.8223C26.3922 29.6863 26.4099 29.4487 26.546 29.3126L29.3211 26.5378C29.4572 26.4018 29.6771 26.4018 29.8131 26.5378C29.9488 26.6735 29.9488 26.8941 29.8128 27.0301Z" fill="#394240"/>
<path d="M27.5196 24.7386C27.9267 24.3316 27.9267 23.6691 27.5199 23.2627C27.1129 22.8556 26.4507 22.8549 26.0436 23.262L23.2657 26.0399C22.859 26.447 22.844 27.1244 23.2511 27.5315C23.6575 27.9386 24.3325 27.9257 24.7396 27.5187L27.5203 24.7386H27.5196ZM27.0276 24.2467L24.258 27.0166C24.122 27.1526 23.8781 27.1756 23.7431 27.0395C23.607 26.9035 23.6248 26.6659 23.7608 26.5298L26.536 23.7543C26.672 23.6183 26.8919 23.6183 27.028 23.7543C27.1637 23.89 27.1637 24.1106 27.0276 24.2467Z" fill="#394240"/>
<path d="M24.7305 21.9537C25.1376 21.5466 25.1376 20.8842 24.7309 20.4778C24.3238 20.0707 23.6617 20.07 23.2546 20.4771L20.4767 23.255C20.0699 23.6621 20.055 24.3395 20.462 24.7466C20.8684 25.1537 21.5434 25.1408 21.9505 24.7337L24.7312 21.9537H24.7305ZM24.2385 21.4617L21.469 24.2317C21.3329 24.3677 21.089 24.3907 20.954 24.2546C20.818 24.1186 20.8357 23.881 20.9718 23.7449L23.7469 20.9694C23.883 20.8334 24.1029 20.8334 24.2389 20.9694C24.3746 21.1051 24.3746 21.3257 24.2385 21.4617Z" fill="#394240"/>
<path d="M29.8119 26.5382C29.6759 26.4021 29.456 26.4021 29.3199 26.5382L26.5448 29.313C26.4088 29.449 26.3914 29.6867 26.527 29.8227C26.6624 29.9588 26.9063 29.9354 27.042 29.7997L29.8116 27.0305C29.948 26.8941 29.948 26.6735 29.8119 26.5382Z" fill="#506C7F"/>
<path d="M27.0307 23.7547C26.8946 23.6186 26.6747 23.6186 26.5387 23.7547L23.7635 26.5302C23.6275 26.6662 23.6101 26.9039 23.7458 27.0399C23.8811 27.1759 24.125 27.1526 24.2607 27.0169L27.0303 24.247C27.1667 24.1106 27.1667 23.89 27.0307 23.7547Z" fill="#506C7F"/>
<path d="M24.2455 20.9698C24.1095 20.8337 23.8896 20.8337 23.7535 20.9698L20.9784 23.7453C20.8423 23.8813 20.8249 24.1189 20.9606 24.255C21.096 24.391 21.3399 24.3677 21.4756 24.232L24.2452 21.4621C24.3816 21.3257 24.3816 21.1051 24.2455 20.9698Z" fill="#506C7F"/>
<path d="M19.6839 17.8334C19.5507 18.2419 19.4766 18.6761 19.4766 19.1288C19.4766 19.1973 19.4839 19.2635 19.4867 19.3299C19.6954 19.0888 19.8245 18.7774 19.8245 18.4329C19.8245 18.2176 19.7716 18.0158 19.6839 17.8334Z" fill="#506C7F"/>
<path d="M17.0391 18.433C17.0391 18.7872 17.1789 19.1024 17.3978 19.347C17.3947 19.2743 17.387 19.2023 17.387 19.1289C17.387 18.482 17.4851 17.8582 17.6674 17.2709C17.2896 17.5196 17.0391 17.9466 17.0391 18.433Z" fill="#506C7F"/>
</svg>
