<svg width="127" height="127" viewBox="0 0 127 127" fill="none" xmlns="http://www.w3.org/2000/svg">
<path d="M110.963 69.8597L104.18 65.9438V73.7754L104.218 73.7562V85.2054L110.963 89.1021V81.3089L110.924 81.2896L110.963 81.2704V69.8597Z" stroke="#F8957E" stroke-width="1.92424" stroke-linecap="round" stroke-linejoin="round"/>
<path d="M97.4762 89.0537L97.4377 89.073L97.4762 89.0923V96.895L90.7318 92.9985V81.5493L90.6836 81.5204V73.7272L97.1683 77.4699L97.4762 77.6526V89.0537Z" stroke="#F8957E" stroke-width="1.92424" stroke-linecap="round" stroke-linejoin="round"/>
<path d="M104.18 73.7371V73.7755L104.218 73.7564L104.18 73.7371Z" stroke="#F8957E" stroke-width="1.92424" stroke-linecap="round" stroke-linejoin="round"/>
<path d="M124.407 54.2541V73.4965L117.711 77.3644V65.9631L110.918 62.0473L124.407 54.2541Z" stroke="#F8957E" stroke-width="1.92424" stroke-linecap="round" stroke-linejoin="round"/>
<path d="M117.715 65.9631V85.2055L110.961 89.1021V69.8597L114.54 67.8008L117.715 65.9631Z" stroke="#F8957E" stroke-width="1.92424" stroke-linecap="round" stroke-linejoin="round"/>
<path d="M104.174 65.9438V73.737L103.905 73.5734L97.4297 69.8308L97.6317 69.7153L104.174 65.9438Z" stroke="#F8957E" stroke-width="1.92424" stroke-linecap="round" stroke-linejoin="round"/>
<path d="M90.7268 81.5494V100.792L83.9727 104.679V85.4363L90.6786 81.5783L90.7268 81.5494Z" stroke="#F8957E" stroke-width="1.92424" stroke-linecap="round" stroke-linejoin="round"/>
<path d="M63.6884 89.3138V108.556L2.59375 73.2753V54.0329L19.2577 63.6541L29.4369 69.5326L48.1117 80.318L51.4984 82.2711L63.6884 89.3138Z" stroke="#F8957E" stroke-width="1.92424" stroke-linecap="round" stroke-linejoin="round"/>
<path d="M124.408 54.254L63.3132 18.9826L2.59375 54.0327L19.2577 63.6539L29.4369 69.5325L48.1117 80.3179L51.4984 82.271L63.6884 89.3137L77.187 81.5205L83.6621 85.2632L83.9699 85.4362L90.6758 81.5782L90.724 81.5494L90.6758 81.5205L83.9314 77.6238L84.1335 77.5084L90.6758 73.7273L97.1604 77.47L97.4683 77.6528L104.174 73.7753V73.7369L103.905 73.5734L97.4298 69.8307L97.6319 69.7153L104.174 65.9438L110.957 69.8596L114.536 67.8007L117.711 65.9629L110.919 62.0472L124.408 54.254ZM63.3708 30.7013L82.0457 41.477L75.4937 45.2582L65.3818 51.0982L58.4352 55.1103L56.4244 53.9557L46.2452 48.0772L39.7605 44.3345L63.3708 30.7013ZM41.5693 64.8469L36.3931 61.8643L29.3792 57.8138L22.8945 54.0712L36.3931 46.278L42.8777 50.0207L53.0474 55.8992L55.0582 57.0633L41.7617 64.7315L41.5693 64.8469ZM73.9445 71.6299L70.5771 73.5734L63.6307 77.5854L61.6295 76.4308L44.9559 66.8096L45.158 66.6941L68.576 53.1764L81.8437 60.8349L85.2399 62.7976L87.2412 63.9522L73.9445 71.6299ZM97.5645 57.9966L90.6182 62.0087L85.442 59.0261L71.9434 51.2329L78.8899 47.2209L85.442 43.4397L104.107 54.2155L97.5645 57.9966Z" stroke="#F8957E" stroke-width="1.92424" stroke-linecap="round" stroke-linejoin="round"/>
<path d="M36.3932 46.2781V61.8644L29.3792 57.814L22.8945 54.0713L36.3932 46.2781Z" stroke="#F8957E" stroke-width="1.92424" stroke-linecap="round" stroke-linejoin="round"/>
<path d="M55.0675 57.0635L41.771 64.7317L41.5786 64.8471L36.4023 61.8644V46.2781L42.887 50.0208L53.0566 55.8994L55.0675 57.0635Z" stroke="#F8957E" stroke-width="1.92424" stroke-linecap="round" stroke-linejoin="round"/>
<path d="M90.6781 73.7272V81.5204L83.9336 77.6237L84.1356 77.5083L90.6781 73.7272Z" stroke="#F8957E" stroke-width="1.92424" stroke-linecap="round" stroke-linejoin="round"/>
<path d="M83.9782 96.8471L83.9397 96.8663L83.9782 96.8856V104.679L77.1953 100.763V81.5205L83.6704 85.2632L83.9782 85.4363V96.8471Z" stroke="#F8957E" stroke-width="1.92424" stroke-linecap="round" stroke-linejoin="round"/>
<path d="M77.1939 81.5205V100.763L63.6953 108.556V89.3137L77.1939 81.5205Z" stroke="#F8957E" stroke-width="1.92424" stroke-linecap="round" stroke-linejoin="round"/>
<path d="M63.3721 30.7015V49.9439L56.4256 53.9559L46.2464 48.0773L39.7617 44.3347L63.3721 30.7015Z" stroke="#F8957E" stroke-width="1.92424" stroke-linecap="round" stroke-linejoin="round"/>
<path d="M82.0499 41.4772L75.4978 45.2584L65.3859 51.0984L63.375 49.9439V30.7015L82.0499 41.4772Z" stroke="#F8957E" stroke-width="1.92424" stroke-linecap="round" stroke-linejoin="round"/>
<path d="M104.107 54.2155L97.5645 57.9966L90.6176 62.0085L85.4414 59.0261V43.4397L104.107 54.2155Z" stroke="#F8957E" stroke-width="1.92424" stroke-linecap="round" stroke-linejoin="round"/>
<path d="M85.4439 43.4397V59.0261L71.9453 51.2329L78.8918 47.2207L85.4439 43.4397Z" stroke="#F8957E" stroke-width="1.92424" stroke-linecap="round" stroke-linejoin="round"/>
<path d="M68.577 53.1764V72.4188L61.6305 76.4308L44.957 66.8096L45.1591 66.6941L68.577 53.1764Z" stroke="#F8957E" stroke-width="1.92424" stroke-linecap="round" stroke-linejoin="round"/>
<path d="M87.2394 63.9522L73.9429 71.6299L70.5754 73.5734L68.5742 72.4188V53.1764L81.8419 60.8349L85.2383 62.7976L87.2394 63.9522Z" stroke="#F8957E" stroke-width="1.92424" stroke-linecap="round" stroke-linejoin="round"/>
<path d="M104.217 73.7564V92.9988L97.4727 96.8953V77.6529L104.179 73.7756L104.217 73.7564Z" stroke="#F8957E" stroke-width="1.92424" stroke-linecap="round" stroke-linejoin="round"/>
</svg>
