<svg width="138" height="137" viewBox="0 0 138 137" fill="none" xmlns="http://www.w3.org/2000/svg">
<path d="M61.321 20.0566L3.35938 53.5195L21.0025 63.706L31.9429 70.0217L39.2365 74.2288L42.8833 76.3374L61.107 86.8601L64.7538 88.9585L76.2646 95.6104L102.088 80.6972L116.583 72.3341L134.227 62.1475L61.321 20.0566ZM36.0786 55.679L35.4878 55.3429L28.7851 51.472L57.7658 34.7354L65.0594 38.9527L61.9118 40.7659L57.7658 43.1597L36.0786 55.679ZM57.9492 68.3104L57.8983 68.2798L57.3584 67.9742L54.2515 66.1712L53.7218 65.8656L46.4282 61.6585L39.7254 57.7876L57.7658 47.3668L65.5484 42.8745L68.696 41.0511L86.93 51.5738L83.7721 53.3972L72.3937 59.9676L69.2869 61.7604L57.9492 68.3104ZM105.653 66.0184L94.2643 72.5989L91.1574 74.3917L79.8198 80.9315L79.7688 80.901L79.2391 80.5954L76.1322 78.8025L75.5923 78.4969L68.3089 74.2797L64.6621 72.1813L61.596 70.4088L72.3937 64.1746L72.9336 63.869L87.4291 55.5059L90.5768 53.6825L108.801 64.2052L105.653 66.0184Z" stroke="#A2A9B0" stroke-width="1.01866" stroke-linecap="round" stroke-linejoin="round"/>
<path d="M108.798 64.2044L105.651 66.0176L94.2618 72.5981V64.1738L90.615 62.0754L90.5742 62.0957V53.6816L108.798 64.2044Z" stroke="#A2A9B0" stroke-width="1.01866" stroke-linecap="round" stroke-linejoin="round"/>
<path d="M79.7694 72.5359V80.8991L79.2397 80.5935L76.1328 78.8007V70.4375L79.7694 72.5359Z" stroke="#A2A9B0" stroke-width="1.01866" stroke-linecap="round" stroke-linejoin="round"/>
<path d="M94.261 64.1738V72.5981L91.1542 74.391L79.8165 80.9307L79.7656 80.9002V72.537L83.8605 70.1737L90.5735 66.3028L94.261 64.1738Z" stroke="#A2A9B0" stroke-width="1.01866" stroke-linecap="round" stroke-linejoin="round"/>
<path d="M94.2649 64.1766L90.5774 66.3056L83.8644 70.1764L79.7694 72.5397L76.1328 70.4413L80.2278 68.078L90.5774 62.0985L90.6181 62.0781L94.2649 64.1766Z" stroke="#A2A9B0" stroke-width="1.01866" stroke-linecap="round" stroke-linejoin="round"/>
<path d="M90.5706 53.6816V62.0957L80.2211 68.0753L76.1261 70.4385V78.8017L75.5862 78.4961L68.3028 74.2789L64.656 72.1804L61.5898 70.408L72.3876 64.1738L72.9275 63.8682L87.423 55.505L90.5706 53.6816Z" stroke="#A2A9B0" stroke-width="1.01866" stroke-linecap="round" stroke-linejoin="round"/>
<path d="M86.9216 51.5735L83.7637 53.3969L72.3852 59.9672V51.5531L68.7385 49.4445L68.6875 49.4751V41.0508L86.9216 51.5735Z" stroke="#A2A9B0" stroke-width="1.01866" stroke-linecap="round" stroke-linejoin="round"/>
<path d="M57.8968 59.9153V68.2784L57.3569 67.9728L54.25 66.1698V57.8066L57.8968 59.9153Z" stroke="#A2A9B0" stroke-width="1.01866" stroke-linecap="round" stroke-linejoin="round"/>
<path d="M72.39 51.5547V59.9688L69.2831 61.7616L57.9455 68.3116L57.8945 68.281V59.9179L61.9895 57.5546L68.6923 53.6837L72.39 51.5547Z" stroke="#A2A9B0" stroke-width="1.01866" stroke-linecap="round" stroke-linejoin="round"/>
<path d="M72.3923 51.5539L68.6945 53.6829L61.9918 57.5538L57.8968 59.9171L54.25 57.8085L58.345 55.4452L68.6945 49.4759L68.7455 49.4453L72.3923 51.5539Z" stroke="#A2A9B0" stroke-width="1.01866" stroke-linecap="round" stroke-linejoin="round"/>
<path d="M68.6893 41.0508V49.4751L58.3398 55.4444L54.2448 57.8077V66.1709L53.7151 65.8653L46.4215 61.6582L39.7188 57.7873L57.7592 47.3665L65.5417 42.8742L68.6893 41.0508Z" stroke="#A2A9B0" stroke-width="1.01866" stroke-linecap="round" stroke-linejoin="round"/>
<path d="M57.7542 34.7363V43.1606L36.067 55.6799L35.4762 55.3438L28.7734 51.4729L57.7542 34.7363Z" stroke="#A2A9B0" stroke-width="1.01866" stroke-linecap="round" stroke-linejoin="round"/>
<path d="M65.0514 38.9536L61.9037 40.7668L57.7578 43.1606V34.7363L65.0514 38.9536Z" stroke="#A2A9B0" stroke-width="1.01866" stroke-linecap="round" stroke-linejoin="round"/>
<path d="M134.227 62.1465V82.5196L76.2656 115.983V95.6094L102.089 80.6962L116.584 72.3331L134.227 62.1465Z" stroke="#A2A9B0" stroke-width="1.01866" stroke-linecap="round" stroke-linejoin="round"/>
<path d="M76.2646 95.6124V115.986L3.35938 73.8946V53.5215L21.0025 63.7081L31.9429 70.0237L39.2365 74.2308L42.8833 76.3394L61.107 86.8621L64.7538 88.9606L76.2646 95.6124Z" stroke="#A2A9B0" stroke-width="1.01866" stroke-linecap="round" stroke-linejoin="round"/>
</svg>
