<svg width="22" height="22" viewBox="0 0 22 22" fill="none" xmlns="http://www.w3.org/2000/svg">
<path d="M20.75 20.1875H18.3125V1.8125H19.25C19.3992 1.8125 19.5423 1.75324 19.6477 1.64775C19.7532 1.54226 19.8125 1.39918 19.8125 1.25C19.8125 1.10082 19.7532 0.957742 19.6477 0.852252C19.5423 0.746763 19.3992 0.6875 19.25 0.6875H2.75C2.60082 0.6875 2.45774 0.746763 2.35225 0.852252C2.24676 0.957742 2.1875 1.10082 2.1875 1.25C2.1875 1.39918 2.24676 1.54226 2.35225 1.64775C2.45774 1.75324 2.60082 1.8125 2.75 1.8125H3.6875V20.1875H1.25C1.10082 20.1875 0.957742 20.2468 0.852252 20.3523C0.746763 20.4577 0.6875 20.6008 0.6875 20.75C0.6875 20.8992 0.746763 21.0423 0.852252 21.1477C0.957742 21.2532 1.10082 21.3125 1.25 21.3125H20.75C20.8992 21.3125 21.0423 21.2532 21.1477 21.1477C21.2532 21.0423 21.3125 20.8992 21.3125 20.75C21.3125 20.6008 21.2532 20.4577 21.1477 20.3523C21.0423 20.2468 20.8992 20.1875 20.75 20.1875ZM4.8125 1.8125H17.1875V20.1875H13.8125V16.25C13.8125 16.1008 13.7532 15.9577 13.6477 15.8523C13.5423 15.7468 13.3992 15.6875 13.25 15.6875H8.75C8.60082 15.6875 8.45774 15.7468 8.35225 15.8523C8.24676 15.9577 8.1875 16.1008 8.1875 16.25V20.1875H4.8125V1.8125ZM12.6875 20.1875H9.3125V16.8125H12.6875V20.1875ZM7.4375 5C7.4375 4.85082 7.49676 4.70774 7.60225 4.60225C7.70774 4.49676 7.85082 4.4375 8 4.4375H9.5C9.64918 4.4375 9.79226 4.49676 9.89775 4.60225C10.0032 4.70774 10.0625 4.85082 10.0625 5C10.0625 5.14918 10.0032 5.29226 9.89775 5.39775C9.79226 5.50324 9.64918 5.5625 9.5 5.5625H8C7.85082 5.5625 7.70774 5.50324 7.60225 5.39775C7.49676 5.29226 7.4375 5.14918 7.4375 5ZM11.9375 5C11.9375 4.85082 11.9968 4.70774 12.1023 4.60225C12.2077 4.49676 12.3508 4.4375 12.5 4.4375H14C14.1492 4.4375 14.2923 4.49676 14.3977 4.60225C14.5032 4.70774 14.5625 4.85082 14.5625 5C14.5625 5.14918 14.5032 5.29226 14.3977 5.39775C14.2923 5.50324 14.1492 5.5625 14 5.5625H12.5C12.3508 5.5625 12.2077 5.50324 12.1023 5.39775C11.9968 5.29226 11.9375 5.14918 11.9375 5ZM7.4375 8.75C7.4375 8.60082 7.49676 8.45774 7.60225 8.35225C7.70774 8.24676 7.85082 8.1875 8 8.1875H9.5C9.64918 8.1875 9.79226 8.24676 9.89775 8.35225C10.0032 8.45774 10.0625 8.60082 10.0625 8.75C10.0625 8.89918 10.0032 9.04226 9.89775 9.14775C9.79226 9.25324 9.64918 9.3125 9.5 9.3125H8C7.85082 9.3125 7.70774 9.25324 7.60225 9.14775C7.49676 9.04226 7.4375 8.89918 7.4375 8.75ZM11.9375 8.75C11.9375 8.60082 11.9968 8.45774 12.1023 8.35225C12.2077 8.24676 12.3508 8.1875 12.5 8.1875H14C14.1492 8.1875 14.2923 8.24676 14.3977 8.35225C14.5032 8.45774 14.5625 8.60082 14.5625 8.75C14.5625 8.89918 14.5032 9.04226 14.3977 9.14775C14.2923 9.25324 14.1492 9.3125 14 9.3125H12.5C12.3508 9.3125 12.2077 9.25324 12.1023 9.14775C11.9968 9.04226 11.9375 8.89918 11.9375 8.75ZM8 13.0625C7.85082 13.0625 7.70774 13.0032 7.60225 12.8977C7.49676 12.7923 7.4375 12.6492 7.4375 12.5C7.4375 12.3508 7.49676 12.2077 7.60225 12.1023C7.70774 11.9968 7.85082 11.9375 8 11.9375H9.5C9.64918 11.9375 9.79226 11.9968 9.89775 12.1023C10.0032 12.2077 10.0625 12.3508 10.0625 12.5C10.0625 12.6492 10.0032 12.7923 9.89775 12.8977C9.79226 13.0032 9.64918 13.0625 9.5 13.0625H8ZM11.9375 12.5C11.9375 12.3508 11.9968 12.2077 12.1023 12.1023C12.2077 11.9968 12.3508 11.9375 12.5 11.9375H14C14.1492 11.9375 14.2923 11.9968 14.3977 12.1023C14.5032 12.2077 14.5625 12.3508 14.5625 12.5C14.5625 12.6492 14.5032 12.7923 14.3977 12.8977C14.2923 13.0032 14.1492 13.0625 14 13.0625H12.5C12.3508 13.0625 12.2077 13.0032 12.1023 12.8977C11.9968 12.7923 11.9375 12.6492 11.9375 12.5Z" fill="current"/>
</svg>
