<svg width="33" height="32" viewBox="0 0 33 32" fill="none" xmlns="http://www.w3.org/2000/svg">
<path d="M9.7813 2.66669C10.3386 2.66669 10.7893 3.08002 10.7893 3.58935V5.45335C11.6826 5.43735 12.6853 5.43735 13.8133 5.43735H19.1893C20.3173 5.43735 21.3186 5.43735 22.2133 5.45335V3.58935C22.2133 3.08002 22.664 2.66669 23.2213 2.66669C23.7786 2.66669 24.2293 3.08002 24.2293 3.58935V5.53335C26.1626 5.67469 27.4333 6.02402 28.3666 6.87735C29.3 7.73202 29.68 8.89469 29.8346 10.6667V12H3.16797V10.6667C3.32264 8.89469 3.70264 7.73335 4.63597 6.87735C5.5693 6.02402 6.83864 5.67469 8.7733 5.53335V3.58935C8.7733 3.08002 9.2253 2.66669 9.7813 2.66669Z" fill="#343A3F"/>
<path opacity="0.5" d="M29.8343 18.6667V16C29.8343 14.8813 29.817 12.8867 29.7997 12H3.17567C3.15834 12.8867 3.17567 14.8813 3.17567 16V18.6667C3.17567 23.6947 3.17567 26.2093 4.73567 27.7707C6.29967 29.3333 8.813 29.3333 13.8397 29.3333H19.173C24.1997 29.3333 26.7117 29.3333 28.2743 27.7707C29.837 26.208 29.8343 23.6947 29.8343 18.6667Z" fill="#343A3F"/>
<path fill-rule="evenodd" clip-rule="evenodd" d="M19.1654 16.3333C18.5465 16.3333 17.953 16.5791 17.5154 17.0167C17.0779 17.4543 16.832 18.0478 16.832 18.6666V21.3333C16.832 21.9522 17.0779 22.5456 17.5154 22.9832C17.953 23.4208 18.5465 23.6666 19.1654 23.6666C19.7842 23.6666 20.3777 23.4208 20.8153 22.9832C21.2529 22.5456 21.4987 21.9522 21.4987 21.3333V18.6666C21.4987 18.0478 21.2529 17.4543 20.8153 17.0167C20.3777 16.5791 19.7842 16.3333 19.1654 16.3333ZM19.1654 18.3333C19.077 18.3333 18.9922 18.3684 18.9297 18.4309C18.8671 18.4935 18.832 18.5782 18.832 18.6666V21.3333C18.832 21.4217 18.8671 21.5065 18.9297 21.569C18.9922 21.6315 19.077 21.6666 19.1654 21.6666C19.2538 21.6666 19.3386 21.6315 19.4011 21.569C19.4636 21.5065 19.4987 21.4217 19.4987 21.3333V18.6666C19.4987 18.5782 19.4636 18.4935 19.4011 18.4309C19.3386 18.3684 19.2538 18.3333 19.1654 18.3333Z" fill="#343A3F"/>
<path d="M15.4985 17.3333C15.4983 17.1357 15.4396 16.9425 15.3297 16.7782C15.2198 16.614 15.0637 16.4859 14.8811 16.4103C14.6984 16.3347 14.4975 16.3149 14.3036 16.3534C14.1098 16.3919 13.9317 16.487 13.7918 16.6267L11.7918 18.6267C11.6152 18.8162 11.519 19.067 11.5236 19.326C11.5282 19.5851 11.6331 19.8323 11.8163 20.0155C11.9995 20.1987 12.2467 20.3037 12.5058 20.3083C12.7649 20.3128 13.0156 20.2167 13.2052 20.04L13.4985 19.7467V22.6667C13.4985 22.9319 13.6039 23.1863 13.7914 23.3738C13.9789 23.5613 14.2333 23.6667 14.4985 23.6667C14.7637 23.6667 15.0181 23.5613 15.2056 23.3738C15.3931 23.1863 15.4985 22.9319 15.4985 22.6667V17.3333Z" fill="#343A3F"/>
</svg>
