<svg width="49" height="48" viewBox="0 0 49 48" fill="none" xmlns="http://www.w3.org/2000/svg">
<path opacity="0.2" d="M39.5 12H33.5L30.5 7.5H18.5L15.5 12H9.5C8.70435 12 7.94129 12.3161 7.37868 12.8787C6.81607 13.4413 6.5 14.2044 6.5 15V36C6.5 36.7956 6.81607 37.5587 7.37868 38.1213C7.94129 38.6839 8.70435 39 9.5 39H39.5C40.2957 39 41.0587 38.6839 41.6213 38.1213C42.1839 37.5587 42.5 36.7956 42.5 36V15C42.5 14.2044 42.1839 13.4413 41.6213 12.8787C41.0587 12.3161 40.2957 12 39.5 12ZM24.5 31.5C23.165 31.5 21.8599 31.1041 20.7499 30.3624C19.6399 29.6207 18.7747 28.5665 18.2638 27.3331C17.7529 26.0997 17.6192 24.7425 17.8797 23.4331C18.1401 22.1238 18.783 20.921 19.727 19.977C20.671 19.033 21.8738 18.3901 23.1831 18.1297C24.4925 17.8692 25.8497 18.0029 27.0831 18.5138C28.3165 19.0247 29.3707 19.8899 30.1124 20.9999C30.8541 22.1099 31.25 23.415 31.25 24.75C31.25 26.5402 30.5388 28.2571 29.273 29.523C28.0071 30.7888 26.2902 31.5 24.5 31.5Z" fill="#EE9818"/>
<path d="M39.5 39H9.5C8.70435 39 7.94129 38.6839 7.37868 38.1213C6.81607 37.5587 6.5 36.7956 6.5 36V15C6.5 14.2044 6.81607 13.4413 7.37868 12.8787C7.94129 12.3161 8.70435 12 9.5 12H15.5L18.5 7.5H30.5L33.5 12H39.5C40.2956 12 41.0587 12.3161 41.6213 12.8787C42.1839 13.4413 42.5 14.2044 42.5 15V36C42.5 36.7956 42.1839 37.5587 41.6213 38.1213C41.0587 38.6839 40.2956 39 39.5 39Z" stroke="#EE9818" stroke-width="2" stroke-linecap="round" stroke-linejoin="round"/>
<path d="M24.5 31.5C28.2279 31.5 31.25 28.4779 31.25 24.75C31.25 21.0221 28.2279 18 24.5 18C20.7721 18 17.75 21.0221 17.75 24.75C17.75 28.4779 20.7721 31.5 24.5 31.5Z" stroke="#EE9818" stroke-width="2" stroke-linecap="round" stroke-linejoin="round"/>
</svg>
