<svg width="13" height="13" viewBox="0 0 13 13" fill="current" xmlns="http://www.w3.org/2000/svg">
<path d="M5.23138 2.60164C5.09913 2.46913 4.9356 2.37211 4.75591 2.31956C4.57622 2.26702 4.38619 2.26063 4.20338 2.30101C4.02057 2.34138 3.8509 2.42721 3.71006 2.55055C3.56922 2.67389 3.46176 2.83076 3.39763 3.00664L0.444501 11.1297C0.383453 11.2977 0.363681 11.4779 0.386851 11.6551C0.410021 11.8323 0.475455 12.0013 0.577636 12.148C0.679818 12.2946 0.815752 12.4145 0.973981 12.4976C1.13221 12.5807 1.3081 12.6245 1.48681 12.6254C1.61809 12.6251 1.7483 12.6019 1.87156 12.5568L9.99463 9.60364C10.1707 9.53976 10.3278 9.43248 10.4514 9.29176C10.5749 9.15103 10.661 8.98139 10.7016 8.79856C10.7422 8.61572 10.736 8.4256 10.6837 8.24579C10.6313 8.06598 10.5343 7.90229 10.4019 7.76989L5.23138 2.60164ZM4.66156 10.106L2.89531 8.3397L3.46625 6.76977L6.2315 9.53502L4.66156 10.106ZM2.38794 9.73977L3.2615 10.615L1.88619 11.1151L2.38794 9.73977ZM7.63213 9.02539L3.97588 5.36914L4.53838 3.81777L9.18294 8.46289L7.63213 9.02539ZM6.00088 2.05039V0.700391C6.00088 0.52137 6.07199 0.349681 6.19858 0.223094C6.32517 0.0965065 6.49685 0.0253906 6.67588 0.0253906C6.8549 0.0253906 7.02659 0.0965065 7.15317 0.223094C7.27976 0.349681 7.35088 0.52137 7.35088 0.700391V2.05039C7.35088 2.22941 7.27976 2.4011 7.15317 2.52769C7.02659 2.65427 6.8549 2.72539 6.67588 2.72539C6.49685 2.72539 6.32517 2.65427 6.19858 2.52769C6.07199 2.4011 6.00088 2.22941 6.00088 2.05039ZM12.5529 6.74783C12.6797 6.87464 12.7509 7.04662 12.7509 7.22595C12.7509 7.40528 12.6797 7.57727 12.5529 7.70408C12.4261 7.83088 12.2541 7.90212 12.0748 7.90212C11.8954 7.90212 11.7234 7.83088 11.5966 7.70408L10.6966 6.80408C10.5698 6.67727 10.4986 6.50529 10.4986 6.32595C10.4986 6.14662 10.5698 5.97464 10.6966 5.84783C10.8234 5.72102 10.9954 5.64978 11.1748 5.64978C11.3541 5.64978 11.5261 5.72102 11.6529 5.84783L12.5529 6.74783ZM12.5141 4.49052L11.1641 4.94052C10.9942 4.99713 10.8088 4.98396 10.6487 4.90389C10.4886 4.82382 10.3668 4.68342 10.3102 4.51358C10.2536 4.34373 10.2667 4.15835 10.3468 3.99822C10.4269 3.83809 10.5673 3.71632 10.7371 3.6597L12.0871 3.2097C12.257 3.15309 12.4424 3.16626 12.6025 3.24633C12.7626 3.3264 12.8844 3.46679 12.941 3.63664C12.9976 3.80649 12.9844 3.99187 12.9044 4.152C12.8243 4.31213 12.6839 4.4339 12.5141 4.49052ZM7.60963 3.50895C7.79131 2.47058 8.55406 1.82539 9.60088 1.82539C9.96369 1.82539 10.0897 1.68533 10.1634 1.54864C10.2289 1.42265 10.2673 1.28428 10.2759 1.14252V1.15039C10.2759 0.97137 10.347 0.799681 10.4736 0.673094C10.6002 0.546507 10.7719 0.475391 10.9509 0.475391C11.1299 0.475391 11.3016 0.546507 11.4282 0.673094C11.5548 0.799681 11.6259 0.97137 11.6259 1.15039C11.6259 1.96433 11.0864 3.17539 9.60088 3.17539C9.323 3.17539 9.02656 3.24233 8.93938 3.74127C8.91211 3.89772 8.83056 4.03955 8.70905 4.14182C8.58755 4.24408 8.43388 4.30023 8.27506 4.30039C8.23585 4.30032 8.19671 4.29694 8.15806 4.29027C7.98173 4.25938 7.82488 4.15972 7.72203 4.01319C7.61918 3.86667 7.57875 3.68529 7.60963 3.50895Z" />
</svg>
