<svg width="20" height="18" viewBox="0 0 20 18" fill="none" xmlns="http://www.w3.org/2000/svg">
<path d="M19 15.9375H18.0625V0.75C18.0625 0.600816 18.0032 0.457742 17.8977 0.352252C17.7923 0.246763 17.6492 0.1875 17.5 0.1875H12.25C12.1008 0.1875 11.9577 0.246763 11.8523 0.352252C11.7468 0.457742 11.6875 0.600816 11.6875 0.75V4.6875H7C6.85082 4.6875 6.70774 4.74676 6.60225 4.85225C6.49676 4.95774 6.4375 5.10082 6.4375 5.25V9.1875H2.5C2.35082 9.1875 2.20774 9.24676 2.10225 9.35225C1.99676 9.45774 1.9375 9.60082 1.9375 9.75V15.9375H1C0.850816 15.9375 0.707742 15.9968 0.602252 16.1023C0.496763 16.2077 0.4375 16.3508 0.4375 16.5C0.4375 16.6492 0.496763 16.7923 0.602252 16.8977C0.707742 17.0032 0.850816 17.0625 1 17.0625H19C19.1492 17.0625 19.2923 17.0032 19.3977 16.8977C19.5032 16.7923 19.5625 16.6492 19.5625 16.5C19.5625 16.3508 19.5032 16.2077 19.3977 16.1023C19.2923 15.9968 19.1492 15.9375 19 15.9375ZM12.8125 1.3125H16.9375V15.9375H12.8125V1.3125ZM7.5625 5.8125H11.6875V15.9375H7.5625V5.8125ZM3.0625 10.3125H6.4375V15.9375H3.0625V10.3125Z" fill="current"/>
</svg>
