<svg width="20" height="20" viewBox="0 0 20 20" fill="none" xmlns="http://www.w3.org/2000/svg">
<path d="M13.0632 8.94783C13.4026 8.63699 13.4257 8.10986 13.1149 7.77046C12.804 7.43106 12.2769 7.40791 11.9375 7.71875L8.86076 10.5366L8.06316 9.80611C7.72376 9.49527 7.19663 9.51842 6.88578 9.85782C6.57494 10.1972 6.59809 10.7244 6.93749 11.0352L8.29792 12.2812C8.61645 12.5729 9.10507 12.5729 9.42359 12.2812L13.0632 8.94783Z" fill="white"/>
<path fill-rule="evenodd" clip-rule="evenodd" d="M10.0003 1.66663C5.39795 1.66663 1.66699 5.39759 1.66699 9.99996C1.66699 14.6023 5.39795 18.3333 10.0003 18.3333C14.6027 18.3333 18.3337 14.6023 18.3337 9.99996C18.3337 5.39759 14.6027 1.66663 10.0003 1.66663ZM3.33366 9.99996C3.33366 6.31806 6.31843 3.33329 10.0003 3.33329C13.6822 3.33329 16.667 6.31806 16.667 9.99996C16.667 13.6819 13.6822 16.6666 10.0003 16.6666C6.31843 16.6666 3.33366 13.6819 3.33366 9.99996Z" fill="white"/>
</svg>
