<svg width="24" height="19" viewBox="0 0 24 19" fill="current" xmlns="http://www.w3.org/2000/svg">
<path d="M22.5 17.6866H20.8125V10.2963L21.3525 10.8363C21.4583 10.9403 21.601 10.9983 21.7494 10.9976C21.8978 10.9969 22.0399 10.9376 22.1447 10.8326C22.2496 10.7276 22.3087 10.5854 22.3093 10.437C22.3098 10.2886 22.2516 10.146 22.1475 10.0403L12.9281 0.820016C12.8062 0.698125 12.6616 0.601435 12.5023 0.535468C12.3431 0.4695 12.1724 0.435547 12 0.435547C11.8276 0.435547 11.6569 0.4695 11.4977 0.535468C11.3384 0.601435 11.1938 0.698125 11.0719 0.820016L1.8525 10.0403C1.74836 10.146 1.69022 10.2886 1.69074 10.437C1.69125 10.5854 1.75038 10.7276 1.85525 10.8326C1.96012 10.9376 2.10223 10.9969 2.25062 10.9976C2.39901 10.9983 2.54166 10.9403 2.6475 10.8363L3.1875 10.2963V17.6866H1.5C1.35082 17.6866 1.20774 17.7458 1.10225 17.8513C0.996763 17.9568 0.9375 18.0999 0.9375 18.2491C0.9375 18.3983 0.996763 18.5413 1.10225 18.6468C1.20774 18.7523 1.35082 18.8116 1.5 18.8116H22.5C22.6492 18.8116 22.7923 18.7523 22.8977 18.6468C23.0032 18.5413 23.0625 18.3983 23.0625 18.2491C23.0625 18.0999 23.0032 17.9568 22.8977 17.8513C22.7923 17.7458 22.6492 17.6866 22.5 17.6866ZM4.3125 9.17127L11.8669 1.61595C11.8843 1.59838 11.905 1.58443 11.9279 1.57491C11.9507 1.56539 11.9752 1.56049 12 1.56049C12.0248 1.56049 12.0493 1.56539 12.0721 1.57491C12.095 1.58443 12.1157 1.59838 12.1331 1.61595L19.6875 9.17127V17.6866H14.8125V12.2491C14.8125 12.0999 14.7532 11.9568 14.6477 11.8513C14.5423 11.7458 14.3992 11.6866 14.25 11.6866H9.75C9.60082 11.6866 9.45774 11.7458 9.35225 11.8513C9.24676 11.9568 9.1875 12.0999 9.1875 12.2491V17.6866H4.3125V9.17127ZM13.6875 17.6866H10.3125V12.8116H13.6875V17.6866Z" fill="current"/>
</svg>
