<svg width="18" height="18" viewBox="0 0 18 18" fill="none" xmlns="http://www.w3.org/2000/svg">
<path d="M1.6875 7.17168H3.51562V11.9529H2.25C2.13811 11.9529 2.03081 11.9974 1.95169 12.0765C1.87257 12.1556 1.82812 12.2629 1.82812 12.3748C1.82812 12.4867 1.87257 12.594 1.95169 12.6731C2.03081 12.7522 2.13811 12.7967 2.25 12.7967H15.75C15.8619 12.7967 15.9692 12.7522 16.0483 12.6731C16.1274 12.594 16.1719 12.4867 16.1719 12.3748C16.1719 12.2629 16.1274 12.1556 16.0483 12.0765C15.9692 11.9974 15.8619 11.9529 15.75 11.9529H14.4844V7.17168H16.3125C16.4043 7.17161 16.4936 7.14158 16.5668 7.08615C16.6401 7.03072 16.6932 6.95291 16.7182 6.86454C16.7431 6.77618 16.7386 6.68207 16.7052 6.59652C16.6719 6.51097 16.6115 6.43863 16.5333 6.39051L9.22078 1.89051C9.15436 1.84972 9.07794 1.82812 9 1.82812C8.92206 1.82812 8.84564 1.84972 8.77922 1.89051L1.46672 6.39051C1.38851 6.43863 1.32814 6.51097 1.29477 6.59652C1.26141 6.68207 1.25687 6.77618 1.28184 6.86454C1.30682 6.95291 1.35995 7.03072 1.43316 7.08615C1.50637 7.14158 1.59567 7.17161 1.6875 7.17168ZM4.35938 7.17168H6.89062V11.9529H4.35938V7.17168ZM10.2656 7.17168V11.9529H7.73438V7.17168H10.2656ZM13.6406 11.9529H11.1094V7.17168H13.6406V11.9529ZM9 2.74199L14.8219 6.32793H3.17813L9 2.74199ZM17.2969 14.6248C17.2969 14.7367 17.2524 14.844 17.1733 14.9231C17.0942 15.0022 16.9869 15.0467 16.875 15.0467H1.125C1.01311 15.0467 0.905806 15.0022 0.826689 14.9231C0.747572 14.844 0.703125 14.7367 0.703125 14.6248C0.703125 14.5129 0.747572 14.4056 0.826689 14.3265C0.905806 14.2474 1.01311 14.2029 1.125 14.2029H16.875C16.9869 14.2029 17.0942 14.2474 17.1733 14.3265C17.2524 14.4056 17.2969 14.5129 17.2969 14.6248Z" fill="#343330"/>
</svg>
