<svg width="18" height="18" viewBox="0 0 18 18" fill="none" xmlns="http://www.w3.org/2000/svg">
<path d="M15.75 0.9375H2.25C1.9019 0.9375 1.56806 1.07578 1.32192 1.32192C1.07578 1.56806 0.9375 1.9019 0.9375 2.25V15.75C0.9375 16.0981 1.07578 16.4319 1.32192 16.6781C1.56806 16.9242 1.9019 17.0625 2.25 17.0625H15.75C16.0981 17.0625 16.4319 16.9242 16.6781 16.6781C16.9242 16.4319 17.0625 16.0981 17.0625 15.75V2.25C17.0625 1.9019 16.9242 1.56806 16.6781 1.32192C16.4319 1.07578 16.0981 0.9375 15.75 0.9375ZM15.9375 2.25V8.4375H9.5625V2.0625H15.75C15.7997 2.0625 15.8474 2.08225 15.8826 2.11742C15.9177 2.15258 15.9375 2.20027 15.9375 2.25ZM2.25 2.0625H8.4375V8.4375H2.0625V2.25C2.0625 2.20027 2.08225 2.15258 2.11742 2.11742C2.15258 2.08225 2.20027 2.0625 2.25 2.0625ZM2.0625 15.75V9.5625H8.4375V15.9375H2.25C2.20027 15.9375 2.15258 15.9177 2.11742 15.8826C2.08225 15.8474 2.0625 15.7997 2.0625 15.75ZM15.75 15.9375H9.5625V9.5625H15.9375V15.75C15.9375 15.7997 15.9177 15.8474 15.8826 15.8826C15.8474 15.9177 15.7997 15.9375 15.75 15.9375Z" fill="current"/>
</svg>
