<svg width="45" height="37" viewBox="0 0 45 37" fill="none" xmlns="http://www.w3.org/2000/svg">
<path d="M42.96 22.7469C42.4464 22.3513 41.8483 22.0798 41.2124 21.9536C40.5766 21.8274 39.9201 21.8499 39.2944 22.0194L30.8119 23.9694C31.0899 23.2316 31.1849 22.4374 31.0887 21.6549C30.9925 20.8724 30.7079 20.1249 30.2593 19.4765C29.8108 18.8281 29.2117 18.2982 28.5134 17.9322C27.8151 17.5662 27.0384 17.375 26.25 17.375H16.8638C16.1248 17.3729 15.3928 17.5175 14.7101 17.8004C14.0274 18.0833 13.4077 18.4989 12.8869 19.0231L8.535 23.375H3C2.30381 23.375 1.63613 23.6516 1.14384 24.1438C0.651562 24.6361 0.375 25.3038 0.375 26V33.5C0.375 34.1962 0.651562 34.8639 1.14384 35.3562C1.63613 35.8484 2.30381 36.125 3 36.125H22.5C22.5923 36.125 22.6842 36.1137 22.7738 36.0913L34.7738 33.0913C34.8305 33.0762 34.8863 33.0574 34.9406 33.035L42.2194 29.9375L42.2812 29.9094C42.9248 29.588 43.476 29.108 43.8828 28.5148C44.2896 27.9215 44.5387 27.2344 44.6066 26.5183C44.6745 25.8022 44.559 25.0805 44.2709 24.4214C43.9828 23.7622 43.5317 23.1872 42.96 22.7506V22.7469ZM2.625 33.5V26C2.625 25.9005 2.66451 25.8052 2.73484 25.7348C2.80516 25.6645 2.90054 25.625 3 25.625H7.875V33.875H3C2.90054 33.875 2.80516 33.8355 2.73484 33.7652C2.66451 33.6948 2.625 33.5995 2.625 33.5ZM41.3025 27.875L34.14 30.9256L22.3612 33.875H10.125V24.9669L14.4769 20.6131C14.7896 20.2987 15.1616 20.0495 15.5713 19.8799C15.981 19.7103 16.4203 19.6237 16.8638 19.625H26.25C26.9462 19.625 27.6139 19.9016 28.1062 20.3938C28.5984 20.8861 28.875 21.5538 28.875 22.25C28.875 22.9462 28.5984 23.6139 28.1062 24.1062C27.6139 24.5984 26.9462 24.875 26.25 24.875H21C20.7016 24.875 20.4155 24.9935 20.2045 25.2045C19.9935 25.4155 19.875 25.7016 19.875 26C19.875 26.2984 19.9935 26.5845 20.2045 26.7955C20.4155 27.0065 20.7016 27.125 21 27.125H27C27.0845 27.1251 27.1688 27.1157 27.2512 27.0969L39.8138 24.2075L39.8587 24.1963C40.3316 24.0673 40.8354 24.1177 41.2733 24.3376C41.7113 24.5575 42.0526 24.9315 42.2316 25.3877C42.4107 25.8439 42.4148 26.3502 42.2434 26.8093C42.0719 27.2684 41.7368 27.6479 41.3025 27.875ZM30.75 13.625C31.2089 13.6247 31.6665 13.5757 32.115 13.4788C32.4524 14.677 33.1332 15.7502 34.0735 16.566C35.0137 17.3818 36.1722 17.9045 37.4061 18.0695C38.6399 18.2346 39.8951 18.0348 41.0167 17.4948C42.1383 16.9548 43.0773 16.0983 43.7178 15.0309C44.3582 13.9635 44.6722 12.7319 44.6209 11.4882C44.5697 10.2444 44.1554 9.04286 43.4292 8.03181C42.703 7.02076 41.6967 6.24444 40.5344 5.79864C39.3722 5.35283 38.1048 5.25706 36.8888 5.52313C36.5674 4.38109 35.9337 3.35139 35.059 2.54987C34.1843 1.74835 33.1033 1.20682 31.9376 0.986199C30.7719 0.765577 29.5678 0.87462 28.4607 1.30106C27.3535 1.7275 26.3874 2.45441 25.6709 3.40002C24.9544 4.34563 24.516 5.47242 24.4051 6.65361C24.2941 7.8348 24.5149 9.02353 25.0427 10.0861C25.5705 11.1486 26.3843 12.0427 27.3926 12.668C28.4009 13.2932 29.5636 13.6246 30.75 13.625ZM42.375 11.75C42.375 12.5658 42.1331 13.3634 41.6798 14.0417C41.2266 14.7201 40.5823 15.2488 39.8286 15.561C39.0748 15.8732 38.2454 15.9549 37.4453 15.7957C36.6451 15.6366 35.9101 15.2437 35.3332 14.6668C34.7563 14.0899 34.3634 13.3549 34.2043 12.5547C34.0451 11.7546 34.1268 10.9252 34.439 10.1714C34.7512 9.41769 35.2799 8.77345 35.9583 8.32019C36.6366 7.86693 37.4342 7.625 38.25 7.625C39.344 7.625 40.3932 8.0596 41.1668 8.83319C41.9404 9.60677 42.375 10.656 42.375 11.75ZM30.75 3.125C31.697 3.12388 32.6154 3.44952 33.3502 4.04696C34.0849 4.64441 34.591 5.47706 34.7831 6.40438C33.9676 6.93316 33.2839 7.6414 32.784 8.47496C32.2842 9.30851 31.9816 10.2453 31.8994 11.2138C31.3323 11.3771 30.7368 11.4169 30.1531 11.3305C29.5693 11.244 29.0109 11.0334 28.5155 10.7126C28.0202 10.3919 27.5994 9.96867 27.2816 9.47143C26.9638 8.9742 26.7564 8.41456 26.6734 7.83031C26.5903 7.24606 26.6336 6.6508 26.8003 6.08471C26.9671 5.51863 27.2533 4.9949 27.6397 4.54889C28.0261 4.10289 28.5037 3.74498 29.0403 3.49934C29.5769 3.2537 30.1599 3.12605 30.75 3.125Z" fill="current"/>
</svg>
