<svg width="18" height="18" viewBox="0 0 18 18" fill="none" xmlns="http://www.w3.org/2000/svg">
<path d="M13.8699 4.52885C13.8386 4.51476 13.8136 4.48976 13.7995 4.45854C13.4034 3.51236 12.7365 2.70437 11.8826 2.1361C11.0286 1.56783 10.0258 1.26465 9.00002 1.26465C7.97427 1.26465 6.97141 1.56783 6.11746 2.1361C5.26352 2.70437 4.59659 3.51236 4.20049 4.45854C4.18639 4.48976 4.16139 4.51476 4.13017 4.52885C3.27867 4.92299 2.55705 5.55151 2.04975 6.34085C1.54245 7.13018 1.27047 8.04768 1.26564 8.98596C1.25861 11.6396 3.40947 13.8516 6.06095 13.9219C6.94046 13.9464 7.81021 13.7326 8.57814 13.3032V16.3125C8.57814 16.4244 8.62259 16.5317 8.70171 16.6108C8.78082 16.69 8.88813 16.7344 9.00002 16.7344C9.11191 16.7344 9.21921 16.69 9.29833 16.6108C9.37745 16.5317 9.42189 16.4244 9.42189 16.3125V13.3017C10.1526 13.7096 10.9757 13.9232 11.8125 13.9219H11.9398C14.5906 13.8516 16.7414 11.641 16.7344 8.98737C16.7297 8.04888 16.4577 7.13116 15.9504 6.34158C15.4432 5.552 14.7215 4.92323 13.8699 4.52885ZM11.918 13.0782C11.0764 13.1017 10.2483 12.8623 9.54916 12.3933C9.50843 12.3669 9.4659 12.3434 9.42189 12.323V9.2644L12.5635 7.69362C12.6636 7.64364 12.7398 7.55593 12.7753 7.44978C12.8107 7.34364 12.8026 7.22774 12.7526 7.1276C12.7026 7.02746 12.6149 6.95128 12.5088 6.91581C12.4026 6.88034 12.2867 6.88849 12.1866 6.93846L9.42189 8.31729V6.18753C9.42189 6.07564 9.37745 5.96833 9.29833 5.88922C9.21921 5.8101 9.11191 5.76565 9.00002 5.76565C8.88813 5.76565 8.78082 5.8101 8.70171 5.88922C8.62259 5.96833 8.57814 6.07564 8.57814 6.18753V10.0048L5.81345 8.62245C5.71331 8.57247 5.59742 8.56432 5.49127 8.59979C5.38513 8.63526 5.29742 8.71145 5.24744 8.81159C5.19746 8.91173 5.18931 9.02762 5.22478 9.13377C5.26025 9.23992 5.33644 9.32763 5.43658 9.3776L8.57814 10.9484V12.3195C8.53413 12.3399 8.4916 12.3634 8.45088 12.3898C7.75224 12.8604 6.92408 13.101 6.08205 13.0782C5.16089 13.0549 4.27476 12.7204 3.56805 12.1291C2.86133 11.5378 2.37569 10.7246 2.19026 9.82199C2.00483 8.91939 2.13055 7.9806 2.54691 7.15858C2.96328 6.33657 3.64576 5.67979 4.48314 5.29526C4.70688 5.19202 4.88377 5.00861 4.97885 4.78128C5.31073 3.98857 5.86951 3.31163 6.58497 2.83554C7.30042 2.35945 8.14063 2.10545 9.00002 2.10545C9.8594 2.10545 10.6996 2.35945 11.4151 2.83554C12.1305 3.31163 12.6893 3.98857 13.0212 4.78128C13.1166 5.00808 13.2934 5.19095 13.5169 5.29385C14.3551 5.67794 15.0383 6.33471 15.4553 7.15702C15.8722 7.97933 15.9982 8.91866 15.8127 9.82178C15.6272 10.7249 15.1412 11.5385 14.4338 12.1299C13.7265 12.7213 12.8397 13.0555 11.918 13.0782Z" fill="#343330"/>
</svg>
