<svg width="18" height="19" viewBox="0 0 18 19" fill="none" xmlns="http://www.w3.org/2000/svg">
<path d="M5.25 8H15C15.4142 8 15.75 8.33577 15.75 8.75V16.25C15.75 16.6642 15.4142 17 15 17H3C2.58579 17 2.25 16.6642 2.25 16.25V8.75C2.25 8.33577 2.58579 8 3 8H3.75V7.25C3.75 4.35051 6.10051 2 9 2C11.0554 2 12.8348 3.1811 13.6968 4.90162L12.3548 5.57258C11.7392 4.34365 10.4681 3.5 9 3.5C6.92894 3.5 5.25 5.17894 5.25 7.25V8ZM3.75 9.5V15.5H14.25V9.5H3.75ZM7.5 11.75H10.5V13.25H7.5V11.75Z" fill="#F7D150"/>
</svg>
