<svg width="24" height="17" viewBox="0 0 24 17" fill="current" xmlns="http://www.w3.org/2000/svg">
<path d="M22.8843 8.49739C22.8009 8.35075 22.6892 8.22218 22.5556 8.11917C22.422 8.01616 22.2692 7.94077 22.1062 7.89739C21.3667 7.70831 20.6007 7.64493 19.8403 7.70989C20.2781 5.77583 19.9921 4.24957 19.7043 3.35989C19.6039 3.04559 19.39 2.77996 19.1044 2.61479C18.8187 2.44961 18.4818 2.39673 18.1593 2.46645C17.1583 2.69097 16.2106 3.10844 15.3693 3.69551C14.7838 2.42182 13.8986 1.30885 12.7893 0.451762C12.5617 0.28026 12.2845 0.1875 11.9995 0.1875C11.7145 0.1875 11.4372 0.28026 11.2096 0.451762C10.101 1.30923 9.21611 2.42211 8.63057 3.69551C7.78904 3.10822 6.84102 2.69074 5.83963 2.46645C5.51713 2.39682 5.18025 2.44986 4.89476 2.61523C4.60926 2.7806 4.39563 3.04643 4.29557 3.36082C4.00776 4.25051 3.72182 5.77676 4.15963 7.71082C3.39915 7.64587 2.63316 7.70925 1.8937 7.89832C1.73067 7.9417 1.57791 8.0171 1.44432 8.12011C1.31073 8.22312 1.19897 8.35169 1.11557 8.49832C1.02792 8.64902 0.971168 8.81568 0.948633 8.98856C0.926098 9.16143 0.93823 9.33706 0.98432 9.5052C1.29463 10.6564 2.24995 12.8446 5.14869 14.5799C8.04745 16.3152 10.6209 16.3133 11.9999 16.3133C13.379 16.3133 15.9487 16.3133 18.8493 14.5799C21.7499 12.8464 22.7034 10.6564 23.0137 9.50426C23.0601 9.33625 23.0725 9.16068 23.0503 8.98781C23.0281 8.81494 22.9717 8.64822 22.8843 8.49739ZM15.7949 4.7727C16.5668 4.19066 17.4531 3.77851 18.3956 3.56332C18.4456 3.55311 18.4977 3.56183 18.5417 3.58781C18.5857 3.61379 18.6185 3.65518 18.6337 3.70395C19.0031 4.84957 19.3659 7.21957 17.6409 10.2196C16.9484 11.4029 16.0609 12.4606 15.0159 13.348C15.7359 12.0946 16.3124 10.4005 16.3124 8.17301C16.3212 7.01931 16.1465 5.87156 15.7949 4.7727ZM5.3662 3.70676C5.38086 3.65747 5.41341 3.61543 5.45746 3.5889C5.50151 3.56236 5.55389 3.55324 5.60432 3.56332C6.54679 3.77851 7.43307 4.19066 8.20495 4.7727C7.85337 5.87156 7.67869 7.01931 7.68745 8.17301C7.68745 10.4005 8.26401 12.0964 8.98213 13.3452C7.93686 12.458 7.04933 11.4002 6.35713 10.2168C4.63401 7.21957 4.99682 4.84957 5.3662 3.70676ZM5.7262 13.6133C3.16682 12.0843 2.33713 10.1989 2.06995 9.20707C2.06294 9.18188 2.06107 9.15553 2.06445 9.1296C2.06784 9.10367 2.0764 9.07869 2.08963 9.05614C2.10999 9.01994 2.1436 8.99305 2.18338 8.98114C2.94106 8.79286 3.72883 8.75875 4.49995 8.88082C4.73781 9.53948 5.03366 10.1757 5.38401 10.7821C6.34585 12.4419 7.65746 13.8725 9.22776 14.9746C7.98981 14.7296 6.80457 14.2688 5.7262 13.6133ZM11.9999 15.0814C11.1862 14.5002 8.81245 12.4377 8.81245 8.17301C8.81245 4.10801 10.9631 2.04739 11.8874 1.34989C11.9199 1.32555 11.9594 1.31239 11.9999 1.31239C12.0405 1.31239 12.08 1.32555 12.1124 1.34989C13.0368 2.04739 15.1874 4.10801 15.1874 8.17301C15.1874 12.4639 12.8259 14.5011 11.9999 15.0814ZM21.9281 9.21082C21.6609 10.1989 20.8312 12.0843 18.2718 13.6171C17.1923 14.2712 16.0061 14.7304 14.7674 14.9736C16.3377 13.8716 17.6493 12.441 18.6112 10.7811C18.9631 10.1753 19.2605 9.53932 19.4999 8.88082C20.2719 8.75972 21.0604 8.79511 21.8184 8.98489C21.8582 8.9968 21.8918 9.02369 21.9121 9.05989C21.9251 9.08257 21.9333 9.10762 21.9363 9.13355C21.9394 9.15948 21.9372 9.18575 21.9299 9.21082H21.9281Z" />
</svg>
