<svg width="25" height="24" viewBox="0 0 25 24" fill="none" xmlns="http://www.w3.org/2000/svg">
<path d="M22.7262 10.1344L6.23275 4.0153H6.22057C5.98828 3.93526 5.7382 3.92202 5.49877 3.97709C5.25934 4.03216 5.04017 4.15333 4.8662 4.32681C4.69223 4.50029 4.57044 4.71912 4.5147 4.9584C4.45896 5.19768 4.47149 5.4478 4.55088 5.6803C4.55088 5.6803 4.55088 5.68874 4.55088 5.69249L10.6746 22.1859C10.7619 22.4436 10.9284 22.6671 11.1503 22.8245C11.3722 22.9819 11.6382 23.0652 11.9103 23.0625H11.9346C12.2122 23.0606 12.4817 22.9696 12.7035 22.8028C12.9254 22.636 13.0877 22.4023 13.1665 22.1362V22.1222L15.2421 14.7066L22.6653 12.6309H22.6793C22.9431 12.5495 23.1745 12.3871 23.3406 12.1666C23.5067 11.9461 23.5991 11.6789 23.6046 11.4029C23.6101 11.127 23.5284 10.8563 23.3712 10.6294C23.214 10.4025 22.9893 10.2309 22.729 10.1391L22.7262 10.1344ZM22.3512 11.55L14.6393 13.7062C14.5463 13.7323 14.4615 13.7819 14.3932 13.8502C14.3249 13.9185 14.2754 14.0032 14.2493 14.0962L12.0931 21.8081C12.0827 21.846 12.0598 21.8792 12.0282 21.9023C11.9965 21.9255 11.9579 21.9372 11.9187 21.9356C11.8786 21.9391 11.8385 21.9284 11.8056 21.9052C11.7726 21.8821 11.7489 21.848 11.7387 21.8091C11.7391 21.8053 11.7391 21.8015 11.7387 21.7978L5.61307 5.30811C5.60271 5.27538 5.60155 5.24044 5.60969 5.20709C5.61784 5.17374 5.63498 5.14327 5.65925 5.11899C5.68353 5.09472 5.714 5.07757 5.74735 5.06943C5.7807 5.06128 5.81565 5.06245 5.84838 5.0728L22.3399 11.1909H22.3512C22.3884 11.2035 22.4207 11.2274 22.4435 11.2592C22.4664 11.2911 22.4787 11.3293 22.4787 11.3686C22.4787 11.4078 22.4664 11.4461 22.4435 11.4779C22.4207 11.5098 22.3884 11.5337 22.3512 11.5462V11.55Z" fill="#343A3F"/>
</svg>
