<svg width="15" height="18" viewBox="0 0 15 18" fill="current" xmlns="http://www.w3.org/2000/svg">
<path d="M7.33334 4.15625C6.74618 4.15625 6.1722 4.33036 5.68399 4.65657C5.19579 4.98278 4.81527 5.44644 4.59058 5.98891C4.36588 6.53138 4.30709 7.12829 4.42164 7.70417C4.53619 8.28006 4.81893 8.80904 5.23412 9.22422C5.64931 9.63941 6.17829 9.92216 6.75417 10.0367C7.33005 10.1513 7.92697 10.0925 8.46944 9.86777C9.0119 9.64307 9.47556 9.26256 9.80177 8.77435C10.128 8.28614 10.3021 7.71216 10.3021 7.125C10.3021 6.33764 9.98932 5.58253 9.43257 5.02578C8.87582 4.46903 8.12071 4.15625 7.33334 4.15625ZM7.33334 9.15625C6.9316 9.15625 6.53888 9.03712 6.20484 8.81392C5.8708 8.59073 5.61045 8.27349 5.45671 7.90233C5.30297 7.53116 5.26275 7.12275 5.34112 6.72872C5.4195 6.3347 5.61296 5.97276 5.89703 5.68869C6.18111 5.40461 6.54304 5.21116 6.93707 5.13278C7.33109 5.0544 7.73951 5.09463 8.11067 5.24837C8.48183 5.40211 8.79907 5.66246 9.02227 5.9965C9.24546 6.33054 9.36459 6.72326 9.36459 7.125C9.36459 7.66372 9.15059 8.18038 8.76965 8.56131C8.38872 8.94224 7.87206 9.15625 7.33334 9.15625ZM7.33334 0.40625C5.55205 0.408318 3.84432 1.11685 2.58475 2.37641C1.32519 3.63597 0.616661 5.34371 0.614594 7.125C0.614594 9.53984 1.73491 12.1047 3.85444 14.5422C4.81109 15.6478 5.88776 16.6435 7.06459 17.5109C7.14337 17.5661 7.23719 17.5956 7.33334 17.5956C7.42949 17.5956 7.52332 17.5661 7.60209 17.5109C8.77893 16.6435 9.8556 15.6478 10.8123 14.5422C12.9318 12.1047 14.0521 9.54219 14.0521 7.125C14.05 5.34371 13.3415 3.63597 12.0819 2.37641C10.8224 1.11685 9.11463 0.408318 7.33334 0.40625ZM7.33334 16.5398C6.16147 15.6352 1.55209 11.7828 1.55209 7.125C1.55209 5.59172 2.16119 4.12123 3.24538 3.03704C4.32958 1.95284 5.80006 1.34375 7.33334 1.34375C8.86663 1.34375 10.3371 1.95284 11.4213 3.03704C12.5055 4.12123 13.1146 5.59172 13.1146 7.125C13.1146 11.7828 8.50522 15.6352 7.33334 16.5398Z" />
</svg>
