<svg width="24" height="14" viewBox="0 0 24 14" fill="current" xmlns="http://www.w3.org/2000/svg">
<path d="M12 10.5625C12.7046 10.5625 13.3934 10.3536 13.9792 9.96211C14.5651 9.57066 15.0217 9.01427 15.2913 8.36331C15.561 7.71235 15.6315 6.99605 15.494 6.30499C15.3566 5.61393 15.0173 4.97916 14.5191 4.48093C14.0208 3.98271 13.3861 3.64341 12.695 3.50595C12.004 3.36849 11.2877 3.43904 10.6367 3.70868C9.98573 3.97832 9.42934 4.43493 9.03789 5.02078C8.64644 5.60663 8.4375 6.2954 8.4375 7C8.4375 7.94483 8.81283 8.85097 9.48093 9.51907C10.149 10.1872 11.0552 10.5625 12 10.5625ZM12 4.5625C12.4821 4.5625 12.9534 4.70546 13.3542 4.97329C13.755 5.24113 14.0675 5.62181 14.252 6.06721C14.4364 6.5126 14.4847 7.0027 14.3907 7.47553C14.2966 7.94836 14.0645 8.38268 13.7236 8.72357C13.3827 9.06446 12.9484 9.29661 12.4755 9.39066C12.0027 9.48472 11.5126 9.43645 11.0672 9.25196C10.6218 9.06747 10.2411 8.75505 9.97329 8.3542C9.70546 7.95336 9.5625 7.48209 9.5625 7C9.5625 6.35353 9.81931 5.73355 10.2764 5.27643C10.7335 4.81931 11.3535 4.5625 12 4.5625ZM22.5 0.4375H1.5C1.35082 0.4375 1.20774 0.496763 1.10225 0.602252C0.996763 0.707742 0.9375 0.850816 0.9375 1V13C0.9375 13.1492 0.996763 13.2923 1.10225 13.3977C1.20774 13.5032 1.35082 13.5625 1.5 13.5625H22.5C22.6492 13.5625 22.7923 13.5032 22.8977 13.3977C23.0032 13.2923 23.0625 13.1492 23.0625 13V1C23.0625 0.850816 23.0032 0.707742 22.8977 0.602252C22.7923 0.496763 22.6492 0.4375 22.5 0.4375ZM2.0625 5.20187C2.93591 4.96952 3.73245 4.51059 4.37152 3.87152C5.01059 3.23245 5.46952 2.43591 5.70187 1.5625H18.2981C18.5305 2.43591 18.9894 3.23245 19.6285 3.87152C20.2676 4.51059 21.0641 4.96952 21.9375 5.20187V8.79812C21.0641 9.03048 20.2676 9.48941 19.6285 10.1285C18.9894 10.7676 18.5305 11.5641 18.2981 12.4375H5.70187C5.46952 11.5641 5.01059 10.7676 4.37152 10.1285C3.73245 9.48941 2.93591 9.03048 2.0625 8.79812V5.20187ZM21.9375 4.02719C21.3678 3.82816 20.8503 3.50318 20.4236 3.07645C19.9968 2.64972 19.6718 2.13222 19.4728 1.5625H21.9375V4.02719ZM4.52719 1.5625C4.32816 2.13222 4.00318 2.64972 3.57645 3.07645C3.14972 3.50318 2.63222 3.82816 2.0625 4.02719V1.5625H4.52719ZM2.0625 9.97281C2.63222 10.1718 3.14972 10.4968 3.57645 10.9236C4.00318 11.3503 4.32816 11.8678 4.52719 12.4375H2.0625V9.97281ZM19.4728 12.4375C19.6718 11.8678 19.9968 11.3503 20.4236 10.9236C20.8503 10.4968 21.3678 10.1718 21.9375 9.97281V12.4375H19.4728Z" />
</svg>
