<svg viewBox="0 0 50 50" fill="none" xmlns="http://www.w3.org/2000/svg">
<g clip-path="url(#clip0_110_489)">
<path d="M25 0C18.9592 0 14.0625 5.50879 14.0625 12.3047C14.0625 17.7988 21.2109 27.8125 23.9497 31.4473C24.5043 32.1836 25.4965 32.1836 26.0503 31.4473C28.7891 27.8125 35.9375 17.7988 35.9375 12.3047C35.9375 5.50879 31.0408 0 25 0ZM1.74653 21.0889C1.23106 21.3208 0.789176 21.7212 0.477873 22.2383C0.16657 22.7555 0.000123456 23.3657 0 23.9902L0 48.4355C0 49.541 0.992188 50.2969 1.90451 49.8867L13.8889 43.75V20.9883C13.1215 19.4277 12.4939 17.9082 12.0443 16.4551L1.74653 21.0889ZM25 35.124C23.7786 35.124 22.6233 34.5205 21.8307 33.4678C20.1241 31.2021 18.309 28.6221 16.6667 25.9756V43.749L33.3333 49.999V25.9766C31.691 28.6221 29.8767 31.2031 28.1693 33.4688C27.3767 34.5205 26.2214 35.124 25 35.124ZM48.0955 15.7383L36.1111 21.875V50L48.2535 44.5361C48.769 44.3043 49.211 43.904 49.5223 43.3868C49.8336 42.8696 50 42.2594 50 41.6348V17.1895C50 16.084 49.0078 15.3281 48.0955 15.7383Z" fill="white"/>
</g>
<defs>
<clipPath id="clip0_110_489">
<rect width="50" height="50" fill="white"/>
</clipPath>
</defs>
</svg>
