<svg width="21" height="20" viewBox="0 0 21 20" fill="none" xmlns="http://www.w3.org/2000/svg">
<path d="M18.0383 4.00547C17.9821 3.96163 17.9167 3.93117 17.8469 3.91641C17.7772 3.90166 17.7051 3.90299 17.6359 3.92031L12.8047 5.12813L7.96094 2.70625C7.86078 2.65629 7.74605 2.64382 7.6375 2.6711L2.6375 3.9211C2.536 3.94619 2.44581 4.00449 2.38126 4.08674C2.31671 4.16898 2.28151 4.27045 2.28125 4.375V15.625C2.28125 15.6963 2.29749 15.7666 2.32876 15.8307C2.36002 15.8947 2.40547 15.9508 2.46167 15.9946C2.51786 16.0385 2.58331 16.0689 2.65304 16.0836C2.72276 16.0984 2.79493 16.097 2.86406 16.0797L7.69531 14.8719L12.5391 17.2938C12.6392 17.3437 12.7539 17.3562 12.8625 17.3289L17.8625 16.0789C17.964 16.0538 18.0542 15.9955 18.1187 15.9133C18.1833 15.831 18.2185 15.7296 18.2188 15.625V4.375C18.2187 4.30374 18.2025 4.23342 18.1712 4.16939C18.1399 4.10536 18.0945 4.0493 18.0383 4.00547ZM8.21875 3.8836L12.2812 5.91485V16.1164L8.21875 14.0852V3.8836ZM3.21875 4.74297L7.28125 3.72735V14.0094L3.21875 15.025V4.74297ZM17.2812 15.2594L13.2188 16.275V5.99063L17.2812 4.975V15.2594Z" fill="#4D5358"/>
</svg>
