<svg width="20" height="20" viewBox="0 0 20 20" fill="current" xmlns="http://www.w3.org/2000/svg">
<path d="M10 0.4375C8.10872 0.4375 6.25991 0.998331 4.68736 2.04907C3.11482 3.09981 1.88917 4.59327 1.16541 6.34059C0.441643 8.08791 0.252274 10.0106 0.621245 11.8656C0.990216 13.7205 1.90096 15.4244 3.2383 16.7617C4.57564 18.099 6.27951 19.0098 8.13445 19.3788C9.9894 19.7477 11.9121 19.5584 13.6594 18.8346C15.4067 18.1108 16.9002 16.8852 17.9509 15.3126C19.0017 13.7401 19.5625 11.8913 19.5625 10C19.5595 7.46478 18.5511 5.03425 16.7584 3.24158C14.9658 1.44891 12.5352 0.440477 10 0.4375ZM4.6975 16.5625C5.24762 15.6477 6.02503 14.8909 6.95417 14.3654C7.88331 13.84 8.93258 13.5638 10 13.5638C11.0674 13.5638 12.1167 13.84 13.0458 14.3654C13.975 14.8909 14.7524 15.6477 15.3025 16.5625C13.8028 17.7786 11.9308 18.4422 10 18.4422C8.06925 18.4422 6.19716 17.7786 4.6975 16.5625ZM6.8125 9.25C6.8125 8.61957 6.99945 8.0033 7.3497 7.47912C7.69994 6.95494 8.19776 6.54639 8.7802 6.30513C9.36264 6.06388 10.0035 6.00076 10.6219 6.12375C11.2402 6.24674 11.8081 6.55032 12.2539 6.9961C12.6997 7.44188 13.0033 8.00984 13.1263 8.62815C13.2492 9.24646 13.1861 9.88736 12.9449 10.4698C12.7036 11.0522 12.2951 11.5501 11.7709 11.9003C11.2467 12.2506 10.6304 12.4375 10 12.4375C9.15463 12.4375 8.34387 12.1017 7.7461 11.5039C7.14833 10.9061 6.8125 10.0954 6.8125 9.25ZM16.1416 15.7787C15.2578 14.4045 13.9367 13.3681 12.3916 12.8369C13.162 12.3237 13.7469 11.5762 14.0597 10.705C14.3726 9.83369 14.3967 8.88489 14.1287 7.99883C13.8606 7.11276 13.3145 6.33648 12.5712 5.78476C11.8278 5.23303 10.9267 4.93515 10.0009 4.93515C9.07522 4.93515 8.17406 5.23303 7.43072 5.78476C6.68737 6.33648 6.14129 7.11276 5.87322 7.99883C5.60514 8.88489 5.62931 9.83369 5.94214 10.705C6.25496 11.5762 6.83985 12.3237 7.61032 12.8369C6.06519 13.3681 4.74413 14.4045 3.86032 15.7787C2.73047 14.5798 1.97634 13.0762 1.69098 11.4537C1.40562 9.83113 1.60151 8.16053 2.25448 6.648C2.90745 5.13547 3.98893 3.84718 5.3655 2.94209C6.74206 2.037 8.35348 1.5547 10.0009 1.5547C11.6484 1.5547 13.2598 2.037 14.6364 2.94209C16.013 3.84718 17.0944 5.13547 17.7474 6.648C18.4004 8.16053 18.5963 9.83113 18.3109 11.4537C18.0255 13.0762 17.2714 14.5798 16.1416 15.7787Z" />
</svg>
