<svg width="22" height="22" viewBox="0 0 22 22" fill="none" xmlns="http://www.w3.org/2000/svg">
<path d="M20.0394 8.76875C19.6737 8.38719 19.2959 7.99344 19.1441 7.62687C19.0034 7.28656 18.9959 6.78312 18.9875 6.25062C18.9744 5.37125 18.9594 4.37563 18.2919 3.70813C17.6244 3.04063 16.625 3.02562 15.7494 3.0125C15.2169 3.00406 14.7181 2.99656 14.3731 2.85594C14.0066 2.70406 13.6128 2.32625 13.2313 1.96062C12.6088 1.36437 11.9038 0.6875 11 0.6875C10.0962 0.6875 9.39125 1.36437 8.76875 1.96062C8.38719 2.32625 7.99344 2.70406 7.62687 2.85594C7.28656 2.99656 6.78312 3.00406 6.25062 3.0125C5.37125 3.02562 4.37563 3.04063 3.70813 3.70813C3.04063 4.37563 3.02562 5.375 3.0125 6.25062C3.00406 6.78312 2.99656 7.28187 2.85594 7.62687C2.70406 7.99344 2.32625 8.38719 1.96062 8.76875C1.36437 9.39125 0.6875 10.0962 0.6875 11C0.6875 11.9038 1.36437 12.6088 1.96062 13.2313C2.32625 13.6128 2.70406 14.0066 2.85594 14.3731C2.99656 14.7134 3.00406 15.2169 3.0125 15.7494C3.02562 16.6288 3.04063 17.6244 3.70813 18.2919C4.37563 18.9594 5.375 18.9744 6.25062 18.9875C6.78312 18.9959 7.28187 19.0034 7.62687 19.1441C7.99344 19.2959 8.38719 19.6737 8.76875 20.0394C9.39125 20.6356 10.0962 21.3125 11 21.3125C11.9038 21.3125 12.6088 20.6356 13.2313 20.0394C13.6128 19.6737 14.0066 19.2959 14.3731 19.1441C14.7134 19.0034 15.2169 18.9959 15.7494 18.9875C16.6288 18.9744 17.6244 18.9594 18.2919 18.2919C18.9594 17.6244 18.9744 16.6288 18.9875 15.7494C18.9959 15.2169 19.0034 14.7181 19.1441 14.3731C19.2959 14.0066 19.6737 13.6128 20.0394 13.2313C20.6356 12.6088 21.3125 11.9038 21.3125 11C21.3125 10.0962 20.6356 9.39125 20.0394 8.76875ZM19.2275 12.4531C18.7897 12.9087 18.3369 13.3812 18.1025 13.9437C17.8794 14.4819 17.87 15.1175 17.8606 15.7325C17.8503 16.43 17.8391 17.1519 17.495 17.4969C17.1509 17.8419 16.4281 17.8522 15.7306 17.8625C15.1156 17.8719 14.48 17.8813 13.9419 18.1044C13.3794 18.3369 12.9106 18.7897 12.4503 19.2294C11.9581 19.6981 11.4491 20.1894 10.9981 20.1894C10.5472 20.1894 10.0381 19.7009 9.545 19.2294C9.08938 18.7916 8.61688 18.3387 8.05438 18.1044C7.51625 17.8813 6.88062 17.8719 6.26562 17.8625C5.56812 17.8522 4.84625 17.8409 4.50125 17.4969C4.15625 17.1528 4.14594 16.43 4.13562 15.7325C4.12625 15.1175 4.11688 14.4819 3.89375 13.9437C3.66125 13.3812 3.20844 12.9125 2.76875 12.4522C2.30094 11.96 1.8125 11.4509 1.8125 11C1.8125 10.5491 2.30094 10.04 2.7725 9.54688C3.21031 9.09125 3.66313 8.61875 3.8975 8.05625C4.12063 7.51813 4.13 6.8825 4.13937 6.2675C4.14969 5.57 4.16094 4.84812 4.505 4.50313C4.84906 4.15813 5.57188 4.14781 6.26937 4.1375C6.88438 4.12812 7.52 4.11875 8.05813 3.89563C8.62063 3.66313 9.08937 3.21031 9.54969 2.77063C10.04 2.30094 10.5491 1.8125 11 1.8125C11.4509 1.8125 11.96 2.30094 12.4531 2.7725C12.9087 3.21031 13.3812 3.66313 13.9437 3.8975C14.4819 4.12063 15.1175 4.13 15.7325 4.13937C16.43 4.14969 17.1519 4.16094 17.4969 4.505C17.8419 4.84906 17.8522 5.57188 17.8625 6.26937C17.8719 6.88438 17.8813 7.52 18.1044 8.05813C18.3369 8.62063 18.7897 9.08937 19.2294 9.54969C19.6981 10.0419 20.1894 10.5509 20.1894 11.0019C20.1894 11.4528 19.6991 11.96 19.2275 12.4531ZM15.1475 8.3525C15.2528 8.45797 15.312 8.60094 15.312 8.75C15.312 8.89906 15.2528 9.04203 15.1475 9.1475L9.8975 14.3975C9.79203 14.5028 9.64906 14.562 9.5 14.562C9.35094 14.562 9.20797 14.5028 9.1025 14.3975L6.8525 12.1475C6.75314 12.0409 6.69905 11.8998 6.70162 11.7541C6.70419 11.6084 6.76322 11.4693 6.86628 11.3663C6.96934 11.2632 7.10838 11.2042 7.25411 11.2016C7.39983 11.199 7.54087 11.2531 7.6475 11.3525L9.5 13.2041L14.3525 8.3525C14.458 8.24716 14.6009 8.18799 14.75 8.18799C14.8991 8.18799 15.042 8.24716 15.1475 8.3525Z" fill="current"/>
</svg>
