<svg width="20" height="18" viewBox="0 0 20 18" fill="current" xmlns="http://www.w3.org/2000/svg">
<path d="M0.458125 5.85094C0.444605 5.89948 0.437668 5.94961 0.4375 6V7.5C0.437259 8.06901 0.573318 8.6298 0.834289 9.13543C1.09526 9.64106 1.47355 10.0768 1.9375 10.4062V17.25C1.9375 17.3992 1.99676 17.5423 2.10225 17.6477C2.20774 17.7532 2.35082 17.8125 2.5 17.8125H17.5C17.6492 17.8125 17.7923 17.7532 17.8977 17.6477C18.0032 17.5423 18.0625 17.3992 18.0625 17.25V10.4062C18.5264 10.0768 18.9047 9.64106 19.1657 9.13543C19.4267 8.6298 19.5627 8.06901 19.5625 7.5V6C19.5626 5.94799 19.5553 5.89623 19.5409 5.84625L18.1966 1.13906C18.1173 0.865915 17.9519 0.625693 17.725 0.454212C17.4981 0.282731 17.2219 0.189177 16.9375 0.1875H3.0625C2.7781 0.189177 2.50186 0.282731 2.27496 0.454212C2.04807 0.625693 1.88267 0.865915 1.80344 1.13906L0.458125 5.85094ZM2.88531 1.44469C2.89703 1.40672 2.92051 1.37346 2.95235 1.3497C2.9842 1.32595 3.02277 1.31292 3.0625 1.3125H16.9375C16.9782 1.31256 17.0178 1.32585 17.0502 1.35037C17.0827 1.3749 17.1063 1.40932 17.1175 1.44844L18.2547 5.4375H1.75L2.88531 1.44469ZM7.5625 6.5625H12.4375V7.5C12.4375 8.14647 12.1807 8.76645 11.7236 9.22357C11.2665 9.68069 10.6465 9.9375 10 9.9375C9.35353 9.9375 8.73355 9.68069 8.27643 9.22357C7.81931 8.76645 7.5625 8.14647 7.5625 7.5V6.5625ZM1.5625 6.5625H6.4375V7.5C6.43798 7.92066 6.32958 8.33428 6.12285 8.70063C5.91613 9.06699 5.61811 9.37361 5.25778 9.59068C4.89746 9.80774 4.48709 9.92786 4.06659 9.93935C3.64609 9.95084 3.22977 9.85331 2.85813 9.65625C2.81196 9.61686 2.75972 9.5852 2.70344 9.5625C2.35438 9.34324 2.06663 9.03903 1.8671 8.67833C1.66756 8.31763 1.56276 7.91221 1.5625 7.5V6.5625ZM16.9375 16.6875H3.0625V10.9369C3.7951 11.1362 4.57222 11.0963 5.28052 10.8229C5.98883 10.5495 6.59127 10.057 7 9.41719C7.32148 9.92145 7.76489 10.3365 8.28924 10.6241C8.8136 10.9117 9.40197 11.0624 10 11.0624C10.598 11.0624 11.1864 10.9117 11.7108 10.6241C12.2351 10.3365 12.6785 9.92145 13 9.41719C13.4087 10.057 14.0112 10.5495 14.7195 10.8229C15.4278 11.0963 16.2049 11.1362 16.9375 10.9369V16.6875ZM17.2966 9.5625C17.2403 9.5852 17.188 9.61686 17.1419 9.65625C16.7702 9.85331 16.3539 9.95084 15.9334 9.93935C15.5129 9.92786 15.1025 9.80774 14.7422 9.59068C14.3819 9.37361 14.0839 9.06699 13.8771 8.70063C13.6704 8.33428 13.562 7.92066 13.5625 7.5V6.5625H18.4375V7.5C18.4372 7.91221 18.3324 8.31763 18.1329 8.67833C17.9334 9.03903 17.6456 9.34324 17.2966 9.5625Z" />
</svg>
