<svg width="21" height="18" viewBox="0 0 21 18" fill="none" xmlns="http://www.w3.org/2000/svg">
<path d="M15 7.3125H19.5C19.8481 7.3125 20.1819 7.17422 20.4281 6.92808C20.6742 6.68194 20.8125 6.3481 20.8125 6V1.5C20.8125 1.1519 20.6742 0.818064 20.4281 0.571922C20.1819 0.325781 19.8481 0.1875 19.5 0.1875H15C14.6519 0.1875 14.3181 0.325781 14.0719 0.571922C13.8258 0.818064 13.6875 1.1519 13.6875 1.5V3.1875H12C11.453 3.1875 10.9284 3.4048 10.5416 3.79159C10.1548 4.17839 9.9375 4.70299 9.9375 5.25V8.4375H6.5625V7.5C6.5625 7.1519 6.42422 6.81806 6.17808 6.57192C5.93194 6.32578 5.5981 6.1875 5.25 6.1875H2.25C1.9019 6.1875 1.56806 6.32578 1.32192 6.57192C1.07578 6.81806 0.9375 7.1519 0.9375 7.5V10.5C0.9375 10.8481 1.07578 11.1819 1.32192 11.4281C1.56806 11.6742 1.9019 11.8125 2.25 11.8125H5.25C5.5981 11.8125 5.93194 11.6742 6.17808 11.4281C6.42422 11.1819 6.5625 10.8481 6.5625 10.5V9.5625H9.9375V12.75C9.9375 13.297 10.1548 13.8216 10.5416 14.2084C10.9284 14.5952 11.453 14.8125 12 14.8125H13.6875V16.5C13.6875 16.8481 13.8258 17.1819 14.0719 17.4281C14.3181 17.6742 14.6519 17.8125 15 17.8125H19.5C19.8481 17.8125 20.1819 17.6742 20.4281 17.4281C20.6742 17.1819 20.8125 16.8481 20.8125 16.5V12C20.8125 11.6519 20.6742 11.3181 20.4281 11.0719C20.1819 10.8258 19.8481 10.6875 19.5 10.6875H15C14.6519 10.6875 14.3181 10.8258 14.0719 11.0719C13.8258 11.3181 13.6875 11.6519 13.6875 12V13.6875H12C11.7514 13.6875 11.5129 13.5887 11.3371 13.4129C11.1613 13.2371 11.0625 12.9986 11.0625 12.75V5.25C11.0625 5.00136 11.1613 4.7629 11.3371 4.58709C11.5129 4.41127 11.7514 4.3125 12 4.3125H13.6875V6C13.6875 6.3481 13.8258 6.68194 14.0719 6.92808C14.3181 7.17422 14.6519 7.3125 15 7.3125ZM5.4375 10.5C5.4375 10.5497 5.41775 10.5974 5.38258 10.6326C5.34742 10.6677 5.29973 10.6875 5.25 10.6875H2.25C2.20027 10.6875 2.15258 10.6677 2.11742 10.6326C2.08225 10.5974 2.0625 10.5497 2.0625 10.5V7.5C2.0625 7.45027 2.08225 7.40258 2.11742 7.36742C2.15258 7.33225 2.20027 7.3125 2.25 7.3125H5.25C5.29973 7.3125 5.34742 7.33225 5.38258 7.36742C5.41775 7.40258 5.4375 7.45027 5.4375 7.5V10.5ZM14.8125 12C14.8125 11.9503 14.8323 11.9026 14.8674 11.8674C14.9026 11.8323 14.9503 11.8125 15 11.8125H19.5C19.5497 11.8125 19.5974 11.8323 19.6326 11.8674C19.6677 11.9026 19.6875 11.9503 19.6875 12V16.5C19.6875 16.5497 19.6677 16.5974 19.6326 16.6326C19.5974 16.6677 19.5497 16.6875 19.5 16.6875H15C14.9503 16.6875 14.9026 16.6677 14.8674 16.6326C14.8323 16.5974 14.8125 16.5497 14.8125 16.5V12ZM14.8125 1.5C14.8125 1.45027 14.8323 1.40258 14.8674 1.36742C14.9026 1.33225 14.9503 1.3125 15 1.3125H19.5C19.5497 1.3125 19.5974 1.33225 19.6326 1.36742C19.6677 1.40258 19.6875 1.45027 19.6875 1.5V6C19.6875 6.04973 19.6677 6.09742 19.6326 6.13258C19.5974 6.16775 19.5497 6.1875 19.5 6.1875H15C14.9503 6.1875 14.9026 6.16775 14.8674 6.13258C14.8323 6.09742 14.8125 6.04973 14.8125 6V1.5Z" fill="current"/>
</svg>
