<svg width="20" height="12" viewBox="0 0 20 12" fill="current" xmlns="http://www.w3.org/2000/svg">
<path d="M11.3646 2.25058C11.3646 2.12626 11.414 2.00704 11.5019 1.91913C11.5898 1.83122 11.709 1.78183 11.8333 1.78183H18.7083C18.8327 1.78183 18.9519 1.83122 19.0398 1.91913C19.1277 2.00704 19.1771 2.12626 19.1771 2.25058C19.1771 2.3749 19.1277 2.49413 19.0398 2.58204C18.9519 2.66995 18.8327 2.71933 18.7083 2.71933H11.8333C11.709 2.71933 11.5898 2.66995 11.5019 2.58204C11.414 2.49413 11.3646 2.3749 11.3646 2.25058ZM18.7083 5.53183H11.8333C11.709 5.53183 11.5898 5.58122 11.5019 5.66913C11.414 5.75704 11.3646 5.87626 11.3646 6.00058C11.3646 6.1249 11.414 6.24413 11.5019 6.33204C11.5898 6.41995 11.709 6.46933 11.8333 6.46933H18.7083C18.8327 6.46933 18.9519 6.41995 19.0398 6.33204C19.1277 6.24413 19.1771 6.1249 19.1771 6.00058C19.1771 5.87626 19.1277 5.75704 19.0398 5.66913C18.9519 5.58122 18.8327 5.53183 18.7083 5.53183ZM18.7083 9.28183H13.7083C13.584 9.28183 13.4648 9.33122 13.3769 9.41913C13.289 9.50704 13.2396 9.62626 13.2396 9.75058C13.2396 9.8749 13.289 9.99413 13.3769 10.082C13.4648 10.1699 13.584 10.2193 13.7083 10.2193H18.7083C18.8327 10.2193 18.9519 10.1699 19.0398 10.082C19.1277 9.99413 19.1771 9.8749 19.1771 9.75058C19.1771 9.62626 19.1277 9.50704 19.0398 9.41913C18.9519 9.33122 18.8327 9.28183 18.7083 9.28183ZM11.0372 10.8834C11.0526 10.943 11.0561 11.0051 11.0475 11.066C11.0389 11.127 11.0184 11.1857 10.9872 11.2387C10.9559 11.2917 10.9145 11.3381 10.8653 11.3751C10.8161 11.4121 10.7601 11.4391 10.7005 11.4545C10.6409 11.4699 10.5789 11.4734 10.5179 11.4648C10.4569 11.4562 10.3983 11.4357 10.3452 11.4044C10.2922 11.3731 10.2459 11.3317 10.2088 11.2826C10.1718 11.2334 10.1448 11.1774 10.1294 11.1178C9.6224 9.14824 7.71068 7.71933 5.58334 7.71933C3.45599 7.71933 1.54427 9.14824 1.03724 11.117C1.02185 11.1766 0.994875 11.2326 0.957846 11.2818C0.920818 11.331 0.874465 11.3724 0.821434 11.4036C0.768403 11.4349 0.709732 11.4554 0.648773 11.464C0.587813 11.4726 0.525758 11.4691 0.46615 11.4537C0.406542 11.4383 0.350549 11.4113 0.301368 11.3743C0.252187 11.3373 0.21078 11.2909 0.179513 11.2379C0.148246 11.1849 0.12773 11.1262 0.119137 11.0652C0.110544 11.0043 0.114042 10.9422 0.129431 10.8826C0.577869 9.14199 1.92631 7.75215 3.61927 7.13262C2.97083 6.70943 2.4764 6.08813 2.20962 5.36122C1.94284 4.63431 1.91798 3.84068 2.13873 3.0985C2.35948 2.35631 2.81404 1.70528 3.43473 1.24233C4.05541 0.779389 4.80902 0.529297 5.58334 0.529297C6.35766 0.529297 7.11126 0.779389 7.73195 1.24233C8.35263 1.70528 8.8072 2.35631 9.02795 3.0985C9.2487 3.84068 9.22383 4.63431 8.95705 5.36122C8.69027 6.08813 8.19585 6.70943 7.5474 7.13262C9.23881 7.75293 10.5896 9.14277 11.0372 10.8834ZM5.58334 6.78183C6.10869 6.78183 6.62225 6.62605 7.05907 6.33418C7.49589 6.0423 7.83635 5.62745 8.03739 5.14209C8.23844 4.65672 8.29104 4.12264 8.18855 3.60737C8.08606 3.09211 7.83307 2.61881 7.46159 2.24733C7.09011 1.87585 6.61681 1.62286 6.10155 1.52037C5.58628 1.41788 5.0522 1.47048 4.56683 1.67153C4.08147 1.87257 3.66662 2.21303 3.37475 2.64985C3.08287 3.08667 2.92709 3.60023 2.92709 4.12558C2.92709 4.83007 3.20694 5.50569 3.70509 6.00384C4.20323 6.50198 4.87886 6.78183 5.58334 6.78183Z" />
</svg>
