<svg width="18" height="18" viewBox="0 0 18 18" fill="none" xmlns="http://www.w3.org/2000/svg">
<path d="M16.1719 6.75C16.172 6.71081 16.1668 6.67178 16.1564 6.63398L15.1481 3.1043C15.0887 2.89932 14.9645 2.71907 14.7942 2.59045C14.6239 2.46183 14.4165 2.39173 14.2031 2.39062H3.79688C3.58357 2.39188 3.37639 2.46205 3.20622 2.59066C3.03605 2.71927 2.912 2.89944 2.85258 3.1043L1.8443 6.63398C1.8337 6.67175 1.82826 6.71078 1.82813 6.75V7.875C1.82794 8.30176 1.92999 8.72235 2.12572 9.10157C2.32145 9.48079 2.60516 9.80762 2.95313 10.0547V14.625C2.95313 14.8861 3.05684 15.1365 3.24144 15.3211C3.42605 15.5057 3.67643 15.6094 3.9375 15.6094H14.0625C14.3236 15.6094 14.574 15.5057 14.7586 15.3211C14.9432 15.1365 15.0469 14.8861 15.0469 14.625V10.0547C15.3948 9.80762 15.6786 9.48079 15.8743 9.10157C16.07 8.72235 16.1721 8.30176 16.1719 7.875V6.75ZM3.66398 3.33633C3.67227 3.30733 3.68967 3.28177 3.7136 3.26341C3.73752 3.24505 3.76672 3.23487 3.79688 3.23438H14.2031C14.2336 3.23442 14.2633 3.24439 14.2877 3.26278C14.312 3.28117 14.3297 3.30699 14.3381 3.33633L15.191 6.32812H2.8125L3.66398 3.33633ZM7.17187 7.17188H10.8281V7.875C10.8281 8.35985 10.6355 8.82484 10.2927 9.16768C9.94984 9.51052 9.48485 9.70312 9 9.70312C8.51515 9.70312 8.05016 9.51052 7.70732 9.16768C7.36448 8.82484 7.17187 8.35985 7.17187 7.875V7.17188ZM2.67188 7.17188H6.32812V7.875C6.32812 8.35985 6.13552 8.82484 5.79268 9.16768C5.44984 9.51052 4.98485 9.70312 4.5 9.70312C4.01515 9.70312 3.55016 9.51052 3.20732 9.16768C2.86448 8.82484 2.67188 8.35985 2.67188 7.875V7.17188ZM14.2031 14.625C14.2031 14.6623 14.1883 14.6981 14.1619 14.7244C14.1356 14.7508 14.0998 14.7656 14.0625 14.7656H3.9375C3.9002 14.7656 3.86444 14.7508 3.83806 14.7244C3.81169 14.6981 3.79688 14.6623 3.79688 14.625V10.4527C4.34632 10.6022 4.92916 10.5722 5.46039 10.3672C5.99162 10.1621 6.44345 9.79276 6.75 9.31289C6.99111 9.69109 7.32367 10.0024 7.71693 10.2181C8.1102 10.4337 8.55148 10.5468 9 10.5468C9.44852 10.5468 9.8898 10.4337 10.2831 10.2181C10.6763 10.0024 11.0089 9.69109 11.25 9.31289C11.5565 9.79276 12.0084 10.1621 12.5396 10.3672C13.0708 10.5722 13.6537 10.6022 14.2031 10.4527V14.625ZM13.5 9.70312C13.0151 9.70312 12.5502 9.51052 12.2073 9.16768C11.8645 8.82484 11.6719 8.35985 11.6719 7.875V7.17188H15.3281V7.875C15.3281 8.35985 15.1355 8.82484 14.7927 9.16768C14.4498 9.51052 13.9848 9.70312 13.5 9.70312Z" fill="#343330"/>
</svg>
