<svg width="78" height="78" viewBox="0 0 78 78" fill="none" xmlns="http://www.w3.org/2000/svg">
<circle cx="39" cy="39" r="39" fill="url(#paint0_linear_439_547)"/>
<circle cx="39" cy="39" r="38.8" stroke="#808B9B" stroke-opacity="0.07" stroke-width="0.4"/>
<path d="M47.7841 35.1706C47.7841 32.4539 45.0675 32.0011 42.4155 31.6777L40.0223 35.6233C39.7635 36.0761 38.9874 36.0761 38.7286 35.6233L36.3354 31.6777C33.6188 32.0011 30.9668 32.4539 30.9668 35.1706V39.4396H47.7841V35.1706Z" fill="#808B9B"/>
<path d="M40.2159 32.3895L39.7631 31.6133H38.987L38.5342 32.3895L39.375 33.7478L40.2159 32.3895Z" fill="#808B9B"/>
<path d="M39.3755 27.538C41.704 27.538 43.6445 25.5976 43.6445 23.269C43.6445 20.9405 41.704 19 39.3755 19C36.9822 19 35.1064 20.9405 35.1064 23.269C35.1064 25.5976 36.9822 27.538 39.3755 27.538Z" fill="#808B9B"/>
<path d="M47.0718 29.0907C48.9475 29.0907 50.4999 27.5383 50.4999 25.6625C50.4999 23.7867 48.9475 22.2344 47.0718 22.2344C46.3603 22.2344 45.6488 22.4931 45.1313 22.8812C45.1313 23.0106 45.1313 23.1399 45.1313 23.2693C45.1313 24.6276 44.6785 25.8566 43.9023 26.8268C44.3551 28.1851 45.6488 29.0907 47.0718 29.0907Z" fill="#808B9B"/>
<path d="M24.7567 39.4402H29.4138V35.1712C29.4138 35.1065 29.4138 35.1065 29.4138 35.0418L28.2495 33.166C26.115 33.4247 23.9805 33.7482 23.9805 35.9473V38.664C24.0452 39.1168 24.3686 39.4402 24.7567 39.4402Z" fill="#808B9B"/>
<path d="M30.9008 29.0907C32.7119 29.0907 34.1349 27.7323 34.2643 25.9859C33.8762 25.2744 33.6174 24.4336 33.6174 23.5927C32.9706 22.7518 32.0004 22.2344 30.9008 22.2344C29.025 22.2344 27.4727 23.7867 27.4727 25.6625C27.4727 27.5383 29.025 29.0907 30.9008 29.0907Z" fill="#808B9B"/>
<path d="M49.2707 35.1712V39.4402H53.2163C53.6044 39.4402 53.9925 39.1168 53.9925 38.664V35.9473C53.9925 33.8128 51.858 33.4247 49.7235 33.166L49.2061 34.0716C49.2061 34.395 49.2707 34.7831 49.2707 35.1712Z" fill="#808B9B"/>
<path d="M41.8975 55.8039V59.1027H53.1521V55.8039C53.1521 55.6098 53.0228 55.4805 52.8287 55.4805C52.1819 55.4805 43.5792 55.4805 42.1562 55.4805C42.0268 55.4805 41.8975 55.6745 41.8975 55.8039Z" fill="#808B9B"/>
<path d="M58.9085 31.4834C57.8736 31.4834 57.0974 32.3243 57.0974 33.2298V39.8274C57.0974 40.0214 57.0327 40.2155 56.9034 40.2801C49.853 46.5543 52.6343 43.967 47.7185 48.8182C47.4598 49.0769 47.0717 49.0769 46.813 48.8182C46.5542 48.5594 46.5542 48.1713 46.813 47.9126L50.4998 44.2257C51.1467 43.3849 51.1467 42.2206 50.4998 41.4444C46.8777 45.0019 43.9023 46.4249 43.6436 49.0769V54.1868H51.3407C51.4701 53.0225 51.9875 51.9876 52.699 51.082C57.8089 45.8428 58.9732 45.2607 58.9732 42.8674V31.6128C59.0379 31.5481 58.9732 31.4834 58.9085 31.4834Z" fill="#808B9B"/>
<path d="M35.8172 55.4805C35.1704 55.4805 26.5677 55.4805 25.1447 55.4805C24.9507 55.4805 24.8213 55.6098 24.8213 55.8039V59.1027H36.076V55.8039C36.076 55.6745 35.9466 55.4805 35.8172 55.4805Z" fill="#808B9B"/>
<path d="M34.3296 54.1866V49.0121C34.0709 46.4895 31.2249 45.1312 27.4733 41.4443C26.8265 42.2851 26.8265 43.3847 27.4733 44.2256L31.1602 47.9125C31.4189 48.1712 31.4189 48.5593 31.1602 48.818C30.9015 49.0768 30.5134 49.0768 30.2547 48.818L26.5678 45.1312L21.0698 40.3447C20.9405 40.2153 20.8758 40.0213 20.8758 39.8919V33.2297C20.8758 32.1948 19.9702 31.4186 19.0647 31.4833C19 31.4833 19 31.5479 19 31.6126V42.932C19 44.0316 19.3881 45.1312 20.1643 45.972C25.3388 51.2113 26.3091 51.7934 26.6972 54.2513H34.3296V54.1866Z" fill="#808B9B"/>
<defs>
<linearGradient id="paint0_linear_439_547" x1="32.5" y1="14" x2="39" y2="78" gradientUnits="userSpaceOnUse">
<stop stop-color="#F6F6F6"/>
<stop offset="1" stop-color="#F6F6F6" stop-opacity="0"/>
</linearGradient>
</defs>
</svg>
