<svg width="18" height="18" viewBox="0 0 18 18" fill="none" xmlns="http://www.w3.org/2000/svg">
<path d="M15.2909 7.39968L9.66587 2.09108L9.65954 2.08546C9.47881 1.91994 9.24262 1.82812 8.99755 1.82812C8.75247 1.82813 8.51629 1.91994 8.33556 2.08546L8.32923 2.09108L2.70423 7.39968C2.60474 7.49231 2.52551 7.60454 2.47154 7.72931C2.41756 7.85407 2.39002 7.98866 2.39064 8.1246V14.625C2.39064 14.8861 2.49435 15.1364 2.67895 15.321C2.86356 15.5057 3.11394 15.6094 3.37501 15.6094H6.75001C7.01108 15.6094 7.26146 15.5057 7.44607 15.321C7.63067 15.1364 7.73439 14.8861 7.73439 14.625V11.25C7.73439 11.2127 7.7492 11.1769 7.77557 11.1506C7.80195 11.1242 7.83771 11.1094 7.87501 11.1094H10.125C10.1623 11.1094 10.1981 11.1242 10.2244 11.1506C10.2508 11.1769 10.2656 11.2127 10.2656 11.25V14.625C10.2656 14.8861 10.3693 15.1364 10.554 15.321C10.7386 15.5057 10.9889 15.6094 11.25 15.6094H14.625C14.8861 15.6094 15.1365 15.5057 15.3211 15.321C15.5057 15.1364 15.6094 14.8861 15.6094 14.625V8.1246C15.6094 7.9883 15.5811 7.85349 15.5262 7.7287C15.4714 7.60391 15.3913 7.49187 15.2909 7.39968ZM14.7656 14.625C14.7656 14.6623 14.7508 14.6981 14.7244 14.7244C14.6981 14.7508 14.6623 14.7656 14.625 14.7656H11.25C11.2127 14.7656 11.1769 14.7508 11.1506 14.7244C11.1242 14.6981 11.1094 14.6623 11.1094 14.625V11.25C11.1094 10.9889 11.0057 10.7385 10.8211 10.5539C10.6365 10.3693 10.3861 10.2656 10.125 10.2656H7.87501C7.61394 10.2656 7.36356 10.3693 7.17895 10.5539C6.99435 10.7385 6.89064 10.9889 6.89064 11.25V14.625C6.89064 14.6623 6.87582 14.6981 6.84945 14.7244C6.82307 14.7508 6.78731 14.7656 6.75001 14.7656H3.37501C3.33771 14.7656 3.30195 14.7508 3.27557 14.7244C3.2492 14.6981 3.23439 14.6623 3.23439 14.625V8.1246C3.23434 8.10503 3.23839 8.08566 3.24626 8.06775C3.25413 8.04983 3.26565 8.03375 3.28009 8.02054L3.28642 8.01491L8.9072 2.70772C8.93281 2.68537 8.96566 2.67305 8.99966 2.67305C9.03366 2.67305 9.0665 2.68537 9.09212 2.70772L14.7136 8.01561L14.7192 8.02124C14.7338 8.03439 14.7455 8.05044 14.7534 8.06836C14.7614 8.08628 14.7656 8.10568 14.7656 8.1253V14.625Z" fill="#333543"/>
</svg>
