<?xml version="1.0" standalone="no"?>
<!DOCTYPE svg PUBLIC "-//W3C//DTD SVG 20010904//EN"
 "http://www.w3.org/TR/2001/REC-SVG-20010904/DTD/svg10.dtd">
<svg version="1.0" xmlns="http://www.w3.org/2000/svg"
 width="500.000000pt" height="500.000000pt" viewBox="0 0 500.000000 500.000000"
 preserveAspectRatio="xMidYMid meet">

<g transform="translate(0.000000,500.000000) scale(0.100000,-0.100000)"
fill="#000000" stroke="none">
<path d="M2299 4786 c-2 -2 -33 -7 -69 -10 -64 -6 -144 -18 -207 -32 -21 -4
-30 -11 -26 -18 5 -8 3 -8 -8 0 -9 8 -22 9 -36 3 -33 -12 -28 -26 7 -23 26 2
29 0 19 -12 -14 -17 -23 -19 -13 -2 5 8 0 9 -14 6 -13 -4 -25 -1 -30 7 -6 11
-18 10 -70 -4 -34 -9 -59 -21 -55 -26 4 -4 3 -5 -4 -2 -6 4 -24 2 -40 -5 -31
-13 -38 -15 -54 -17 -5 0 -8 -5 -5 -10 4 -5 -3 -7 -14 -4 -25 7 -26 -5 -2 -23
14 -11 12 -12 -15 -2 -28 10 -39 9 -82 -12 -28 -13 -51 -27 -51 -32 0 -5 -5
-6 -10 -3 -6 4 -18 1 -26 -6 -9 -7 -23 -14 -31 -15 -8 -2 -22 -9 -31 -18 -10
-8 -20 -15 -24 -15 -24 -3 -78 -37 -78 -48 0 -8 -4 -11 -10 -8 -13 8 -52 -19
-42 -30 4 -4 0 -6 -9 -2 -9 3 -23 -3 -32 -14 -14 -16 -15 -19 -2 -19 8 0 15 7
15 17 0 23 13 8 17 -20 2 -12 0 -17 -4 -12 -11 14 -76 12 -81 -3 -2 -7 -9 -12
-15 -12 -7 -1 -30 -17 -52 -37 -22 -20 -33 -32 -25 -28 13 8 13 7 1 -8 -7 -9
-12 -17 -10 -18 34 -7 46 -4 70 13 15 12 26 25 23 30 -3 5 -2 8 3 7 9 -2 46
12 53 21 3 3 18 13 33 23 15 10 25 22 22 27 -3 6 1 7 9 4 19 -7 20 0 6 26 -7
13 -7 21 2 26 6 4 8 3 5 -3 -4 -6 1 -19 9 -29 15 -18 15 -18 11 4 -4 18 -3 21
8 12 18 -15 117 38 110 59 -5 11 -3 12 10 1 12 -10 16 -10 20 2 3 7 15 14 26
15 12 1 29 9 38 17 10 9 23 16 29 16 7 0 12 4 12 9 0 5 6 8 13 8 18 -2 137 44
137 53 0 5 10 6 22 2 18 -4 20 -2 14 14 -5 14 -4 16 5 7 8 -8 24 -8 63 4 28 8
55 18 61 21 5 3 16 7 25 8 27 4 73 15 80 19 4 2 22 7 41 10 18 3 37 11 41 18
6 9 8 9 8 -1 0 -7 3 -11 8 -8 4 2 39 7 77 11 39 3 97 11 130 16 61 10 361 14
402 5 13 -3 25 -1 28 5 4 5 12 9 18 9 7 0 7 -4 -2 -9 -21 -13 15 -21 110 -24
43 -1 75 -6 72 -10 -3 -5 5 -8 18 -6 13 1 38 -3 54 -10 51 -20 55 -21 55 -11
0 5 -8 14 -17 19 -16 9 -14 11 15 11 4 0 8 -4 8 -10 1 -5 2 -15 3 -21 0 -6 10
-8 22 -4 16 6 20 4 14 -6 -5 -8 -5 -11 -1 -7 4 3 19 0 33 -7 14 -7 32 -11 39
-8 8 3 14 0 14 -6 0 -6 9 -11 19 -11 11 0 23 -4 26 -10 10 -16 38 -12 31 5 -3
8 0 14 6 12 6 -1 12 3 15 9 3 8 -52 34 -87 40 -3 0 -12 3 -20 6 -74 28 -250
65 -395 83 -105 13 -475 22 -486 11z m524 -41 c-3 -9 -8 -14 -10 -11 -3 3 -2
9 2 15 9 16 15 13 8 -4z m292 -53 c-3 -3 -11 0 -18 7 -9 10 -8 11 6 5 10 -3
15 -9 12 -12z"/>
<path d="M3294 4638 c-12 -19 -14 -39 -3 -32 5 3 9 1 9 -4 0 -12 59 -34 71
-26 5 3 9 0 9 -6 0 -6 5 -8 10 -5 6 3 10 1 10 -5 0 -6 4 -9 9 -6 5 4 11 3 13
-2 1 -4 41 -27 88 -51 47 -24 97 -52 112 -62 16 -12 29 -16 33 -9 3 5 12 10
18 10 7 0 6 -4 -3 -10 -17 -11 -12 -17 44 -50 22 -13 36 -18 32 -12 -10 16 22
28 36 14 8 -8 4 -9 -12 -5 -20 5 -21 4 -11 -16 7 -12 16 -19 22 -16 5 4 9 0 9
-7 0 -16 80 -74 97 -70 6 1 15 -3 19 -9 5 -8 2 -10 -7 -5 -8 5 6 -11 31 -34
25 -22 70 -65 102 -95 31 -29 59 -51 62 -48 3 4 6 1 6 -6 0 -10 77 -102 155
-186 11 -11 21 -24 22 -28 7 -20 36 -56 42 -52 4 2 8 -1 8 -8 0 -19 79 -136
105 -156 13 -10 28 -16 35 -14 16 6 26 -14 12 -23 -8 -5 -9 -3 -4 6 6 10 4 12
-9 7 -10 -4 -20 -7 -22 -7 -10 0 42 -89 53 -90 6 0 15 -5 19 -12 4 -7 3 -8 -4
-4 -16 10 -15 3 5 -44 10 -22 24 -40 31 -40 7 0 11 -4 8 -9 -4 -5 -1 -22 6
-38 6 -15 12 -30 13 -33 15 -55 41 -126 47 -128 5 -2 8 -15 8 -28 0 -13 4 -24
10 -24 5 0 6 -7 3 -17 -4 -10 -2 -14 4 -10 6 4 11 1 10 -6 -1 -37 4 -68 11
-64 4 3 8 -9 9 -26 4 -50 6 -57 15 -57 5 0 7 -9 3 -19 -3 -11 0 -44 8 -73 8
-29 13 -61 11 -71 -2 -16 8 -22 30 -18 5 1 1 -10 -8 -24 -16 -24 -17 -37 -6
-133 15 -127 1 -322 -37 -537 -14 -77 -25 -147 -25 -155 -1 -8 -5 -20 -10 -26
-5 -7 -6 -27 -3 -45 4 -24 2 -30 -4 -19 -9 12 -11 12 -17 -3 -3 -9 -4 -26 -1
-37 3 -11 2 -18 -3 -15 -10 6 -22 -24 -14 -36 3 -5 0 -9 -7 -9 -6 0 -9 -8 -6
-20 3 -11 1 -18 -3 -15 -4 3 -17 -22 -28 -54 -15 -44 -17 -62 -9 -71 9 -8 7
-9 -8 -4 -17 7 -18 6 -7 -8 11 -14 10 -18 -8 -28 -24 -13 -103 -167 -93 -183
3 -6 1 -7 -5 -3 -7 4 -12 1 -12 -8 0 -9 -5 -16 -10 -16 -6 0 -16 -12 -22 -27
-17 -38 -58 -103 -85 -133 -15 -16 -21 -32 -17 -45 3 -13 2 -16 -3 -8 -7 10
-13 8 -24 -5 -8 -10 -14 -23 -12 -29 2 -6 -1 -15 -8 -19 -8 -5 -9 -3 -4 6 6 9
4 11 -4 6 -7 -5 -10 -15 -7 -23 3 -8 2 -12 -3 -9 -11 7 -107 -103 -103 -118 2
-6 0 -8 -4 -3 -10 9 -53 -31 -50 -47 2 -6 1 -8 -1 -4 -3 5 -37 -20 -77 -55
-39 -34 -95 -80 -124 -101 -36 -28 -48 -42 -39 -48 9 -7 8 -8 -3 -7 -31 3 -41
-2 -50 -23 -5 -13 -9 -17 -9 -10 -1 9 -16 1 -42 -19 -27 -21 -37 -34 -29 -39
8 -5 8 -10 2 -14 -5 -3 -13 1 -16 10 -5 13 -10 12 -38 -7 -18 -13 -36 -28 -40
-34 -4 -5 -8 -7 -8 -3 0 4 -18 -2 -40 -13 -22 -12 -37 -26 -33 -32 3 -6 1 -7
-6 -3 -6 4 -19 2 -28 -6 -9 -7 -18 -12 -19 -11 -2 1 -32 -10 -66 -26 -35 -16
-73 -32 -85 -36 -13 -3 -23 -11 -23 -16 0 -6 -4 -8 -9 -5 -12 8 -64 -12 -57
-22 2 -4 -8 -7 -22 -6 -15 1 -31 -2 -37 -6 -14 -10 -72 -25 -108 -28 -10 -1
-16 -5 -14 -10 5 -7 -21 -11 -72 -12 -21 0 -22 -2 -10 -18 12 -15 12 -16 -2
-5 -12 10 -38 9 -125 -4 -119 -19 -604 -28 -614 -12 -3 4 -38 10 -78 11 -40 2
-72 7 -72 12 0 4 -11 6 -25 4 -13 -3 -22 -2 -20 2 3 4 -12 10 -33 14 -75 12
-95 17 -135 33 -23 8 -54 16 -69 17 -14 0 -24 4 -21 9 2 4 -2 8 -9 9 -7 0 -17
2 -23 3 -5 0 -37 14 -69 29 -33 15 -68 28 -78 29 -10 1 -18 5 -18 10 0 4 -4 6
-9 3 -5 -4 -11 -2 -13 3 -1 5 -38 27 -81 49 -43 23 -75 37 -72 32 3 -5 0 -12
-6 -16 -8 -5 -9 -3 -4 6 6 10 4 12 -10 6 -15 -5 -16 -4 -6 8 8 10 9 16 1 21
-5 3 -10 3 -10 -2 0 -4 -4 -3 -8 3 -4 6 -22 19 -39 28 -18 9 -33 21 -33 26 0
6 -6 10 -14 10 -11 0 -56 30 -104 70 -6 6 -12 9 -12 7 0 -2 -21 16 -46 40 -26
23 -50 40 -55 37 -5 -3 -9 1 -9 8 0 20 -77 80 -84 65 -3 -6 -4 -3 -3 8 1 12
-3 19 -11 17 -8 -1 -11 1 -8 6 3 5 -24 37 -60 73 -36 35 -70 72 -75 82 -12 21
-33 12 -24 -12 4 -10 3 -12 -3 -6 -5 6 -13 21 -17 35 -5 19 -4 21 4 10 8 -11
11 -11 11 -2 0 15 -28 28 -38 18 -3 -4 0 -17 7 -29 13 -20 13 -21 -2 -8 -16
13 -21 64 -5 55 18 -11 7 13 -12 26 -11 8 -20 20 -20 26 0 7 -3 14 -8 16 -4 2
-23 28 -42 58 -19 30 -37 57 -40 60 -3 3 -13 19 -22 35 -9 17 -33 60 -54 97
-21 37 -42 64 -47 61 -6 -3 -7 -1 -4 4 6 10 -38 133 -52 143 -3 3 -8 14 -9 25
-2 11 -8 21 -12 23 -5 2 -6 10 -3 19 4 10 2 14 -4 10 -7 -5 -9 0 -6 11 2 11
-2 26 -10 34 -9 8 -15 23 -14 34 1 10 -3 18 -10 17 -7 -2 -10 7 -7 23 3 15 -1
43 -8 63 -6 20 -11 39 -10 44 1 4 -2 7 -7 7 -5 0 -8 8 -7 17 0 11 -5 17 -13
15 -11 -2 -12 0 -4 10 11 14 14 48 4 48 -3 0 -7 10 -8 23 -1 12 -4 36 -7 52
-3 17 -8 59 -11 95 -4 36 -8 76 -10 89 -4 26 -5 438 -1 486 1 17 6 46 9 65 4
19 9 51 12 70 2 19 11 61 19 93 8 31 12 57 9 57 -3 0 -1 6 4 13 5 6 15 32 22
57 8 25 25 76 39 115 14 38 25 75 25 82 0 7 4 13 8 13 14 0 19 33 8 46 -9 11
-9 13 2 9 16 -6 72 102 61 119 -3 6 -7 17 -8 24 -2 11 1 11 13 1 12 -10 16
-10 24 2 5 8 9 22 9 32 0 9 5 17 11 17 6 0 9 7 6 15 -4 8 -1 17 5 21 7 4 8 3
4 -4 -4 -7 -5 -12 -1 -12 3 0 10 10 15 23 13 30 33 61 45 69 5 4 7 10 3 13 -3
4 2 15 13 26 11 11 17 25 13 31 -4 7 -3 8 4 4 11 -6 16 6 13 27 0 4 2 6 6 5 5
-2 9 1 10 6 1 5 6 12 11 15 6 3 31 33 56 66 25 33 59 74 76 92 31 32 39 49 18
37 -8 -4 -10 -3 -5 2 5 5 12 9 16 9 15 0 70 59 64 68 -3 6 -2 7 4 4 6 -4 21 6
34 21 13 14 16 20 7 13 -10 -7 -18 -9 -18 -4 0 5 12 15 26 21 20 10 24 10 18
0 -4 -7 7 0 24 16 17 16 29 34 25 39 -3 6 -1 7 5 3 6 -3 23 5 39 20 15 14 23
23 16 19 -7 -3 -18 3 -25 14 -9 15 -15 17 -25 9 -17 -13 -17 -31 0 -22 6 4 8
3 4 -1 -4 -5 -14 -10 -22 -11 -24 -4 -105 -75 -98 -87 3 -5 1 -7 -4 -4 -13 8
-45 -27 -36 -39 5 -5 4 -5 -1 -1 -13 10 -136 -112 -129 -129 3 -8 10 -11 17
-7 6 4 5 -1 -3 -10 -14 -18 -26 -23 -16 -8 3 5 1 12 -5 16 -5 3 -10 3 -10 -2
0 -4 -11 -21 -25 -37 -13 -16 -22 -32 -19 -37 3 -5 -2 -6 -11 -3 -11 5 -15 2
-13 -8 2 -9 -16 -34 -40 -57 -43 -42 -43 -43 -25 -64 15 -18 15 -19 1 -8 -9 7
-22 10 -28 6 -8 -5 -6 -11 6 -19 13 -10 14 -15 4 -21 -9 -5 -11 -4 -6 3 4 7 1
12 -9 12 -8 0 -19 -8 -22 -17 -4 -10 -11 -21 -17 -25 -7 -6 -6 -11 4 -18 13
-8 13 -10 -1 -10 -15 0 -29 -19 -28 -36 0 -4 -4 -10 -9 -13 -19 -12 -73 -121
-66 -132 4 -7 3 -9 -3 -6 -9 6 -73 -118 -73 -142 0 -4 -7 -22 -16 -40 -9 -17
-13 -38 -11 -46 3 -7 -1 -19 -9 -25 -8 -7 -14 -22 -14 -34 0 -12 -4 -26 -9
-31 -5 -6 -12 -23 -14 -40 -3 -16 -10 -43 -16 -58 -6 -15 -13 -47 -15 -70 -2
-23 -9 -64 -16 -90 -7 -26 -10 -51 -6 -54 3 -3 2 -11 -3 -17 -20 -25 -32 -349
-18 -490 4 -44 10 -104 13 -135 3 -31 10 -69 15 -86 5 -16 10 -45 11 -63 2
-23 6 -31 17 -27 10 4 11 2 4 -7 -10 -13 -10 -20 2 -68 4 -14 11 -44 15 -67
16 -74 38 -116 57 -109 16 5 16 4 3 -6 -8 -7 -14 -24 -12 -37 3 -16 6 -20 12
-12 5 9 9 7 13 -8 3 -12 1 -19 -3 -16 -4 3 -6 -4 -3 -15 3 -11 10 -20 15 -20
5 0 7 -4 4 -9 -7 -10 44 -134 56 -139 4 -2 8 -10 8 -18 0 -15 44 -101 60 -117
4 -5 11 -3 15 4 6 8 4 10 -5 4 -9 -6 -11 -4 -6 4 5 7 0 18 -10 26 -16 11 -17
16 -6 27 11 11 12 10 6 -6 -4 -11 -4 -17 2 -13 5 3 17 -8 27 -24 9 -17 13 -28
8 -25 -5 3 -12 -1 -15 -10 -8 -20 12 -46 27 -37 5 3 7 1 4 -4 -6 -10 23 -72
59 -128 12 -19 20 -23 28 -15 8 8 7 13 -4 20 -8 5 -10 10 -4 10 5 0 15 -5 22
-12 9 -9 7 -14 -5 -23 -15 -11 -11 -20 37 -81 29 -38 63 -77 74 -87 12 -10 14
-15 6 -11 -8 4 -4 -4 10 -19 14 -15 31 -27 37 -27 7 0 12 -4 10 -8 -3 -12 68
-92 82 -92 7 0 10 -4 7 -9 -8 -12 19 -33 29 -23 5 4 5 2 1 -5 -3 -6 0 -15 8
-20 8 -4 30 -23 50 -40 19 -18 41 -30 48 -28 8 3 22 -2 33 -10 19 -16 19 -16
-2 -6 -32 16 -38 13 -18 -9 14 -16 21 -17 39 -8 19 10 19 9 8 -5 -11 -13 -9
-18 13 -34 14 -10 44 -33 67 -51 39 -31 42 -32 59 -16 11 10 22 14 25 11 4 -4
0 -9 -9 -13 -9 -3 -13 -12 -10 -19 6 -19 130 -88 142 -80 5 3 13 0 17 -6 4 -8
3 -9 -4 -5 -7 4 -12 5 -12 2 0 -11 70 -37 81 -30 7 4 9 3 5 -4 -7 -12 26 -30
132 -73 40 -16 78 -26 84 -23 7 4 8 2 4 -4 -6 -11 19 -18 47 -13 4 0 7 -4 7
-9 0 -6 8 -10 18 -10 10 0 22 -4 28 -9 18 -17 92 -29 105 -17 9 8 10 8 5 -1
-12 -21 108 -44 147 -28 10 4 17 3 17 -5 0 -6 -4 -8 -10 -5 -5 3 -10 1 -10 -4
0 -6 14 -12 30 -13 52 -2 55 -3 62 -13 5 -6 119 -11 300 -12 287 -2 363 1 354
15 -2 4 12 8 32 8 68 3 216 28 259 45 15 6 31 16 35 22 5 8 8 8 8 1 0 -15 46
-6 60 12 6 7 19 10 27 7 12 -5 14 -3 8 7 -5 8 -4 11 3 6 14 -8 64 3 57 14 -3
4 2 11 11 14 8 3 12 2 9 -4 -10 -15 6 -12 60 15 28 14 56 25 63 25 7 0 10 4 7
10 -3 6 1 7 9 4 9 -4 18 1 22 10 3 9 10 13 15 10 5 -3 22 4 38 15 16 12 34 21
41 21 6 0 8 5 5 11 -4 6 -1 9 6 8 22 -5 81 30 73 43 -4 7 -3 8 5 4 7 -5 29 3
51 18 22 14 43 26 47 26 5 0 20 12 36 25 31 27 36 51 10 40 -14 -5 -15 -4 -6
6 10 10 15 9 27 0 12 -10 21 -8 51 16 19 15 35 33 35 39 0 7 8 11 18 10 11 -1
16 6 15 17 0 12 4 16 13 13 17 -7 76 42 67 56 -4 7 -1 8 6 3 17 -10 223 200
219 223 -2 9 3 17 10 17 7 0 33 27 58 60 24 33 54 72 66 87 13 15 32 43 42 63
17 31 18 38 5 47 -11 8 -11 9 3 4 13 -4 23 4 35 27 9 18 16 35 15 39 -1 5 3 8
9 8 5 0 8 4 5 9 -3 5 1 11 9 15 17 6 21 46 4 46 -5 0 -8 -4 -4 -9 3 -5 1 -12
-3 -15 -12 -7 -9 41 2 51 5 4 6 3 3 -3 -6 -10 21 -30 29 -22 13 13 98 216 111
263 2 11 7 27 11 35 3 8 6 17 7 20 1 3 5 12 8 20 4 8 8 26 9 40 2 14 8 28 13
33 6 4 2 14 -10 24 -15 12 -16 14 -3 10 17 -6 33 17 22 34 -3 5 -1 9 4 9 5 0
14 26 20 57 6 32 15 74 19 93 4 19 7 53 7 75 1 22 4 42 7 45 15 12 23 109 23
298 1 170 -1 204 -14 212 -8 5 -10 10 -4 10 9 0 9 10 2 38 -5 20 -9 46 -9 57
0 11 -4 34 -10 51 -5 17 -12 46 -15 65 -2 19 -7 48 -9 64 -12 76 -42 160 -56
157 -11 -3 -12 -1 -1 9 17 18 15 42 -3 35 -8 -3 -15 -1 -15 4 0 6 4 10 10 10
5 0 7 7 4 15 -4 8 -14 15 -23 15 -13 0 -13 2 -2 9 20 13 6 53 -82 241 -21 47
-44 88 -49 91 -5 3 -10 10 -10 15 -1 33 -64 129 -83 128 -11 -2 -13 1 -5 11 8
9 -2 29 -35 74 -45 62 -62 74 -62 46 0 -9 6 -14 13 -11 8 3 16 0 20 -7 4 -7 4
-9 -1 -5 -4 4 -17 3 -28 -3 -15 -9 -18 -8 -12 2 5 8 4 10 -3 5 -7 -4 -12 -2
-12 3 0 6 5 11 11 11 5 0 8 4 4 9 -3 5 -1 12 5 16 6 4 -9 31 -35 65 -63 82
-74 92 -96 85 -13 -4 -19 -2 -19 9 0 9 5 16 11 16 5 0 7 -5 3 -12 -5 -7 -3 -8
5 -3 17 10 -74 99 -93 92 -7 -3 -13 1 -13 9 0 7 5 10 11 7 6 -3 -5 8 -24 26
-19 17 -50 45 -68 61 -18 17 -38 28 -43 24 -5 -3 -8 -1 -7 4 4 15 -90 84 -104
76 -6 -4 -8 -3 -4 4 4 6 -13 24 -40 43 -33 23 -48 28 -54 19 -5 -8 -9 -7 -13
5 -5 11 -3 14 6 9 9 -5 9 -4 0 6 -13 14 -37 4 -27 -12 4 -6 2 -8 -4 -5 -5 4
-8 16 -5 27 5 18 2 20 -32 14 -24 -3 -35 -2 -31 5 4 5 15 8 26 6 11 -2 20 -2
20 0 0 6 -115 68 -127 68 -7 0 -13 4 -13 8 0 4 -7 10 -16 13 -8 3 -13 2 -10
-2 2 -4 -5 -8 -17 -9 -12 0 -16 1 -9 4 21 8 14 20 -22 37 -39 18 -60 21 -51 6
4 -6 12 -7 18 -4 7 4 9 4 5 -1 -4 -4 -2 -15 4 -24 7 -9 0 -5 -15 8 -15 14 -27
30 -27 36 0 7 -17 17 -37 24 -21 7 -43 14 -50 17 -6 3 -15 -1 -19 -8z m317
-175 c13 -16 12 -17 -3 -4 -10 7 -18 15 -18 17 0 8 8 3 21 -13z m207 -128 c-3
-3 -9 2 -12 12 -6 14 -5 15 5 6 7 -7 10 -15 7 -18z m17 -15 c-3 -5 -1 -10 6
-10 7 0 10 -3 6 -6 -9 -9 -28 6 -22 17 4 5 8 9 11 9 3 0 2 -4 -1 -10z m40 1
c3 -5 0 -13 -6 -17 -7 -4 -9 -3 -5 4 3 5 0 13 -6 15 -9 4 -10 6 -1 6 6 1 14
-3 18 -8z m-2851 -99 c3 -5 -1 -9 -9 -9 -8 0 -12 4 -9 9 3 4 7 8 9 8 2 0 6 -4
9 -8z m2962 -10 c1 -7 0 -8 -3 -2 -2 5 -9 10 -14 10 -6 0 -7 -5 -3 -12 4 -7 3
-8 -4 -4 -7 4 -12 12 -12 17 0 15 33 7 36 -9z m48 -34 c-3 -4 -12 -4 -21 -1
-12 5 -14 3 -8 -7 5 -9 4 -11 -4 -6 -16 10 -4 25 19 23 10 -1 17 -5 14 -9z
m-3089 -48 c3 -6 -1 -7 -9 -4 -18 7 -21 14 -7 14 6 0 13 -4 16 -10z m-79 -49
c-4 -5 0 -11 6 -14 7 -3 3 -4 -9 -4 -17 1 -19 4 -11 14 12 15 22 18 14 4z
m3265 -8 c13 -16 12 -17 -3 -4 -17 13 -22 21 -14 21 2 0 10 -8 17 -17z m94
-93 c3 -5 2 -10 -4 -10 -5 0 -13 5 -16 10 -3 6 -2 10 4 10 5 0 13 -4 16 -10z
m45 -64 c-17 -17 -11 -29 8 -15 15 13 16 12 3 -4 -10 -12 -17 -15 -25 -7 -7 7
-7 13 1 21 6 6 9 19 6 28 -4 14 -3 14 6 1 6 -9 7 -18 1 -24z m120 -151 c-5 -6
-8 -15 -5 -18 3 -4 2 -4 -2 -1 -5 3 -8 10 -8 14 0 5 -9 16 -20 25 -19 14 -19
15 -1 8 15 -5 17 -3 11 8 -5 8 1 5 13 -5 15 -13 19 -23 12 -31z m105 -184 c3
-5 2 -12 -3 -15 -5 -3 -9 1 -9 9 0 17 3 19 12 6z m120 -259 c-3 -3 -11 0 -18
7 -9 10 -8 11 6 5 10 -3 15 -9 12 -12z m-4255 -158 c0 -8 -19 -13 -24 -6 -3 5
1 9 9 9 8 0 15 -2 15 -3z m-20 -28 c0 -2 -7 -7 -16 -10 -8 -3 -12 -2 -9 4 6
10 25 14 25 6z m4417 -758 c-3 -8 -6 -5 -6 6 -1 11 2 17 5 13 3 -3 4 -12 1
-19z m-4434 -493 c-3 -9 -8 -14 -10 -11 -3 3 -2 9 2 15 9 16 15 13 8 -4z
m4287 -209 c0 -2 -8 -10 -17 -17 -16 -13 -17 -12 -4 4 13 16 21 21 21 13z m-5
-36 c-3 -5 -12 -10 -18 -10 -7 0 -6 4 3 10 19 12 23 12 15 0z m-3995 -374 c0
-5 -7 -1 -15 10 -8 10 -14 24 -14 29 0 6 6 1 14 -9 8 -11 15 -24 15 -30z
m3784 -12 c3 -8 2 -12 -4 -9 -6 3 -10 10 -10 16 0 14 7 11 14 -7z m-14 -25 c0
-5 -4 -9 -8 -9 -5 0 -9 7 -9 15 0 8 4 12 9 9 4 -3 8 -9 8 -15z m-20 -29 c0 -5
-5 -10 -11 -10 -5 0 -7 5 -4 10 3 6 8 10 11 10 2 0 4 -4 4 -10z m-3665 -49 c3
-5 2 -12 -3 -15 -5 -3 -9 1 -9 9 0 17 3 19 12 6z m28 -47 c-4 -11 -8 -12 -20
-3 -11 10 -11 14 -1 20 17 10 28 2 21 -17z m3503 -87 c1 -9 -2 -15 -7 -11 -5
3 -7 9 -4 14 3 4 0 11 -5 13 -6 3 -5 4 1 3 7 -1 13 -10 15 -19z m-3386 -32 c0
-12 -19 -12 -23 0 -4 9 -1 12 9 8 7 -3 14 -7 14 -8z m3351 -2 c13 -16 12 -17
-3 -4 -17 13 -22 21 -14 21 2 0 10 -8 17 -17z m-6 -23 c3 -5 1 -10 -4 -10 -6
0 -11 5 -11 10 0 6 2 10 4 10 3 0 8 -4 11 -10z m-125 -135 c0 -5 -5 -3 -10 5
-5 8 -10 20 -10 25 0 6 5 3 10 -5 5 -8 10 -19 10 -25z m-3063 -17 c-3 -8 -6
-5 -6 6 -1 11 2 17 5 13 3 -3 4 -12 1 -19z m3019 13 c-6 -9 -46 -22 -46 -15 0
3 10 9 23 14 29 11 29 11 23 1z m-31 -37 c-11 -8 -19 -20 -17 -26 2 -8 -1 -8
-11 0 -8 7 -18 8 -23 4 -4 -4 -2 1 5 10 7 10 16 16 20 14 4 -3 13 -1 21 5 24
14 27 10 5 -7z m-45 -58 c0 -1 -13 -3 -30 -3 -16 0 -30 4 -30 9 0 5 5 6 10 3
6 -3 10 -1 10 5 0 8 6 8 20 0 11 -6 20 -12 20 -14z m-76 -41 c-4 -8 -8 -15
-10 -15 -2 0 -4 7 -4 15 0 8 4 15 10 15 5 0 7 -7 4 -15z m-2682 -27 c-9 -9
-15 -9 -24 1 -11 10 -10 11 5 6 10 -5 17 -2 17 6 0 7 3 9 7 6 4 -4 1 -13 -5
-19z m2579 -43 c-12 -6 -18 -15 -14 -20 4 -4 2 -5 -5 -1 -18 11 4 47 24 39 14
-5 13 -8 -5 -18z m-2461 -45 c0 -5 -2 -10 -4 -10 -3 0 -8 5 -11 10 -3 6 -1 10
4 10 6 0 11 -4 11 -10z m2377 -17 c0 -9 -4 -10 -10 -4 -7 7 -16 7 -26 -2 -14
-10 -14 -10 -4 4 15 19 40 21 40 2z m-2322 -23 c16 -17 16 -20 3 -15 -9 4 -19
13 -22 21 -7 19 -2 18 19 -6z m2116 -73 c-10 -9 -11 -8 -5 6 3 10 9 15 12 12
3 -3 0 -11 -7 -18z m-1921 -1 c0 -2 -8 -10 -17 -17 -16 -13 -17 -12 -4 4 13
16 21 21 21 13z"/>
<path d="M2313 4598 c3 -18 9 -62 12 -98 6 -58 5 -67 -14 -84 -21 -19 -22 -19
-41 0 -14 14 -23 44 -31 104 -12 92 -17 104 -38 91 -18 -11 4 -178 29 -219 23
-37 64 -48 97 -27 40 27 46 59 33 168 -11 86 -14 97 -32 97 -17 0 -19 -5 -15
-32z"/>
<path d="M2450 4538 c0 -51 -3 -110 -6 -130 -6 -34 -4 -38 15 -38 17 0 21 6
21 35 0 30 3 35 24 35 19 0 27 -8 36 -34 6 -19 19 -36 30 -39 23 -6 26 10 9
47 -9 20 -8 32 5 60 22 47 20 98 -5 130 -18 22 -28 26 -75 26 l-54 0 0 -92z
m108 19 c2 -10 1 -30 -2 -43 -6 -21 -12 -25 -39 -22 -18 2 -31 6 -29 11 1 4 2
23 2 43 0 34 1 35 32 32 22 -2 34 -9 36 -21z"/>
<path d="M2731 4603 c-19 -37 -101 -226 -101 -234 0 -23 37 -6 47 21 10 27 14
29 45 24 42 -8 58 -21 58 -46 0 -18 25 -36 36 -25 5 5 -34 255 -42 269 -9 14
-33 9 -43 -9z m29 -114 c0 -39 -11 -48 -38 -31 -10 7 -9 16 3 46 19 45 35 39
35 -15z"/>
<path d="M2040 4582 c-57 -15 -65 -20 -62 -39 3 -19 8 -21 33 -16 16 3 29 3
29 1 0 -15 49 -200 54 -206 4 -3 12 0 18 6 9 9 8 29 -5 84 -26 115 -26 132 1
136 16 3 22 10 22 28 0 28 -3 28 -90 6z"/>
<path d="M2915 4578 c-9 -30 -55 -241 -53 -243 2 -2 29 -10 61 -18 57 -14 59
-14 67 7 7 18 2 23 -36 34 -24 7 -44 16 -44 20 0 4 11 51 24 104 13 54 21 100
18 103 -10 10 -33 5 -37 -7z"/>
<path d="M1834 4513 c9 -21 44 -143 56 -191 5 -19 11 -36 14 -39 8 -8 114 16
121 27 3 4 2 16 -1 25 -5 12 -14 15 -33 10 -63 -15 -62 -16 -91 85 -23 82 -30
95 -50 98 -19 3 -22 0 -16 -15z"/>
<path d="M3146 4398 c-26 -66 -44 -124 -39 -129 15 -15 99 -32 126 -25 45 11
81 69 85 140 3 54 1 63 -20 82 -12 12 -42 28 -64 37 l-42 16 -46 -121z m97 51
c30 -16 37 -28 37 -67 0 -38 -25 -81 -54 -92 -26 -9 -79 8 -73 24 31 76 61
146 64 146 3 0 14 -5 26 -11z"/>
<path d="M1731 4491 c-11 -7 -9 -21 13 -77 40 -106 42 -130 16 -144 -32 -17
-52 6 -90 101 -29 70 -50 94 -63 71 -3 -4 10 -45 29 -92 52 -131 113 -171 167
-108 25 29 21 68 -15 161 -37 96 -39 99 -57 88z"/>
<path d="M3414 4388 c-9 -18 -36 -70 -60 -114 -24 -45 -44 -84 -44 -86 0 -2
27 -17 61 -33 51 -25 62 -27 69 -15 14 22 13 23 -27 45 -43 24 -48 34 -29 60
14 19 16 19 50 3 34 -17 36 -17 46 2 9 17 6 22 -25 37 -38 18 -42 29 -21 58
12 17 16 18 37 4 43 -28 58 -29 69 -9 9 17 4 23 -42 47 -29 15 -56 29 -60 31
-4 2 -14 -12 -24 -30z"/>
<path d="M1445 4356 c-50 -50 -21 -162 54 -213 40 -27 68 -29 99 -7 31 21 47
64 30 76 -21 13 -33 9 -43 -14 -15 -35 -50 -34 -85 0 -56 56 -50 132 10 132
27 0 31 3 28 23 -5 34 -60 36 -93 3z"/>
<path d="M3595 4319 c-3 -8 -20 -66 -39 -129 -32 -109 -33 -140 -6 -140 4 0
43 31 86 68 43 38 89 77 101 87 12 10 20 22 17 27 -12 19 -40 4 -105 -53 -38
-34 -69 -58 -69 -54 0 4 12 45 26 92 25 78 25 86 11 101 -14 13 -17 13 -22 1z"/>
<path d="M1305 4270 c-7 -11 9 -40 82 -152 40 -62 59 -78 76 -62 7 7 -132 224
-143 224 -5 0 -12 -5 -15 -10z"/>
<path d="M2435 4265 c-5 -2 -50 -9 -100 -14 -49 -6 -108 -13 -130 -17 -22 -3
-46 -6 -52 -7 -8 0 -10 -9 -7 -24 4 -12 2 -23 -4 -23 -5 0 -9 8 -8 17 2 28
-21 25 -182 -23 -53 -16 -80 -29 -76 -36 5 -7 1 -9 -9 -5 -19 7 -49 -1 -43
-12 2 -3 -7 -7 -20 -7 -13 -1 -37 -10 -52 -20 -15 -10 -30 -19 -34 -20 -5 -1
-11 -2 -15 -3 -5 -1 -1 -6 7 -11 11 -8 8 -9 -12 -4 -16 3 -28 2 -28 -4 0 -5
-10 -13 -22 -17 -13 -4 -25 -8 -28 -9 -25 -9 -70 -39 -70 -46 0 -6 -5 -10 -11
-10 -18 0 -59 -37 -51 -45 4 -5 1 -5 -6 -1 -16 9 -44 -12 -35 -27 4 -6 0 -8
-10 -4 -10 3 -17 3 -17 -1 0 -4 -14 -15 -31 -24 -17 -10 -27 -22 -24 -28 3 -5
0 -10 -8 -10 -19 0 -49 -34 -40 -45 5 -4 2 -5 -5 -1 -7 4 -15 1 -18 -8 -3 -9
-11 -13 -18 -9 -6 3 -8 3 -4 -2 7 -7 -14 -35 -27 -35 -10 0 -50 -53 -48 -62 2
-5 -4 -8 -12 -8 -8 0 -15 -4 -15 -8 0 -4 -16 -25 -35 -47 -20 -21 -34 -44 -31
-52 3 -7 0 -12 -6 -10 -16 3 -128 -165 -124 -186 2 -9 1 -15 -4 -12 -11 7 -33
-52 -24 -66 4 -8 3 -10 -4 -5 -14 8 -66 -90 -58 -111 3 -8 2 -12 -3 -9 -5 3
-12 -1 -15 -10 -9 -22 -8 -24 9 -18 8 4 15 1 15 -5 0 -6 -3 -10 -7 -10 -28 5
-34 -3 -30 -36 3 -19 1 -32 -4 -29 -5 3 -6 10 -3 16 5 7 2 8 -5 4 -8 -5 -10
-19 -6 -39 4 -20 3 -27 -3 -19 -6 9 -12 2 -20 -25 -21 -75 -44 -194 -38 -200
3 -3 0 -13 -7 -21 -8 -11 -13 -76 -15 -222 -4 -188 0 -229 23 -295 6 -16 5
-17 -4 -5 -8 11 -10 7 -5 -20 12 -68 26 -115 38 -122 8 -6 8 -8 -1 -8 -14 0
10 -94 31 -119 8 -12 8 -13 -1 -7 -9 5 -11 2 -7 -8 7 -18 16 -20 30 -6 6 6 15
5 24 -1 13 -9 13 -10 -1 -6 -33 11 -39 -13 -17 -72 12 -31 25 -57 29 -59 5 -2
9 -10 9 -19 0 -40 156 -312 193 -335 7 -4 8 -8 4 -8 -9 0 5 -19 54 -71 20 -22
35 -39 32 -39 -2 0 13 -18 33 -40 20 -22 41 -37 45 -34 5 3 9 -2 9 -11 0 -16
45 -39 60 -30 5 3 11 1 14 -4 4 -5 -6 -8 -21 -6 l-27 3 30 -27 c91 -79 108
-93 135 -112 16 -11 33 -18 38 -14 5 3 13 0 17 -6 4 -8 3 -9 -4 -5 -7 4 -12 5
-12 2 0 -10 91 -67 99 -62 5 3 11 -1 14 -8 6 -15 180 -106 203 -106 8 0 14 -4
14 -8 0 -5 17 -14 38 -21 89 -29 93 -30 85 -18 -3 7 3 4 14 -6 11 -10 30 -20
43 -22 12 -2 25 -7 28 -10 3 -2 11 3 19 13 12 16 13 16 6 -2 -5 -16 -3 -18 15
-14 12 4 20 3 17 -1 -2 -5 30 -16 73 -26 84 -19 509 -35 499 -19 -2 5 25 10
62 11 37 0 87 7 111 14 25 7 49 12 53 11 5 -2 5 3 1 9 -4 8 0 9 16 4 17 -5 21
-4 15 6 -6 11 -5 11 5 2 12 -11 20 -11 58 4 9 3 23 7 30 9 32 6 147 50 150 57
2 4 10 7 18 7 15 0 115 47 124 59 3 3 12 7 20 9 26 6 100 52 100 63 0 6 5 7
12 3 7 -5 9 -2 5 8 -4 11 -1 14 11 11 21 -5 102 53 102 73 0 8 5 14 11 14 5 0
7 -5 3 -12 -4 -7 7 -2 25 11 20 14 30 29 27 38 -4 9 -2 11 5 7 6 -4 26 9 43
27 18 19 42 41 54 49 12 8 22 20 22 28 0 7 5 10 10 7 6 -3 10 -3 10 2 0 4 25
35 55 68 30 33 55 63 55 67 0 4 14 23 31 43 18 20 29 38 25 42 -3 3 3 13 15
21 11 8 18 20 15 29 -3 8 -2 11 3 8 5 -3 12 4 16 15 3 11 10 20 15 20 4 0 10
9 13 20 8 31 8 35 -2 35 -5 0 -13 4 -18 9 -5 5 -3 6 5 2 6 -4 12 -3 12 3 0 5
-6 11 -12 14 -10 3 -10 8 1 18 9 9 11 10 7 1 -4 -7 -1 -15 8 -18 9 -3 13 -10
10 -15 -3 -5 -2 -9 3 -9 13 0 95 180 89 196 -3 8 -2 13 3 10 5 -3 18 20 29 52
31 89 35 105 24 98 -6 -4 -16 4 -22 16 -10 21 -10 21 3 5 12 -15 16 -15 26 -3
7 8 14 25 15 38 2 13 6 30 9 38 3 8 14 56 24 105 22 112 27 521 6 547 -7 8
-10 18 -7 21 4 3 3 27 -1 53 -5 34 -9 43 -16 33 -6 -9 -7 -3 -3 19 5 26 2 38
-15 56 -17 18 -19 26 -10 31 7 5 10 4 5 -3 -3 -6 -2 -13 4 -17 13 -8 13 7 -2
42 -6 15 -12 33 -13 38 -1 6 -3 13 -5 18 -4 10 -7 25 -9 38 0 5 -6 7 -13 3 -8
-5 -9 -2 -5 10 8 19 -19 94 -41 116 -13 13 -14 13 -9 -3 4 -10 3 -15 -2 -12
-6 3 -9 14 -8 25 1 10 5 16 10 13 5 -3 -15 40 -43 96 -31 61 -56 99 -62 95 -7
-4 -8 -2 -4 4 8 13 -22 64 -34 57 -4 -3 -14 3 -21 13 -13 15 -12 16 4 3 36
-28 6 24 -50 84 -12 14 -28 34 -36 45 -34 48 -126 138 -131 127 -3 -8 -5 -7
-5 2 -1 13 -31 43 -118 121 -15 14 -23 16 -26 7 -3 -7 -6 -4 -6 7 -1 11 -6 16
-15 13 -8 -3 -20 2 -28 11 -12 15 -11 16 5 3 9 -7 17 -11 17 -7 0 7 -83 61
-89 57 -2 -2 -7 2 -10 7 -14 24 -122 80 -144 75 -15 -3 -18 -2 -9 4 9 7 6 13
-13 21 -15 7 -24 8 -20 2 3 -6 -1 -7 -9 -4 -9 3 -13 11 -9 17 4 6 0 8 -10 4
-9 -3 -18 0 -21 9 -7 17 -32 19 -40 2 -3 -7 -4 -5 -3 5 2 17 -25 32 -88 51 -5
2 -18 6 -27 10 -9 4 -22 8 -30 10 -7 1 -17 4 -23 7 -5 3 -17 5 -25 4 -8 0 -17
3 -21 7 -3 4 -18 9 -35 11 -16 2 -34 6 -39 9 -6 3 -23 8 -40 12 -29 7 -29 7
-10 -9 19 -15 19 -16 -5 -3 -14 7 -28 11 -32 10 -5 -1 -8 3 -8 9 0 7 -21 10
-60 7 -33 -1 -61 1 -63 5 -3 9 -205 20 -222 12z m-30 -24 c3 -5 2 -12 -3 -15
-5 -3 -9 1 -9 9 0 17 3 19 12 6z m345 -25 c-7 -7 -13 -7 -20 0 -6 6 -3 10 10
10 13 0 16 -4 10 -10z m122 -38 c-7 -7 -16 -6 -29 1 -16 11 -15 11 6 5 17 -4
21 -3 16 6 -6 9 -4 11 4 5 9 -5 9 -11 3 -17z m-568 0 c-4 -7 -3 -8 5 -4 18 11
402 9 432 -3 15 -5 54 -11 88 -13 33 -2 61 -7 61 -12 0 -4 7 -5 16 -2 8 3 12
2 9 -4 -3 -6 3 -10 14 -10 11 0 45 -9 75 -21 31 -11 64 -21 76 -22 11 -1 20
-5 20 -9 0 -4 5 -8 11 -8 6 0 41 -14 76 -32 54 -26 66 -29 75 -17 8 11 9 11 5
-3 -4 -11 4 -20 26 -29 24 -10 32 -10 35 -1 2 7 8 9 14 6 6 -4 5 -10 -3 -15
-11 -7 -10 -11 6 -23 27 -20 36 -20 29 2 -5 14 -4 14 4 2 6 -8 9 -17 6 -22 -4
-6 36 -32 63 -41 4 -1 17 -12 30 -25 13 -13 28 -20 36 -16 6 4 9 4 5 0 -7 -8
98 -106 114 -106 5 0 7 4 4 8 -2 4 4 8 15 8 19 0 19 -1 4 -12 -23 -17 -13 -30
40 -53 25 -11 45 -22 45 -25 0 -3 -7 -3 -15 0 -24 10 -17 -10 15 -41 30 -29
33 -27 33 17 0 10 3 15 8 13 8 -6 5 -38 -7 -56 -3 -6 -2 -14 3 -18 5 -3 28
-31 52 -63 33 -44 47 -56 66 -53 14 1 22 -2 19 -7 -3 -5 -12 -7 -20 -4 -19 7
-18 -1 8 -37 40 -57 47 -62 64 -41 14 18 14 18 7 0 -4 -13 -3 -17 5 -12 17 10
14 -5 -4 -29 -16 -20 -16 -20 -9 2 5 18 3 22 -10 17 -14 -6 -14 -8 0 -28 8
-11 30 -51 47 -88 18 -37 42 -72 53 -78 13 -7 14 -9 3 -6 -15 4 -16 2 -6 -19
6 -13 14 -22 18 -20 4 2 7 -2 7 -10 0 -8 -3 -12 -7 -10 -7 5 35 -119 48 -139
9 -14 14 -36 13 -61 0 -10 4 -24 10 -31 5 -6 11 -38 14 -70 3 -33 8 -75 11
-94 3 -19 4 -35 2 -36 -1 0 2 -7 8 -15 6 -8 10 -27 8 -44 -1 -16 -3 -72 -4
-124 -2 -51 -6 -109 -10 -130 -8 -33 -21 -148 -24 -198 0 -11 -4 -19 -8 -16
-5 2 -8 -3 -8 -12 0 -10 5 -13 13 -9 8 5 8 2 -2 -9 -7 -9 -10 -17 -5 -17 5 0
4 -4 -2 -8 -15 -10 -27 -62 -14 -62 5 0 10 -8 10 -17 0 -15 -2 -16 -10 -3 -9
13 -11 13 -19 0 -7 -10 -6 -17 2 -22 9 -6 9 -8 0 -8 -14 0 -35 -68 -26 -84 3
-6 2 -8 -2 -3 -5 4 -14 -5 -21 -20 -10 -24 -8 -31 10 -53 l21 -25 -22 18 c-21
19 -21 19 -58 -59 -20 -42 -48 -94 -61 -115 -13 -20 -26 -49 -30 -63 -3 -14
-9 -26 -13 -26 -6 0 -79 -91 -96 -120 -7 -12 -6 -13 6 -3 13 10 16 10 16 -1 0
-8 -7 -13 -16 -12 -8 2 -57 -39 -108 -91 -51 -51 -98 -93 -103 -93 -6 0 -9
-10 -7 -22 2 -13 2 -17 0 -11 -5 15 -20 17 -25 5 -1 -5 -25 -24 -52 -43 -47
-33 -60 -54 -33 -54 6 0 11 5 10 11 -1 6 5 11 13 11 12 0 11 -3 -2 -18 -15
-17 -58 -23 -48 -7 7 12 -10 10 -22 -2 -6 -6 -26 -19 -45 -30 -19 -10 -33 -23
-32 -29 2 -6 -4 -8 -12 -5 -8 4 -15 1 -15 -6 0 -6 -4 -8 -10 -5 -5 3 -10 3
-10 -2 0 -4 -15 -14 -32 -21 -63 -26 -77 -35 -71 -45 3 -6 1 -7 -5 -3 -6 4
-44 -6 -84 -23 -40 -16 -83 -32 -96 -36 -12 -4 -20 -10 -17 -15 3 -5 0 -12 -6
-16 -8 -4 -9 -3 -5 4 5 8 -2 12 -19 12 -15 0 -24 -4 -20 -10 3 -5 1 -18 -5
-27 -9 -15 -10 -14 -4 6 6 22 4 23 -22 17 -86 -21 -191 -38 -289 -46 -141 -11
-151 -12 -265 -4 -52 4 -103 7 -112 7 -10 1 -18 5 -18 10 0 5 -12 8 -27 6 -16
-1 -35 1 -43 4 -8 3 -51 14 -95 25 -44 12 -89 24 -99 28 -15 6 -17 4 -11 -7 5
-8 0 -7 -12 4 -11 9 -60 33 -109 53 -49 20 -93 40 -99 44 -24 19 -116 69 -110
60 3 -6 0 -7 -9 -4 -9 3 -14 11 -13 16 1 6 -4 13 -12 16 -8 2 -11 0 -8 -5 3
-5 2 -15 -4 -23 -6 -12 -9 -9 -9 11 0 29 -53 74 -73 63 -6 -4 -9 -4 -5 1 4 4
-6 18 -21 31 -28 24 -47 32 -37 16 2 -4 -5 -9 -16 -9 -20 -2 -20 -1 -2 12 18
13 16 16 -26 52 -24 21 -46 37 -49 35 -3 -2 -8 5 -12 15 -3 10 -12 18 -20 18
-8 1 -13 7 -11 14 1 7 -2 10 -8 6 -5 -3 -10 1 -10 10 0 9 -4 14 -9 11 -5 -3
-11 4 -14 15 -4 13 -10 18 -18 13 -7 -4 -10 -3 -7 2 4 5 -10 27 -29 49 -19 22
-32 34 -28 28 3 -7 4 -13 0 -13 -3 0 -9 10 -14 23 -15 38 -138 219 -143 210
-3 -4 -3 -2 -2 4 3 11 -35 98 -66 155 -6 10 -10 25 -10 33 0 9 -6 18 -14 21
-8 3 -12 12 -9 20 3 8 0 14 -6 14 -6 0 -8 8 -4 18 6 15 3 14 -17 -3 l-24 -20
16 23 c14 21 14 30 -6 105 -11 45 -23 84 -26 87 -5 5 -7 17 -12 73 -3 30 -8
33 -27 15 -7 -7 -5 1 5 18 16 28 16 38 3 120 -13 86 -12 211 6 374 10 101 44
252 74 329 11 30 18 57 16 60 -3 2 -5 -2 -5 -9 0 -7 -3 -10 -7 -7 -3 4 2 16
13 28 10 11 28 44 40 72 20 47 21 52 5 64 -14 11 -14 11 4 7 16 -4 25 4 42 38
12 24 32 59 44 78 21 32 21 34 3 20 -11 -8 -8 -3 6 11 28 27 37 64 13 55 -8
-3 -11 -2 -8 3 3 6 14 9 25 8 14 -1 16 -4 8 -14 -6 -7 -8 -13 -5 -13 3 0 21
22 41 50 19 27 67 85 105 128 39 44 67 83 63 87 -4 5 -2 5 5 1 6 -3 23 5 37
19 26 26 34 41 17 31 -12 -8 -7 22 6 35 7 7 12 6 16 -5 4 -11 1 -13 -11 -9
-13 5 -14 3 -6 -6 9 -10 34 4 112 63 55 42 105 76 111 76 6 0 11 4 11 9 0 5
14 14 30 21 17 7 30 17 30 22 0 5 4 7 9 3 15 -9 24 14 11 30 -8 10 -8 15 2 21
7 4 10 4 6 -1 -9 -9 9 -35 23 -35 14 0 11 38 -3 43 -10 4 -10 6 0 6 7 1 15 -6
18 -14 5 -13 9 -13 22 -3 12 10 14 10 8 1 -5 -9 -2 -11 8 -7 9 3 13 11 9 17
-3 5 -1 7 4 4 6 -4 27 0 47 8 36 15 45 39 21 58 -6 5 -3 7 7 4 9 -3 19 -1 22
6 3 7 3 0 1 -15 -2 -16 -1 -28 3 -28 16 0 82 27 78 31 -3 3 3 5 12 6 50 5 151
36 145 46 -4 7 0 8 11 4 26 -10 127 4 119 16 -3 6 -1 7 5 3 7 -4 20 -2 29 3
23 13 26 13 17 -1z m-298 -36 c-11 -10 -43 -8 -43 3 0 8 4 12 8 9 4 -2 11 1
15 7 4 8 9 7 15 -2 4 -7 7 -15 5 -17z m1073 -3 c-8 -4 -14 -13 -14 -19 0 -5
-3 -10 -7 -10 -5 0 -12 0 -18 0 -5 0 -10 5 -10 11 0 5 4 7 10 4 5 -3 15 3 22
14 6 11 16 17 21 14 5 -3 3 -9 -4 -14z m-102 5 c-3 -3 -12 -4 -19 -1 -8 3 -5
6 6 6 11 1 17 -2 13 -5z m130 -36 c-3 -8 -6 -5 -6 6 -1 11 2 17 5 13 3 -3 4
-12 1 -19z m-1470 -120 c-3 -8 -6 -5 -6 6 -1 11 2 17 5 13 3 -3 4 -12 1 -19z
m1758 3 c3 -6 -3 -9 -14 -8 -11 0 -17 5 -15 9 7 11 22 10 29 -1z m84 -75 c-3
-3 -11 5 -18 17 -13 21 -12 21 5 5 10 -10 16 -20 13 -22z m-44 14 c-3 -5 -1
-10 6 -10 7 0 10 -3 6 -6 -9 -9 -28 6 -22 17 4 5 8 9 11 9 3 0 2 -4 -1 -10z
m-1880 -22 c-25 -15 -47 -19 -39 -7 3 5 9 7 14 4 5 -3 11 -1 15 5 3 5 12 10
18 10 7 0 3 -6 -8 -12z m-88 -41 c6 2 15 -1 19 -8 5 -8 3 -9 -6 -4 -7 4 -15 3
-19 -2 -3 -6 -14 -2 -26 10 l-20 20 20 -10 c11 -6 25 -8 32 -6z m-54 -34 c-3
-7 -13 -13 -22 -13 -14 1 -14 2 1 11 10 5 15 17 12 27 -5 13 -4 14 4 3 6 -8 8
-20 5 -28z m32 -13 c-3 -5 -12 -10 -18 -10 -7 0 -6 4 3 10 19 12 23 12 15 0z
m2223 -25 c-3 -3 -9 2 -12 12 -6 14 -5 15 5 6 7 -7 10 -15 7 -18z m-33 5 c3
-5 1 -10 -4 -10 -6 0 -11 5 -11 10 0 6 2 10 4 10 3 0 8 -4 11 -10z m-2320 -50
c-3 -5 -12 -10 -18 -10 -7 0 -6 4 3 10 19 12 23 12 15 0z m-30 -19 c3 -5 2
-12 -3 -15 -5 -3 -9 1 -9 9 0 17 3 19 12 6z m2470 -31 c3 -6 -1 -7 -9 -4 -18
7 -21 14 -7 14 6 0 13 -4 16 -10z m-2505 -34 c0 -3 -4 -8 -10 -11 -5 -3 -10
-1 -10 4 0 6 5 11 10 11 6 0 10 -2 10 -4z m2553 -51 c-3 -9 -8 -14 -10 -11 -3
3 -2 9 2 15 9 16 15 13 8 -4z m-2588 -13 c-3 -3 -11 0 -18 7 -9 10 -8 11 6 5
10 -3 15 -9 12 -12z m-63 -1 c-7 -4 -14 -17 -15 -29 0 -11 -5 -18 -9 -16 -5 3
-7 8 -5 12 2 4 7 15 10 25 4 9 12 17 19 17 10 0 10 -2 0 -9z m38 -5 c0 -3 -4
-8 -10 -11 -5 -3 -10 -1 -10 4 0 6 5 11 10 11 6 0 10 -2 10 -4z m2697 -48 c-3
-8 -6 -5 -6 6 -1 11 2 17 5 13 3 -3 4 -12 1 -19z m-2712 2 c-3 -5 -12 -10 -18
-10 -7 0 -6 4 3 10 19 12 23 12 15 0z m-90 -40 c-3 -5 2 -10 11 -10 10 0 15
-3 11 -6 -10 -10 -39 5 -32 16 3 5 8 10 11 10 3 0 2 -4 -1 -10z m-64 -153
c-10 -9 -11 -8 -5 6 3 10 9 15 12 12 3 -3 0 -11 -7 -18z m-40 -74 c13 -16 12
-17 -3 -4 -10 7 -18 15 -18 17 0 8 8 3 21 -13z m-38 -49 c-4 -12 -8 -13 -14
-3 -9 15 -2 32 11 24 5 -3 6 -13 3 -21z m-67 -209 c-1 -8 -8 -21 -16 -28 -10
-10 -11 -9 -4 3 5 8 9 18 10 23 3 14 4 17 8 17 2 0 3 -7 2 -15z m3241 -27 c-3
-7 -5 -2 -5 12 0 14 2 19 5 13 2 -7 2 -19 0 -25z m21 -11 c-1 -2 4 -12 12 -22
14 -17 14 -17 -8 -4 -12 8 -18 15 -12 17 6 2 7 9 3 15 -3 7 -3 9 1 5 4 -3 6
-8 4 -11z m24 -84 c-6 -2 -9 -10 -6 -15 4 -7 2 -8 -5 -4 -13 9 -5 26 12 25 9
0 8 -2 -1 -6z m-3307 -23 c-3 -5 -12 -10 -18 -10 -7 0 -6 4 3 10 19 12 23 12
15 0z m3333 -55 c-3 -3 -9 2 -12 12 -6 14 -5 15 5 6 7 -7 10 -15 7 -18z
m-3368 -55 c0 -5 -5 -10 -11 -10 -5 0 -7 5 -4 10 3 6 8 10 11 10 2 0 4 -4 4
-10z m-43 -142 c-3 -8 -6 -5 -6 6 -1 11 2 17 5 13 3 -3 4 -12 1 -19z m3410
-430 c-3 -8 -6 -5 -6 6 -1 11 2 17 5 13 3 -3 4 -12 1 -19z m-3351 -43 c1 -9
-4 -11 -14 -7 -10 4 -12 7 -4 10 7 2 9 9 5 15 -3 7 -2 8 2 4 5 -4 10 -14 11
-22z m3364 -41 c0 -8 -19 -13 -24 -6 -3 5 1 9 9 9 8 0 15 -2 15 -3z m-3330
-98 c0 -3 -4 -8 -10 -11 -5 -3 -10 -1 -10 4 0 6 5 11 10 11 6 0 10 -2 10 -4z
m3267 -56 c-2 -29 -14 -25 -14 5 0 13 3 22 8 20 4 -3 7 -14 6 -25z m-103 -235
c-4 -8 -8 -15 -10 -15 -2 0 -4 7 -4 15 0 8 4 15 10 15 5 0 7 -7 4 -15z m-80
-120 c-4 -8 -11 -15 -16 -15 -6 0 -5 6 2 15 7 8 14 15 16 15 2 0 1 -7 -2 -15z
m-2889 -5 c-3 -5 -12 -10 -18 -10 -7 0 -6 4 3 10 19 12 23 12 15 0z m2841
-113 c1 -9 -5 -22 -14 -29 -14 -10 -15 -10 -5 2 10 11 10 17 -3 31 -14 16 -14
17 2 15 9 -2 18 -10 20 -19z m-2745 -54 c13 -16 12 -17 -3 -4 -10 7 -18 15
-18 17 0 8 8 3 21 -13z m50 -60 c13 -16 12 -17 -3 -4 -10 7 -18 15 -18 17 0 8
8 3 21 -13z m2579 -33 c0 -5 -2 -10 -4 -10 -3 0 -8 5 -11 10 -3 6 -1 10 4 10
6 0 11 -4 11 -10z m-2520 -24 c8 -11 10 -17 3 -13 -7 4 -16 0 -22 -10 -9 -15
-10 -14 -7 7 3 14 5 29 5 34 1 5 2 7 4 5 1 -2 9 -13 17 -23z m2470 9 c-7 -8
-18 -15 -24 -15 -6 0 -2 7 8 15 25 19 32 19 16 0z m20 -19 c0 -2 -7 -7 -16
-10 -8 -3 -12 -2 -9 4 6 10 25 14 25 6z m-2363 -125 c0 -11 -5 -18 -9 -15 -4
3 -5 11 -1 19 7 21 12 19 10 -4z m48 -41 c2 -4 -7 -6 -21 -4 -35 3 -41 12 -9
12 14 0 27 -4 30 -8z m36 -17 c13 -16 12 -17 -3 -4 -17 13 -22 21 -14 21 2 0
10 -8 17 -17z m68 -47 c0 -7 -2 -6 -6 2 -2 6 -8 10 -12 8 -4 -3 -8 1 -8 9 0
11 4 12 14 4 7 -6 13 -17 12 -23z m88 -71 c0 -8 -4 -12 -9 -9 -5 3 -6 10 -3
15 9 13 12 11 12 -6z m1670 -21 c-3 -3 -12 -4 -19 -1 -8 3 -5 6 6 6 11 1 17
-2 13 -5z m-1627 -10 c0 -8 -19 -13 -24 -6 -3 5 1 9 9 9 8 0 15 -2 15 -3z
m1480 -39 c0 -2 -10 -9 -22 -15 -22 -11 -22 -10 -4 4 21 17 26 19 26 11z
m-1300 -15 c-12 -8 -12 -10 -1 -10 8 0 12 -3 8 -6 -9 -9 -28 6 -22 17 4 5 12
9 18 9 7 0 6 -4 -3 -10z m-26 -18 c3 -5 -1 -9 -9 -9 -8 0 -12 4 -9 9 3 4 7 8
9 8 2 0 6 -4 9 -8z m1312 -11 c0 -16 -3 -17 -14 -9 -12 10 -7 19 13 28 1 0 1
-9 1 -19z m-1136 -51 c7 -13 7 -21 -2 -26 -7 -4 -10 -3 -5 1 4 5 0 19 -9 33
-9 13 -11 21 -5 18 6 -4 15 -16 21 -26z m48 -5 c-3 -3 -9 2 -12 12 -6 14 -5
15 5 6 7 -7 10 -15 7 -18z m916 -13 c3 -5 -1 -9 -9 -9 -8 0 -12 4 -9 9 3 4 7
8 9 8 2 0 6 -4 9 -8z m-87 -8 c-3 -3 -12 -4 -19 -1 -8 3 -5 6 6 6 11 1 17 -2
13 -5z"/>
<path d="M2260 4019 c-14 -6 -41 -12 -60 -14 -40 -3 -59 -8 -147 -31 -36 -10
-60 -21 -56 -27 3 -6 1 -7 -4 -4 -6 4 -34 0 -63 -9 -41 -12 -50 -18 -39 -26
10 -7 6 -8 -14 -3 -21 4 -27 3 -21 -6 4 -8 3 -9 -5 -5 -16 10 -141 -51 -137
-67 1 -6 1 -9 -1 -4 -9 15 -25 6 -18 -10 5 -14 3 -15 -6 -6 -13 13 -42 6 -33
-8 3 -5 -1 -6 -9 -4 -18 8 -100 -53 -91 -67 4 -6 3 -8 -4 -4 -12 7 -88 -41
-85 -55 2 -5 -3 -8 -10 -6 -6 1 -11 -3 -10 -9 1 -7 -5 -11 -15 -10 -15 1 -17
-15 -20 -156 -1 -90 1 -158 7 -158 16 0 31 26 26 49 -2 12 0 19 6 16 5 -4 7
-10 4 -15 -3 -5 -1 -11 5 -15 5 -3 10 -1 10 4 0 6 6 11 14 11 8 0 24 12 35 26
12 15 21 23 21 18 0 -5 5 -1 11 9 5 9 7 23 3 30 -5 8 -2 7 9 -2 16 -12 22 -8
18 12 -1 5 3 6 9 2 5 -3 13 1 16 9 3 9 13 16 20 16 8 0 17 7 20 15 4 8 13 15
20 15 8 0 17 6 20 14 3 8 11 13 17 10 9 -3 11 -58 9 -202 -3 -186 -2 -200 19
-244 12 -27 26 -48 31 -48 5 0 7 4 4 9 -3 4 16 4 42 -1 26 -6 55 -10 64 -10
10 1 21 -4 24 -10 5 -7 2 -8 -7 -3 -12 8 -12 6 0 -8 7 -9 17 -14 23 -11 5 3 2
-11 -7 -32 -8 -20 -13 -39 -10 -42 3 -3 5 -1 5 5 0 10 36 26 53 24 4 -1 7 4 7
9 0 13 77 13 85 -1 4 -6 13 -8 20 -5 9 3 13 -8 12 -43 0 -48 28 -140 47 -153
7 -5 3 -8 -8 -8 -15 0 -17 -5 -12 -26 5 -17 3 -23 -4 -19 -6 4 -10 -6 -10 -24
0 -16 -3 -37 -7 -47 -4 -11 -3 -15 4 -11 7 5 9 0 6 -11 -10 -38 13 -42 277
-39 l253 2 16 32 c9 18 18 33 21 33 3 0 18 -19 33 -42 23 -36 27 -53 27 -114
0 -64 3 -75 22 -88 12 -9 35 -16 50 -16 34 0 37 -4 59 -107 11 -51 33 -112 54
-151 20 -35 34 -66 32 -68 -2 -2 -16 7 -30 20 -14 13 -28 21 -31 18 -3 -3 -6
0 -6 7 0 7 -5 9 -12 5 -6 -4 -8 -3 -5 3 3 5 -32 45 -80 89 -79 74 -126 109
-96 72 11 -12 9 -14 -7 -13 -11 1 -23 5 -27 10 -5 4 -3 5 3 2 7 -4 15 0 18 9
9 23 8 27 -10 20 -8 -3 -12 -2 -9 4 3 6 -1 13 -9 16 -9 3 -13 10 -10 15 3 5
-2 9 -10 9 -9 0 -16 5 -16 11 0 5 -4 7 -10 4 -5 -3 -10 0 -10 8 0 8 -11 22
-25 31 -20 13 -55 16 -205 16 l-180 0 6 -27 c4 -16 10 -30 13 -33 4 -3 7 -30
8 -60 2 -80 2 -80 19 -80 8 0 12 -4 9 -10 -3 -5 -2 -10 3 -10 5 0 26 -17 47
-37 21 -21 35 -32 30 -24 -5 10 -4 12 4 7 6 -4 9 -11 6 -16 -7 -12 45 -51 58
-43 6 3 7 1 3 -6 -4 -6 -12 -8 -18 -5 -7 5 -8 2 -4 -5 5 -7 14 -10 22 -7 9 3
11 0 7 -11 -4 -10 -2 -14 4 -10 6 4 10 -1 9 -11 -1 -12 6 -17 21 -16 18 0 20
-2 12 -13 -16 -19 1 -16 25 5 21 17 21 17 3 -5 -12 -14 -16 -27 -10 -36 13
-23 72 -87 79 -87 4 0 -1 10 -12 22 -10 12 -13 18 -6 14 7 -4 21 -2 30 6 15
11 15 11 6 -2 -13 -16 -14 -60 -1 -60 7 0 29 -16 47 -35 24 -25 61 -75 57 -75
-3 0 6 -13 21 -28 15 -15 30 -26 35 -24 8 3 9 0 11 -38 1 -32 -31 -39 -156
-33 -150 7 -198 7 -291 2 -61 -3 -91 -1 -98 7 -7 8 -6 15 2 20 8 4 9 3 5 -4
-4 -7 -2 -12 4 -12 13 0 12 440 -1 461 -9 15 -10 15 -14 -51 -5 -66 -8 -80
-16 -75 -3 3 -13 -3 -20 -12 -12 -14 -11 -15 11 -8 14 4 22 4 18 0 -4 -4 -21
-9 -38 -11 -41 -5 -53 -13 -45 -31 4 -12 2 -13 -8 -5 -17 14 -69 -7 -63 -25 3
-7 -3 -10 -15 -8 -27 5 -95 -20 -91 -35 1 -6 -2 -9 -7 -6 -5 4 -15 1 -23 -6
-7 -7 -29 -14 -48 -16 -19 -1 -36 -6 -38 -11 -1 -4 -14 -6 -29 -3 -26 5 -26 4
-18 -39 4 -24 9 -117 10 -206 l3 -161 -22 11 c-12 7 -40 27 -63 44 -43 35 -59
42 -47 21 5 -9 2 -9 -9 1 -20 16 -23 26 -4 15 8 -5 7 -2 -2 10 -8 9 -21 14
-30 11 -8 -3 -12 -3 -8 1 8 9 -53 55 -64 49 -4 -3 -11 0 -15 6 -5 8 -2 10 7 5
8 -4 5 0 -6 9 -20 16 -20 14 -23 -116 -2 -92 1 -135 9 -140 6 -4 9 -12 5 -17
-6 -11 32 -38 47 -34 4 1 7 -3 7 -10 0 -6 3 -8 7 -5 3 4 13 -2 20 -13 8 -11
19 -18 24 -15 5 4 9 2 9 -2 0 -14 109 -75 122 -67 7 4 8 3 4 -4 -4 -7 -2 -12
4 -12 7 0 25 -9 41 -21 16 -11 37 -18 45 -15 8 3 12 1 9 -4 -7 -11 70 -46 98
-44 9 1 17 -2 17 -7 0 -12 55 -39 77 -39 15 0 14 4 -7 21 -17 14 -19 17 -5 10
11 -5 28 -19 37 -30 21 -24 40 -28 32 -6 -4 8 -1 15 5 15 6 0 10 -3 10 -7 -4
-24 6 -33 49 -43 65 -16 101 -22 140 -24 17 0 32 -5 32 -10 0 -4 12 -6 27 -3
15 3 38 1 52 -5 38 -14 189 -17 195 -4 3 7 5 7 5 -1 1 -16 118 -6 140 11 11 8
13 8 8 -1 -4 -7 -1 -10 10 -8 10 2 47 9 83 15 36 6 74 15 85 19 11 5 41 15 67
21 28 7 45 17 41 23 -3 6 -1 7 5 3 7 -4 53 12 102 36 71 33 90 47 87 60 -6 22
18 44 29 27 4 -7 3 -9 -4 -5 -6 3 -13 2 -16 -3 -4 -5 -2 -12 3 -16 13 -7 92
45 85 56 -3 5 2 6 10 3 17 -7 91 51 199 155 59 57 87 94 57 76 -5 -3 -10 -2
-10 3 0 6 7 13 16 16 8 3 12 2 9 -4 -3 -6 -2 -10 2 -10 11 0 36 41 29 48 -3 3
-6 0 -6 -7 0 -7 -5 -9 -11 -5 -14 8 8 24 25 18 19 -7 212 289 200 307 -3 5 -1
9 4 9 9 0 17 21 23 55 1 6 10 21 20 34 10 12 21 39 25 60 4 20 11 41 15 47 15
19 50 134 44 144 -4 6 -2 10 3 10 9 0 11 8 14 60 1 16 4 28 7 25 3 -3 11 20
17 52 16 73 28 366 15 338 -8 -17 -10 -17 -10 -3 -1 9 4 20 10 24 8 5 9 28 5
73 -4 36 -8 73 -8 81 0 8 -6 47 -14 87 -8 40 -14 75 -14 78 0 3 -3 4 -7 2 -5
-3 -8 11 -9 31 -1 44 -50 172 -72 190 -12 9 -13 12 -2 12 11 0 11 3 2 12 -8 8
-15 8 -29 -3 -17 -13 -17 -13 0 7 17 20 16 23 -11 75 -39 75 -76 132 -96 148
-9 7 -16 18 -16 23 0 19 -102 128 -113 121 -6 -4 -7 -1 -3 6 5 8 0 14 -13 18
-11 3 -18 10 -15 15 4 6 -2 8 -15 3 -12 -4 -21 -2 -21 4 0 6 5 11 12 11 7 0 2
8 -11 18 -13 9 -31 25 -39 35 -9 9 -20 17 -25 17 -4 0 -18 9 -30 20 -12 11
-28 18 -36 15 -9 -3 -12 -3 -8 1 4 4 2 13 -4 21 -13 15 -33 18 -24 4 3 -5 1
-12 -5 -16 -6 -4 -7 -11 -4 -17 4 -7 2 -8 -5 -4 -7 5 -9 12 -3 19 15 22 7 37
-33 61 -29 18 -42 21 -47 13 -5 -8 -8 -6 -8 5 0 19 -30 33 -79 37 -8 0 -11 4
-8 8 9 8 -64 43 -76 36 -5 -3 -16 1 -25 9 -9 8 -51 25 -92 37 -41 12 -88 27
-104 32 -16 5 -36 9 -45 9 -14 0 -14 -2 -1 -11 12 -9 12 -10 -3 -5 -10 3 -26
6 -35 7 -13 0 -13 2 3 8 18 7 16 9 -12 15 -18 4 -42 5 -53 1 -12 -4 -20 -2
-20 6 0 8 -5 8 -17 -2 -9 -8 -14 -9 -10 -3 4 7 1 14 -7 17 -26 10 -421 6 -446
-4z m-40 -51 c0 -12 -6 -9 -26 13 -19 22 -19 22 4 8 12 -8 22 -17 22 -21z
m-240 -58 c0 -5 -2 -10 -4 -10 -3 0 -8 5 -11 10 -3 6 -1 10 4 10 6 0 11 -4 11
-10z m1115 -10 c-3 -5 -11 -10 -16 -10 -6 0 -7 5 -4 10 3 6 11 10 16 10 6 0 7
-4 4 -10z m-408 -54 c-6 -16 22 -29 98 -45 90 -19 109 -20 124 -8 10 8 13 8 8
1 -9 -15 17 -25 32 -13 6 5 9 6 6 2 -3 -3 2 -14 11 -24 14 -16 14 -21 -3 -58
-11 -23 -22 -38 -26 -35 -7 7 -11 -12 -7 -31 1 -5 -2 -7 -6 -2 -4 4 -23 -7
-41 -25 -33 -32 -45 -56 -20 -42 7 4 9 3 4 -2 -5 -5 -14 -9 -20 -9 -7 -1 -11
-7 -9 -14 1 -7 -2 -10 -7 -7 -12 8 -42 -34 -34 -47 3 -6 1 -7 -4 -4 -11 7 -46
-39 -46 -60 0 -7 -4 -10 -8 -7 -5 2 -15 -8 -23 -23 -9 -15 -38 -52 -65 -82
-27 -30 -47 -60 -44 -65 3 -6 2 -8 -2 -3 -9 7 -55 -30 -55 -45 0 -4 8 -8 17
-8 22 0 12 -9 -14 -13 -24 -3 -45 -23 -65 -61 l-14 -28 -40 54 c-22 29 -78
110 -125 180 l-84 128 -3 -39 c-3 -32 5 -50 44 -107 26 -38 65 -103 87 -144
21 -41 48 -85 59 -97 19 -21 18 -43 -3 -43 -21 0 -81 -78 -72 -93 3 -5 1 -7
-5 -4 -5 4 -22 -7 -36 -24 -20 -23 -24 -35 -16 -44 9 -11 7 -12 -8 -8 -13 3
-26 -4 -41 -22 -11 -15 -19 -30 -17 -34 3 -4 -4 -8 -15 -8 -16 -2 -19 5 -19
46 0 25 -2 103 -4 171 -14 390 -18 788 -9 793 6 4 44 11 84 17 40 6 76 14 79
18 3 4 25 7 50 7 25 0 78 3 118 7 48 5 88 4 119 -5 41 -11 47 -10 57 6 13 21
20 22 13 3z m547 -22 c3 -8 2 -12 -4 -9 -6 3 -10 10 -10 16 0 14 7 11 14 -7z
m276 -179 c0 -12 -20 6 -31 28 l-11 22 21 -22 c11 -12 21 -25 21 -28z m-394
-62 c22 -17 57 -42 79 -56 22 -14 55 -40 74 -56 38 -35 43 -36 71 -19 16 10
24 10 41 0 17 -11 24 -11 33 -1 8 9 6 10 -9 5 -16 -6 -17 -5 -8 5 10 10 15 9
28 -1 8 -7 15 -18 15 -24 0 -6 -4 -5 -9 3 -5 8 -11 9 -15 3 -3 -5 10 -26 30
-46 20 -20 33 -29 30 -20 -3 8 -6 22 -6 30 0 9 -4 13 -9 10 -5 -4 -7 3 -4 14
8 30 -6 108 -22 124 -13 12 -12 15 1 20 14 6 34 -28 34 -59 0 -8 5 -17 10 -20
6 -3 10 -16 10 -28 0 -12 15 -41 33 -63 43 -56 144 -137 160 -128 7 4 9 4 5 0
-3 -4 8 -21 24 -38 52 -54 68 -101 68 -213 0 -111 19 -191 43 -189 9 1 13 -4
10 -12 -4 -11 -9 -12 -19 -3 -28 23 -13 -6 22 -42 33 -34 35 -38 22 -60 -7
-13 -17 -27 -22 -30 -4 -4 -3 -16 3 -27 6 -12 11 -45 10 -74 -1 -29 -1 -98 0
-154 2 -146 -34 -292 -110 -448 -30 -61 -36 -82 -28 -93 9 -11 8 -12 -4 -7
-11 4 -21 -4 -32 -25 -8 -17 -16 -34 -16 -38 0 -5 -9 -17 -20 -29 -10 -11 -16
-24 -12 -27 3 -4 0 -7 -7 -7 -7 0 -11 -3 -8 -6 3 -3 -7 -19 -23 -37 -16 -17
-27 -32 -25 -34 3 -4 -17 -28 -81 -95 -19 -21 -34 -27 -58 -25 -18 1 -31 6
-27 11 3 5 -2 6 -12 3 -11 -4 -15 -3 -10 4 8 14 -86 110 -99 102 -6 -3 -7 -2
-4 4 3 5 -24 38 -61 74 -63 61 -67 63 -70 39 -2 -14 -7 -27 -11 -30 -14 -10
-39 -90 -30 -96 5 -3 9 -11 9 -17 0 -7 -4 -6 -10 3 -11 17 -11 16 -15 -20 -2
-14 4 -31 13 -37 9 -8 11 -13 4 -13 -7 0 -12 -5 -12 -11 0 -5 5 -7 12 -3 7 4
8 3 4 -4 -4 -6 -12 -9 -19 -7 -28 10 -74 -65 -61 -100 4 -8 1 -15 -5 -15 -20
0 -11 -37 19 -79 17 -23 34 -40 38 -37 4 2 8 -5 8 -16 0 -11 -14 -30 -31 -43
-30 -22 -143 -68 -200 -81 -16 -4 -39 -12 -50 -18 -23 -12 -505 -19 -505 -7 0
5 -17 15 -37 23 l-38 14 2 100 c3 104 10 144 24 144 5 0 9 5 9 11 0 5 -5 7
-12 3 -7 -4 -8 -3 -4 5 6 9 11 9 22 0 11 -9 24 -9 52 -1 20 6 73 9 117 7 44
-1 125 1 180 6 55 4 122 9 148 10 34 2 46 6 43 15 -3 9 1 11 11 7 12 -5 14 -3
8 7 -5 9 -4 11 4 6 6 -4 9 -12 5 -17 -8 -13 45 0 72 18 12 7 28 28 37 46 60
127 57 111 55 280 -2 86 -2 157 0 157 2 0 21 -18 43 -40 22 -22 56 -47 75 -55
20 -8 56 -33 82 -56 26 -22 83 -58 127 -80 73 -35 84 -38 118 -28 21 6 52 7
68 4 16 -4 29 -3 29 2 -1 14 -30 48 -30 34 0 -7 -5 -9 -11 -6 -5 4 -8 12 -6
18 2 6 -2 23 -9 37 -9 16 -10 28 -4 34 6 6 10 30 10 54 0 31 3 41 13 36 6 -3
1 4 -13 17 -14 13 -47 51 -75 84 -27 33 -119 131 -204 217 -119 122 -163 161
-193 170 -56 16 -68 35 -39 59 39 32 103 22 220 -32 44 -21 253 -174 259 -191
5 -12 58 -38 77 -38 26 0 -9 69 -58 115 -241 224 -469 327 -622 280 -76 -23
-87 -20 -117 29 -33 51 -33 53 -10 79 10 12 11 17 3 12 -10 -5 -12 -4 -7 3 4
7 12 12 17 12 18 0 41 29 33 41 -4 7 -3 9 3 6 14 -9 37 19 27 34 -5 8 -3 9 6
4 21 -13 31 17 12 40 -17 20 -17 20 4 2 21 -18 22 -18 45 15 13 18 31 40 41
50 14 12 16 17 6 21 -9 4 -8 6 3 6 8 1 26 12 38 25 22 23 22 25 4 35 -16 10
-15 11 7 7 20 -4 32 4 58 34 31 36 32 41 19 60 -7 11 -17 17 -20 13 -4 -3 -7
0 -7 9 0 20 -32 47 -98 83 -56 30 -102 78 -88 92 4 5 18 -4 30 -19 12 -16 25
-28 30 -28 4 0 14 -6 21 -14 8 -7 32 -16 55 -20 23 -4 56 -14 72 -22 17 -9 27
-11 24 -5 -4 6 -2 11 3 11 6 0 11 -6 11 -14 0 -8 7 -16 15 -20 9 -3 15 0 15 9
0 8 -4 15 -8 15 -5 0 -26 25 -47 55 -39 58 -63 81 -52 51 4 -11 3 -15 -4 -11
-6 4 -8 14 -5 22 4 9 -1 21 -10 28 -10 6 -18 29 -20 51 -2 21 -7 60 -12 86 -7
37 -6 50 4 59 8 6 12 14 9 18 -2 4 22 7 54 6 49 -1 66 -7 97 -32z m59 -3 c3
-5 1 -10 -4 -10 -6 0 -11 5 -11 10 0 6 2 10 4 10 3 0 8 -4 11 -10z m90 -60
c-3 -5 -12 -10 -18 -10 -7 0 -6 4 3 10 19 12 23 12 15 0z m-390 -30 c3 -6 -1
-7 -9 -4 -18 7 -21 14 -7 14 6 0 13 -4 16 -10z m640 -20 c3 -5 1 -10 -4 -10
-6 0 -11 5 -11 10 0 6 2 10 4 10 3 0 8 -4 11 -10z m-715 -14 c0 -2 -7 -7 -16
-10 -8 -3 -12 -2 -9 4 6 10 25 14 25 6z m950 -50 c-7 -7 -13 -7 -20 0 -6 6 -3
10 10 10 13 0 16 -4 10 -10z m-1040 -60 c0 -2 -7 -7 -16 -10 -8 -3 -12 -2 -9
4 6 10 25 14 25 6z m273 -26 c27 -32 20 -46 -8 -16 -14 15 -25 29 -25 32 0 10
17 2 33 -16z m742 0 c3 -5 1 -10 -4 -10 -6 0 -11 5 -11 10 0 6 2 10 4 10 3 0
8 -4 11 -10z m-730 -120 l20 -25 -22 19 c-13 11 -23 24 -23 29 0 6 1 8 3 6 1
-2 11 -15 22 -29z m-1250 -50 c-3 -5 -1 -10 5 -10 6 0 8 -4 5 -10 -4 -6 -11
-5 -19 3 -10 9 -11 14 -2 19 15 10 18 10 11 -2z m185 -80 c0 -5 -5 -10 -11
-10 -5 0 -7 5 -4 10 3 6 8 10 11 10 2 0 4 -4 4 -10z m437 -125 c0 -8 -4 -12
-9 -9 -5 3 -6 10 -3 15 9 13 12 11 12 -6z m1530 -207 c-3 -8 -6 -5 -6 6 -1 11
2 17 5 13 3 -3 4 -12 1 -19z m-1693 -316 c2 -4 0 -14 -6 -22 -8 -12 -9 -12 -5
2 3 9 1 19 -6 22 -9 3 -9 5 0 5 6 1 14 -3 17 -7z m566 -206 c0 -2 -7 -7 -16
-10 -8 -3 -12 -2 -9 4 6 10 25 14 25 6z m50 -71 c-5 -7 -9 -14 -7 -16 1 -2 0
-3 -2 -1 -11 7 -7 29 5 29 9 0 11 -4 4 -12z m996 -23 c-17 -16 -18 -16 -5 5 7
12 15 20 18 17 3 -2 -3 -12 -13 -22z m128 -8 c3 -8 2 -12 -4 -9 -6 3 -10 10
-10 16 0 14 7 11 14 -7z m-127 -36 c-3 -8 -6 -5 -6 6 -1 11 2 17 5 13 3 -3 4
-12 1 -19z m-917 -24 c0 -8 -5 -12 -10 -9 -6 4 -8 11 -5 16 9 14 15 11 15 -7z
m77 -106 c4 -28 -6 -18 -12 12 -2 12 -1 20 2 16 4 -4 8 -16 10 -28z m773 -12
c0 -2 -7 -9 -15 -16 -13 -11 -14 -10 -9 4 5 14 24 23 24 12z m-765 -36 c3 -5
1 -10 -4 -10 -6 0 -11 5 -11 10 0 6 2 10 4 10 3 0 8 -4 11 -10z m885 -8 c0
-13 -12 -22 -22 -16 -10 6 -1 24 13 24 5 0 9 -4 9 -8z m-1237 -29 c-3 -7 -6
-13 -8 -13 -2 0 -5 6 -8 13 -3 8 1 14 8 14 7 0 11 -6 8 -14z m-798 -42 c3 -5
2 -12 -3 -15 -5 -3 -9 1 -9 9 0 17 3 19 12 6z m1690 -51 c3 -5 1 -10 -4 -10
-6 0 -11 5 -11 10 0 6 2 10 4 10 3 0 8 -4 11 -10z m59 -118 c2 -4 -4 -8 -14
-8 -10 0 -16 4 -14 8 3 4 9 8 14 8 5 0 11 -4 14 -8z m127 -39 c13 -16 12 -17
-3 -4 -17 13 -22 21 -14 21 2 0 10 -8 17 -17z m-779 -35 c-7 -7 -12 -8 -12 -2
0 14 12 26 19 19 2 -3 -1 -11 -7 -17z m738 -30 c0 -4 -6 -8 -14 -8 -8 0 -17 4
-20 8 -2 4 4 8 15 8 10 0 19 -4 19 -8z m-2130 -23 c-5 -6 -8 -15 -5 -18 3 -4
2 -5 -2 -2 -13 10 -10 43 4 38 9 -4 10 -9 3 -18z m143 -102 c-7 -2 -21 -2 -30
0 -10 3 -4 5 12 5 17 0 24 -2 18 -5z m1877 -28 c0 -7 -30 -13 -34 -7 -3 4 4 9
15 9 10 1 19 0 19 -2z m-1982 -99 c-7 -7 -19 -11 -27 -8 -11 4 -10 7 5 13 29
12 36 10 22 -5z m66 -64 c3 -5 -1 -9 -9 -9 -8 0 -12 4 -9 9 3 4 7 8 9 8 2 0 6
-4 9 -8z m1696 -13 c0 -5 6 -7 13 -3 6 4 9 3 4 -1 -11 -12 -47 -13 -54 -2 -3
6 -1 7 5 3 7 -4 12 -2 12 3 0 6 5 11 10 11 6 0 10 -5 10 -11z m-400 -19 c0 -5
-2 -10 -4 -10 -3 0 -8 5 -11 10 -3 6 -1 10 4 10 6 0 11 -4 11 -10z m120 -140
c0 -5 -2 -10 -4 -10 -3 0 -8 5 -11 10 -3 6 -1 10 4 10 6 0 11 -4 11 -10z"/>
<path d="M3588 2723 c6 -2 18 -2 25 0 6 3 1 5 -13 5 -14 0 -19 -2 -12 -5z"/>
<path d="M3658 2723 c7 -3 16 -2 19 1 4 3 -2 6 -13 5 -11 0 -14 -3 -6 -6z"/>
<path d="M3550 2710 c8 -5 22 -9 30 -9 10 0 8 3 -5 9 -27 12 -43 12 -25 0z"/>
<path d="M3605 2690 c-3 -5 1 -10 9 -10 9 0 16 5 16 10 0 6 -4 10 -9 10 -6 0
-13 -4 -16 -10z"/>
<path d="M3648 2693 c7 -3 16 -2 19 1 4 3 -2 6 -13 5 -11 0 -14 -3 -6 -6z"/>
<path d="M3497 1864 c-8 -8 3 -34 15 -34 7 0 6 5 -1 13 -6 8 -8 17 -4 20 3 4
4 7 1 7 -2 0 -7 -3 -11 -6z"/>
<path d="M3060 1589 c-15 -28 -7 -34 14 -10 11 12 13 21 7 25 -5 4 -15 -3 -21
-15z"/>
<path d="M3687 3689 c7 -7 15 -10 18 -7 3 3 -2 9 -12 12 -14 6 -15 5 -6 -5z"/>
<path d="M1526 3105 c-8 -22 -8 -22 9 -22 17 0 18 6 6 25 -7 11 -10 10 -15 -3z"/>
<path d="M1389 3084 c-11 -13 -9 -14 15 -8 21 5 33 1 52 -17 13 -12 24 -28 24
-35 0 -13 -38 -40 -51 -37 -3 1 -6 -5 -6 -13 0 -22 16 -17 44 16 24 29 26 30
44 14 19 -17 18 -19 -23 -60 -32 -32 -48 -42 -63 -37 -17 5 -18 4 -8 -9 7 -8
9 -19 5 -23 -4 -5 -1 -5 6 -1 15 9 52 -20 52 -41 0 -7 4 -13 8 -13 5 0 17 -18
27 -40 13 -28 21 -37 27 -28 11 18 10 30 -2 23 -5 -3 -16 8 -25 26 -16 29 -16
32 4 53 22 24 26 36 12 36 -5 0 -11 -9 -14 -20 -7 -27 -31 -25 -50 4 -14 21
-14 26 -2 36 12 10 19 10 33 -1 15 -13 16 -12 3 4 -13 16 -10 22 27 60 31 31
46 39 55 32 50 -37 113 -75 126 -75 9 0 -3 9 -26 20 -24 10 -43 24 -43 30 0 6
-4 9 -9 6 -4 -3 -18 5 -30 17 l-21 23 29 28 c34 33 62 31 72 -4 l7 -25 1 27
c1 18 -6 31 -20 39 -18 9 -26 6 -56 -23 -33 -32 -35 -32 -49 -13 -13 18 -14
17 -8 -13 5 -24 3 -33 -10 -38 -20 -8 -49 15 -42 33 3 8 1 11 -4 8 -6 -4 -26
7 -46 24 -40 35 -47 37 -65 15z"/>
<path d="M1226 3007 c-17 -12 -18 -20 -8 -73 l11 -59 -4 51 c-3 46 -1 53 17
58 14 3 26 -1 34 -12 12 -16 13 -15 14 5 0 12 -9 27 -19 33 -25 13 -24 13 -45
-3z"/>
<path d="M1788 3009 c-10 -5 -18 -19 -18 -29 0 -24 9 -25 25 -3 7 9 19 14 27
10 13 -4 15 -19 13 -69 l-4 -63 11 69 c10 63 9 71 -8 83 -21 15 -24 16 -46 2z"/>
<path d="M1385 2950 c-3 -5 -2 -10 4 -10 5 0 13 5 16 10 3 6 2 10 -4 10 -5 0
-13 -4 -16 -10z"/>
<path d="M1588 2929 l32 -35 -19 -23 c-13 -15 -26 -21 -37 -17 -13 5 -14 3 -6
-7 7 -8 7 -18 2 -27 -15 -24 -11 -36 4 -14 14 18 15 18 44 -9 37 -36 76 -34
79 3 1 14 -1 18 -3 8 -8 -26 -36 -31 -64 -10 -39 29 -36 47 16 86 46 36 52 46
13 25 -24 -12 -53 6 -45 28 3 8 1 11 -5 8 -5 -4 -18 -1 -27 6 -9 7 -2 -3 16
-22z"/>
<path d="M1032 2911 c1 -15 -6 -47 -17 -70 -16 -37 -17 -48 -7 -87 18 -66 15
-134 -7 -170 -23 -38 -38 -100 -22 -90 6 4 11 2 11 -5 0 -10 3 -10 11 -2 8 8
8 17 0 31 -15 29 -14 34 17 67 15 16 26 33 25 37 -2 5 5 8 14 8 15 0 14 2 -3
15 -17 13 -17 14 -1 9 15 -6 17 -3 11 20 -6 26 10 38 19 14 3 -7 6 -2 6 11 1
17 5 21 16 17 9 -3 18 1 21 9 3 8 12 11 21 8 11 -4 14 -2 9 5 -10 16 5 14 28
-3 19 -15 19 -15 -2 -38 -13 -13 -20 -30 -17 -38 2 -8 1 -20 -4 -28 -8 -12
-14 -13 -36 -3 -35 16 -44 15 -20 -3 17 -14 18 -20 8 -57 -8 -29 -8 -48 -1
-61 7 -14 5 -23 -6 -36 -9 -10 -16 -22 -16 -28 0 -13 -38 -48 -45 -41 -3 3 4
13 15 23 11 10 20 28 19 39 0 16 -4 14 -15 -12 -8 -18 -19 -30 -24 -27 -16 10
-11 45 10 72 11 14 20 33 20 42 -1 9 -7 4 -17 -14 -8 -16 -27 -42 -41 -57 -17
-18 -25 -38 -24 -60 0 -22 -7 -39 -24 -55 -34 -31 -37 -29 -30 15 5 31 4 34
-5 18 -13 -21 -32 -183 -24 -204 4 -10 12 -9 34 7 16 12 32 21 35 21 6 0 46
-84 46 -97 0 -13 -36 -41 -56 -45 -25 -4 -28 -29 -9 -53 9 -11 13 -14 9 -6 -6
11 -3 13 12 7 31 -12 136 -48 182 -62 39 -12 43 -12 40 4 -5 31 12 42 63 42
46 0 51 -3 62 -29 l12 -29 80 25 c44 14 84 31 88 39 4 8 13 14 20 14 7 0 6 -4
-3 -10 -11 -7 -7 -10 17 -10 18 0 67 -11 110 -24 111 -35 116 -35 123 -6 5 22
12 25 54 28 54 4 80 -11 70 -40 -7 -22 4 -21 74 8 18 7 40 11 50 8 12 -4 13
-3 4 3 -9 7 -6 12 13 21 13 6 31 9 39 6 8 -3 17 -1 21 5 4 7 -1 8 -12 4 -12
-4 -15 -3 -8 5 6 5 19 12 30 14 42 7 20 70 -26 73 -31 2 -36 28 -13 71 22 40
21 40 54 14 14 -11 29 -20 33 -20 13 0 -1 162 -18 206 l-14 39 6 -42 c3 -24 3
-43 0 -43 -3 0 -17 10 -30 23 -17 15 -23 31 -21 50 2 17 -6 37 -20 55 -13 15
-33 43 -45 62 -11 19 -21 28 -21 20 0 -8 9 -26 20 -40 21 -27 26 -65 10 -75
-5 -3 -6 -13 -3 -23 11 -31 -33 15 -47 49 -7 16 -16 29 -21 29 -5 0 -4 12 1
26 7 18 7 38 -2 65 -10 35 -9 41 8 54 17 14 17 14 -8 4 -32 -14 -63 4 -53 29
3 8 -4 26 -17 39 -21 23 -21 23 -2 38 25 19 34 19 34 -2 0 -14 2 -15 9 -5 7
11 9 11 14 -2 4 -9 13 -13 22 -10 10 4 15 0 15 -10 0 -9 7 -16 16 -16 11 0 14
-6 9 -21 -6 -18 -4 -20 17 -15 23 7 23 7 -2 -8 -19 -12 -21 -15 -7 -16 9 0 17
-6 17 -14 0 -8 7 -17 16 -20 8 -3 13 -10 10 -15 -3 -5 1 -12 9 -15 14 -5 14
-2 0 24 -18 35 -19 103 -3 165 10 38 10 50 -5 80 -9 20 -17 51 -17 70 0 33 -1
33 -36 30 -20 -2 -44 -11 -53 -20 -15 -15 -14 -16 11 -10 21 5 29 2 38 -15 6
-12 9 -29 5 -38 -5 -14 -8 -12 -18 8 -25 49 -101 38 -127 -19 -10 -23 -9 -28
14 -46 33 -27 33 -37 -4 -58 l-30 -18 -1 63 c-2 58 -2 60 -9 23 -4 -22 -8 -32
-9 -22 0 10 -6 15 -11 12 -6 -3 -7 -17 -4 -31 7 -27 2 -29 -27 -13 -16 8 -30
4 -72 -20 l-52 -31 58 0 c98 0 121 -26 67 -73 -29 -26 -30 -28 -16 -61 8 -18
14 -49 14 -69 0 -33 -1 -35 -45 -41 -24 -3 -53 -1 -63 4 -26 14 -80 -7 -80
-31 0 -22 1 -23 33 -8 18 8 30 8 45 0 14 -8 29 -8 52 1 25 8 38 8 51 -1 17
-10 19 -8 19 26 0 30 2 34 13 24 16 -16 15 -248 -2 -279 -12 -22 -41 -31 -41
-12 0 5 -11 12 -25 16 -30 7 -30 8 -5 44 25 35 50 104 50 136 0 19 -5 24 -26
24 -14 0 -34 -5 -44 -10 -13 -7 -27 -6 -45 2 -20 9 -31 8 -50 -2 -24 -13 -25
-17 -25 -107 l0 -93 -25 6 c-40 10 -155 10 -155 0 0 -5 -12 1 -27 15 -15 13
-21 16 -14 6 17 -22 16 -24 -41 -32 -42 -6 -47 -5 -53 15 -13 40 -11 258 3
272 9 9 12 4 12 -25 0 -35 1 -37 21 -27 14 8 29 8 51 1 21 -8 36 -7 50 0 15 8
27 8 45 0 33 -15 43 -14 43 7 0 23 -62 47 -87 33 -27 -14 -113 -2 -113 16 0
12 10 14 49 8 28 -4 57 -2 68 3 12 7 25 6 45 -4 15 -8 28 -13 29 -12 1 2 2 50
4 108 3 127 1 118 23 123 9 3 -11 5 -44 6 -46 1 -73 7 -105 25 -32 19 -48 22
-66 15 -34 -13 -34 -12 -27 19 7 24 6 26 -9 14 -14 -12 -16 -8 -20 35 -3 37
-4 32 -5 -25 l-2 -73 -30 18 c-16 9 -30 20 -30 24 0 3 -18 12 -40 19 -22 7
-40 20 -40 28 0 10 -7 13 -21 9 -13 -3 -19 -1 -16 6 2 7 9 12 16 12 6 0 15 6
20 13 11 19 39 4 65 -35 l23 -33 24 19 c22 17 22 21 10 45 -13 23 -15 24 -27
8 -8 -12 -9 -22 -2 -36 7 -13 7 -17 -2 -14 -6 2 -10 6 -8 10 2 3 -4 14 -13 24
-8 11 -14 29 -14 40 2 18 -2 21 -24 15 -14 -4 -31 -18 -37 -30 -15 -29 -27
-11 -15 22 9 24 41 45 41 27 0 -6 5 -10 12 -10 29 0 -22 32 -56 35 -36 3 -37
2 -34 -24z m883 -41 c-2 -30 -19 -44 -34 -26 -10 11 -8 17 11 30 12 9 23 16
24 16 0 0 0 -9 -1 -20z m59 -25 c3 -8 12 -12 21 -9 9 4 15 1 15 -9 0 -10 -7
-13 -20 -10 -13 3 -20 0 -20 -9 0 -7 -15 -19 -32 -26 -29 -11 -35 -10 -45 5
-16 21 -17 33 -2 33 5 0 7 -6 3 -12 -4 -7 6 2 23 20 34 35 48 40 57 17z m-859
-83 c-6 -4 -28 -23 -50 -42 l-40 -35 40 43 c21 23 44 42 49 42 6 0 6 -3 1 -8z
m880 -34 l40 -43 -45 40 c-25 22 -47 41 -49 43 -2 1 0 2 5 2 6 0 28 -19 49
-42z m-748 -15 c-3 -10 -5 -2 -5 17 0 19 2 27 5 18 2 -10 2 -26 0 -35z m570
-30 c-2 -16 -4 -3 -4 27 0 30 2 43 4 28 2 -16 2 -40 0 -55z m-537 -25 c0 -16
-3 -19 -11 -11 -6 6 -8 16 -5 22 11 17 16 13 16 -11z m120 -18 c0 -5 8 -10 18
-10 26 0 42 -20 42 -53 0 -22 -3 -27 -12 -20 -7 5 -32 9 -56 8 -38 -2 -45 2
-58 26 -18 36 -18 39 5 39 11 0 23 5 26 10 3 6 13 10 21 10 8 0 14 -4 14 -10z
m-162 -82 c-2 -35 -8 -71 -12 -81 -6 -13 -5 -17 5 -15 11 2 13 -18 10 -112 -2
-63 -5 -117 -7 -119 -2 -2 -24 13 -49 34 -44 36 -46 39 -40 76 9 50 -1 82 -24
74 -12 -3 -17 1 -18 15 -1 11 2 22 8 25 5 4 9 -2 10 -12 0 -10 3 -13 6 -5 2 6
11 12 19 12 8 0 14 10 14 21 0 17 4 20 22 16 19 -5 20 -4 6 9 -14 14 -13 21 6
70 30 76 49 72 44 -8z m628 8 c19 -49 20 -56 6 -70 -14 -13 -13 -14 6 -9 15 3
22 1 22 -9 0 -22 36 -48 49 -35 8 8 11 5 11 -10 0 -16 -5 -20 -19 -16 -24 6
-35 -24 -26 -76 6 -36 4 -41 -36 -75 -23 -20 -46 -36 -50 -36 -7 0 -18 208
-11 227 2 7 9 10 15 6 7 -4 8 0 2 13 -4 10 -11 37 -15 59 -5 27 -8 32 -9 15
l-1 -25 -15 29 c-12 23 -13 32 -3 43 10 13 13 12 19 -4 7 -16 8 -15 8 5 2 39
25 23 47 -32z m-604 -13 c-10 -28 -10 -28 -11 12 -1 28 2 36 10 28 8 -8 8 -19
1 -40z m408 -193 c21 -13 21 -80 0 -81 -10 0 -11 -2 -2 -6 23 -9 13 -33 -14
-33 -16 0 -24 5 -21 13 2 6 -2 29 -9 51 -20 55 -19 56 26 65 3 0 12 -4 20 -9z
m-470 -123 c16 -12 29 -26 29 -31 1 -5 -6 -3 -14 4 -11 9 -15 9 -15 1 0 -6 7
-14 15 -17 8 -4 15 -12 15 -20 0 -10 -15 -14 -60 -14 -33 0 -60 -4 -60 -10 0
-5 -6 -10 -14 -10 -7 0 -20 -7 -27 -16 -11 -14 -14 -10 -24 28 -6 23 -9 46 -7
51 2 4 20 7 40 7 51 0 70 13 52 35 -12 14 -10 15 16 5 28 -10 28 -9 9 6 -18
15 -18 16 -1 10 10 -3 31 -16 46 -29z m723 0 c-9 -14 18 -27 58 -27 46 0 49
-4 37 -48 -13 -48 -14 -49 -41 -24 -16 15 -42 24 -85 28 -34 4 -62 9 -62 11 0
2 12 15 28 29 l27 25 -30 -17 -30 -18 22 25 c21 23 90 38 76 16z m-348 -87 c0
-17 -7 -24 -24 -27 -13 -2 -29 1 -36 7 -6 5 -14 7 -18 4 -3 -3 -16 0 -29 7
-22 12 -22 13 22 24 65 16 85 13 85 -15z m-311 -21 c-9 -15 -34 -10 -28 5 3 8
12 12 20 9 8 -3 11 -9 8 -14z m555 -8 c-15 -5 -22 6 -14 19 6 9 10 9 16 -1 5
-8 4 -15 -2 -18z m-179 -11 c11 -7 7 -10 -18 -10 -20 0 -31 4 -27 10 8 13 26
13 45 0z m-184 -55 c-7 -18 -26 -20 -26 -2 0 18 24 41 28 27 2 -6 1 -17 -2
-25z m114 28 c-1 -10 -36 -53 -44 -53 -3 0 -6 7 -6 16 0 11 -5 14 -16 10 -10
-4 -14 -1 -11 6 2 7 11 13 20 13 8 0 19 4 23 8 10 9 34 9 34 0z m30 3 c0 -3
-4 -8 -10 -11 -5 -3 -10 -1 -10 4 0 6 5 11 10 11 6 0 10 -2 10 -4z m-253 -70
c-6 -16 -47 -11 -47 6 0 6 7 8 15 4 11 -4 15 2 16 22 0 26 1 26 11 5 6 -12 8
-29 5 -37z m653 -6 c0 -5 -5 -10 -11 -10 -5 0 -7 5 -4 10 3 6 8 10 11 10 2 0
4 -4 4 -10z"/>
<path d="M1725 2881 c-3 -5 -2 -12 3 -15 5 -3 9 1 9 9 0 17 -3 19 -12 6z"/>
<path d="M1389 2843 c-13 -16 -12 -17 4 -4 9 7 17 15 17 17 0 8 -8 3 -21 -13z"/>
<path d="M1261 2834 c0 -11 3 -14 6 -6 3 7 2 16 -1 19 -3 4 -6 -2 -5 -13z"/>
<path d="M1791 2834 c0 -11 3 -14 6 -6 3 7 2 16 -1 19 -3 4 -6 -2 -5 -13z"/>
<path d="M1370 2815 c0 -18 23 -45 39 -45 21 0 73 39 54 40 -7 0 -13 -4 -13
-9 0 -5 -10 -13 -22 -17 -16 -5 -27 -1 -40 16 -10 12 -18 19 -18 15z"/>
<path d="M1563 2703 c15 -2 37 -2 50 0 12 2 0 4 -28 4 -27 0 -38 -2 -22 -4z"/>
<path d="M1130 2660 c0 -13 18 -22 24 -11 3 5 -1 11 -9 15 -8 3 -15 1 -15 -4z"/>
<path d="M1911 2661 c-8 -6 -9 -11 -3 -15 6 -3 14 -1 17 5 9 14 2 20 -14 10z"/>
<path d="M1613 2633 c-14 -5 -17 -41 -5 -60 4 -6 20 -15 35 -18 28 -7 28 -7
25 30 -3 38 -26 58 -55 48z"/>
<path d="M1076 2599 c6 -8 13 -21 16 -28 3 -12 6 -12 11 2 4 11 -1 21 -16 28
-19 10 -20 10 -11 -2z"/>
<path d="M1950 2593 c0 -4 5 -15 10 -23 8 -13 10 -13 10 2 0 9 -4 20 -10 23
-5 3 -10 3 -10 -2z"/>
<path d="M1025 2570 c-3 -6 1 -7 9 -4 18 7 21 14 7 14 -6 0 -13 -4 -16 -10z"/>
<path d="M2067 2536 c-11 -29 -8 -46 8 -46 16 0 18 14 6 44 -7 18 -8 18 -14 2z"/>
<path d="M957 2466 c-4 -10 -5 -21 -2 -24 9 -9 17 6 13 25 -3 17 -4 17 -11 -1z"/>
<path d="M1980 2463 c0 -11 7 -27 16 -34 15 -12 16 -11 9 11 -10 35 -25 49
-25 23z"/>
<path d="M2096 2450 c10 -16 19 -28 21 -26 6 6 -20 56 -29 56 -5 0 -1 -13 8
-30z"/>
<path d="M1390 2364 c-7 -17 -6 -32 1 -46 13 -25 6 -34 -11 -13 -7 8 -17 15
-23 15 -6 0 2 -13 17 -29 15 -15 26 -32 25 -37 -5 -30 2 -37 17 -16 8 12 20
20 25 17 5 -4 9 -2 9 3 0 16 -13 22 -27 11 -14 -13 -16 -9 -7 15 7 18 44 22
44 4 0 -6 3 -8 6 -5 10 10 -18 39 -32 33 -8 -3 -11 0 -7 10 3 7 12 14 21 14
12 0 13 3 4 12 -9 9 -17 7 -33 -8 l-22 -19 5 33 c5 39 1 41 -12 6z"/>
<path d="M1345 2360 c-3 -5 3 -10 14 -10 12 0 21 5 21 10 0 6 -6 10 -14 10 -8
0 -18 -4 -21 -10z"/>
<path d="M1360 2270 c0 -5 5 -10 10 -10 6 0 10 5 10 10 0 6 -4 10 -10 10 -5 0
-10 -4 -10 -10z"/>
<path d="M1453 1953 c-13 -2 -23 -9 -23 -14 0 -11 50 -1 65 12 9 9 -2 10 -42
2z"/>
<path d="M1543 1953 c9 -2 23 -2 30 0 6 3 -1 5 -18 5 -16 0 -22 -2 -12 -5z"/>
<path d="M1606 1951 c13 -12 74 -31 98 -30 12 0 -6 9 -39 19 -69 22 -73 23
-59 11z"/>
<path d="M1476 1912 c-3 -5 24 -9 59 -10 35 -1 67 3 70 8 4 6 -19 10 -59 10
-36 0 -67 -4 -70 -8z"/>
<path d="M1258 1903 c7 -3 16 -2 19 1 4 3 -2 6 -13 5 -11 0 -14 -3 -6 -6z"/>
<path d="M1185 4180 c-11 -5 -33 -20 -49 -34 l-29 -24 54 -69 c30 -37 64 -79
76 -93 13 -14 23 -28 23 -32 0 -5 6 -8 14 -8 23 0 26 27 5 46 -41 37 -9 64 46
38 33 -15 55 -13 55 6 0 5 -16 17 -35 26 -26 12 -35 23 -35 41 0 37 -27 81
-60 98 -33 17 -37 17 -65 5z m74 -72 c14 -24 14 -28 -3 -47 -25 -28 -31 -27
-62 14 -26 35 -26 36 -8 50 27 21 56 14 73 -17z"/>
<path d="M3725 4085 c-41 -52 -75 -99 -75 -104 0 -16 90 -83 105 -77 24 9 17
34 -15 58 -34 25 -36 34 -14 59 15 17 17 17 44 -3 27 -20 60 -19 60 1 0 5 -14
21 -31 35 -30 26 -31 27 -14 46 23 26 27 25 63 -5 28 -23 32 -24 46 -9 9 8 16
16 16 18 0 4 -97 76 -103 76 -3 0 -40 -43 -82 -95z"/>
<path d="M990 4018 c-14 -15 -20 -35 -20 -65 0 -38 6 -49 48 -92 58 -61 108
-75 150 -44 15 11 31 32 36 47 9 23 5 31 -29 66 -47 48 -73 39 -35 -12 30 -40
18 -63 -34 -62 -43 1 -64 18 -83 62 -12 30 -12 37 2 58 8 13 24 24 35 24 13 0
20 7 20 20 0 29 -62 28 -90 -2z"/>
<path d="M3875 3953 c-44 -47 -81 -88 -83 -92 -1 -4 18 -27 44 -51 44 -43 46
-44 60 -26 13 18 11 23 -18 53 l-31 32 76 78 c51 52 72 80 64 85 -22 14 -32 7
-112 -79z"/>
<path d="M659 3863 c-13 -16 -12 -17 4 -4 9 7 17 15 17 17 0 8 -8 3 -21 -13z"/>
<path d="M4045 3854 c-94 -49 -132 -138 -80 -189 69 -70 225 22 225 131 0 61
-79 92 -145 58z m76 -34 c45 -25 9 -109 -56 -130 -45 -15 -75 0 -75 38 1 30
12 48 54 80 32 24 48 27 77 12z"/>
<path d="M820 3825 c-6 -8 -8 -20 -4 -27 28 -46 148 -208 155 -208 18 0 20 22
4 46 -16 24 -15 27 10 59 23 31 28 33 51 23 20 -9 28 -9 40 4 14 14 9 18 -53
42 -191 76 -191 76 -203 61z m104 -60 c39 -16 43 -24 24 -43 -18 -18 -23 -15
-52 23 -30 39 -25 42 28 20z"/>
<path d="M4240 3673 c-152 -96 -190 -126 -179 -139 9 -12 16 -11 39 3 28 16
29 16 58 -15 18 -19 40 -32 55 -32 31 0 87 38 106 71 13 24 12 30 -11 75 -14
26 -29 49 -34 50 -5 2 -20 -4 -34 -13z m30 -63 c24 -45 -27 -93 -69 -64 -29
21 -26 39 12 63 40 26 44 26 57 1z"/>
<path d="M664 3603 c-5 -10 -20 -34 -32 -55 l-23 -36 110 -62 c60 -35 113 -63
118 -63 4 0 23 24 40 54 30 50 32 55 16 67 -21 15 -33 15 -33 1 0 -6 -9 -24
-20 -40 -19 -25 -24 -27 -45 -17 -30 13 -31 21 -8 59 16 26 16 31 3 39 -23 15
-28 12 -45 -20 -16 -31 -22 -34 -49 -24 -20 8 -20 28 0 59 17 27 13 55 -8 55
-7 0 -18 -8 -24 -17z"/>
<path d="M4281 3435 c-63 -28 -116 -56 -118 -62 -10 -30 38 -19 130 29 28 14
20 0 -29 -52 -53 -57 -47 -67 36 -56 28 4 50 3 50 -1 0 -5 -25 -19 -55 -32
-60 -26 -73 -37 -58 -52 7 -7 51 9 124 42 134 61 121 53 114 70 -4 11 -24 13
-90 10 -47 -1 -85 1 -85 6 0 5 25 33 55 63 52 51 65 74 48 83 -5 2 -59 -19
-122 -48z"/>
<path d="M548 3389 c-33 -72 -33 -75 -9 -88 15 -8 20 -6 29 14 7 14 16 25 21
25 5 0 49 -18 96 -40 48 -22 91 -38 96 -35 24 15 2 35 -78 69 -49 21 -92 42
-96 46 -5 4 -3 18 3 30 10 18 9 24 -1 31 -26 16 -34 9 -61 -52z"/>
<path d="M4378 3182 c-74 -26 -108 -42 -107 -52 0 -8 9 -37 18 -65 14 -39 22
-49 37 -47 27 5 27 5 11 54 -15 42 -15 43 10 56 29 16 34 12 49 -31 8 -23 16
-31 30 -29 27 5 27 7 14 48 -10 30 -10 38 1 45 30 19 48 9 59 -31 11 -40 16
-45 43 -34 13 5 13 13 -5 65 -14 41 -25 59 -36 58 -10 0 -65 -17 -124 -37z"/>
<path d="M467 3185 c-7 -16 25 -43 143 -124 64 -44 75 -49 83 -35 9 16 7 20
-30 42 -10 6 -9 16 1 47 11 32 19 41 42 43 29 4 47 20 38 34 -3 4 -65 8 -139
8 -107 0 -134 -3 -138 -15z m159 -28 c7 -7 -10 -47 -20 -47 -6 0 -27 14 -46
31 l-35 31 49 -6 c27 -3 51 -7 52 -9z"/>
<path d="M426 3042 c-9 -15 -33 -132 -28 -137 15 -14 42 -3 48 20 3 14 8 25
10 25 2 0 42 -9 89 -20 102 -24 125 -25 125 -6 0 15 -35 29 -100 41 -19 4 -52
11 -72 17 -34 10 -36 13 -31 39 5 24 2 29 -15 29 -12 0 -23 -4 -26 -8z"/>
<path d="M4443 2988 c-68 -16 -123 -34 -123 -39 0 -19 34 -22 96 -7 35 8 64
14 64 12 0 -2 -30 -33 -67 -68 -85 -81 -79 -91 37 -65 146 34 168 42 161 60
-5 15 -12 15 -78 -1 -40 -9 -73 -15 -73 -12 0 2 29 31 65 64 41 37 62 64 58
73 -3 8 -8 15 -12 14 -3 0 -61 -14 -128 -31z"/>
<path d="M380 2821 c-16 -30 -12 -76 8 -93 48 -43 102 -34 133 22 25 45 42 55
59 34 12 -13 10 -41 -4 -75 -10 -22 23 -34 42 -16 7 8 16 32 19 54 7 52 -23
83 -78 83 -41 0 -49 -6 -79 -57 -22 -37 -44 -42 -59 -15 -7 13 -6 27 4 45 11
22 11 26 -2 31 -24 10 -32 7 -43 -13z"/>
<path d="M4578 2758 c-2 -20 -9 -33 -18 -35 -153 -17 -190 -26 -190 -44 0 -17
5 -19 33 -15 17 3 55 8 82 11 28 3 62 8 78 11 24 5 27 3 27 -21 0 -14 7 -28
16 -32 29 -11 36 11 27 83 -7 60 -11 69 -30 72 -18 3 -22 -2 -25 -30z"/>
<path d="M480 2536 c-100 -35 -126 -47 -128 -63 -2 -13 4 -22 15 -25 10 -3 63
-17 118 -32 55 -15 108 -29 118 -32 12 -4 17 0 17 15 0 13 -9 21 -30 26 -28 6
-30 10 -30 49 0 36 4 45 25 54 15 7 25 20 25 32 0 11 -1 20 -2 19 -2 0 -59
-20 -128 -43z m30 -62 c0 -25 -2 -26 -37 -19 -54 9 -62 22 -22 33 53 16 59 14
59 -14z"/>
<path d="M4380 2492 c0 -10 12 -22 28 -28 25 -10 27 -14 24 -52 -3 -34 -9 -43
-28 -48 -15 -4 -24 -13 -24 -25 0 -23 -2 -23 90 2 41 12 95 26 120 33 33 9 46
18 48 33 3 19 -11 26 -120 62 -68 23 -126 41 -131 41 -4 0 -7 -8 -7 -18z m163
-68 c39 -9 33 -19 -18 -31 l-45 -10 0 29 c0 23 4 28 18 24 9 -3 29 -8 45 -12z"/>
<path d="M480 2324 c-47 -7 -93 -13 -102 -14 -11 0 -18 -8 -18 -20 0 -19 4
-20 53 -15 28 4 63 8 75 11 34 7 20 -9 -53 -62 -64 -45 -82 -74 -47 -74 36 1
243 28 248 32 10 11 -9 38 -25 34 -9 -3 -43 -7 -76 -11 -60 -6 -60 -6 -35 12
165 120 162 137 -20 107z"/>
<path d="M4432 2270 c-63 -15 -94 -67 -72 -121 10 -23 20 -29 56 -35 77 -11
105 17 32 32 -48 10 -60 34 -33 64 25 27 67 34 108 16 48 -20 64 -50 42 -82
-13 -20 -14 -29 -5 -39 17 -20 47 1 61 42 25 77 -83 148 -189 123z"/>
<path d="M495 2084 c-33 -8 -70 -16 -82 -19 -15 -3 -20 -10 -16 -24 4 -18 7
-18 86 1 104 24 131 21 135 -13 2 -14 -3 -30 -10 -36 -14 -11 -133 -43 -161
-43 -20 0 -30 -16 -20 -33 12 -20 190 25 220 56 38 38 35 90 -7 112 -35 18
-65 18 -145 -1z"/>
<path d="M4316 1999 c-19 -67 -19 -66 8 -71 15 -2 21 6 30 37 12 41 36 55 64
36 11 -6 11 -17 4 -44 -11 -39 -8 -47 19 -47 11 0 19 11 23 35 7 36 26 45 55
26 12 -8 13 -16 3 -49 -16 -52 -16 -52 11 -52 20 0 26 8 40 58 9 31 13 60 9
63 -8 7 -224 69 -240 69 -5 0 -17 -27 -26 -61z"/>
<path d="M560 1858 c-26 -13 -53 -37 -64 -57 -18 -32 -18 -35 -2 -87 9 -29 20
-55 24 -58 6 -3 226 80 241 91 2 1 -4 23 -13 48 -33 85 -99 107 -186 63z m128
-45 c26 -35 14 -49 -60 -77 -40 -14 -76 -26 -80 -26 -13 0 -19 59 -8 80 25 47
119 61 148 23z"/>
<path d="M4274 1869 c-9 -16 4 -25 76 -52 74 -28 69 -32 -50 -45 -53 -6 -65
-10 -65 -25 0 -14 27 -29 113 -63 62 -25 117 -42 122 -39 23 14 6 32 -55 54
-36 14 -65 28 -65 32 0 4 30 10 67 14 73 8 113 20 113 33 0 8 -224 103 -242
102 -4 0 -10 -5 -14 -11z"/>
<path d="M677 1616 c-72 -68 -96 -97 -91 -109 3 -9 9 -17 13 -17 12 0 235 40
253 46 30 9 9 36 -26 32 -27 -3 -34 2 -51 34 -18 35 -18 38 -2 56 18 20 22 38
10 45 -5 3 -52 -37 -106 -87z m61 -40 c10 -23 8 -24 -39 -33 -27 -6 -49 -8
-49 -5 0 6 63 62 71 62 3 0 11 -11 17 -24z"/>
<path d="M4192 1633 c-50 -24 -60 -105 -14 -111 20 -3 22 0 17 21 -18 70 118
76 156 6 14 -28 4 -66 -21 -74 -23 -7 -25 -18 -7 -33 33 -27 93 36 82 87 -8
38 -73 97 -122 110 -49 14 -52 14 -91 -6z"/>
<path d="M874 1408 c-40 -83 -45 -88 -115 -88 -56 0 -74 -10 -46 -27 6 -4 44
-6 82 -5 l70 2 -29 -22 c-73 -57 -72 -56 -59 -69 10 -10 21 -6 55 17 97 66
163 117 162 125 -1 5 -2 14 -2 20 -1 6 -16 2 -36 -10 -36 -23 -66 -27 -66 -11
0 6 9 29 20 51 19 37 20 79 1 79 -4 0 -21 -28 -37 -62z"/>
<path d="M4067 1443 c-13 -12 -7 -20 32 -46 22 -15 61 -58 88 -97 26 -38 52
-70 56 -70 22 0 14 34 -19 80 l-38 52 45 -8 c72 -13 93 -11 97 9 2 12 -3 17
-20 17 -48 0 -158 29 -187 49 -31 22 -43 25 -54 14z"/>
<path d="M1098 1092 c-37 -22 -61 -73 -53 -114 23 -118 175 -133 221 -22 42
100 -74 195 -168 136z"/>
<path d="M3783 1100 c-30 -12 -63 -67 -63 -105 0 -39 33 -93 66 -105 52 -20
94 -12 130 24 29 29 34 41 34 81 0 40 -5 52 -34 81 -27 27 -42 34 -72 33 -22
0 -49 -4 -61 -9z"/>
<path d="M1413 771 c-24 -38 -43 -74 -43 -79 0 -22 26 -18 46 6 20 24 21 24
52 8 38 -20 42 -20 42 -1 0 8 -13 21 -30 30 -34 17 -37 27 -15 45 13 11 23 9
54 -8 31 -18 40 -19 44 -8 5 11 -43 45 -103 73 -3 2 -24 -28 -47 -66z"/>
<path d="M3495 817 c-34 -19 -40 -27 -40 -56 0 -46 22 -59 77 -44 32 9 45 9
50 0 11 -16 -28 -47 -58 -47 -15 0 -24 -6 -24 -15 0 -25 55 -18 89 11 33 28
40 64 17 83 -8 7 -36 11 -65 9 -59 -3 -69 11 -24 32 18 8 33 23 33 33 0 22 -7
21 -55 -6z"/>
<path d="M3347 740 c-43 -13 -57 -29 -57 -66 0 -28 5 -35 25 -40 14 -3 41 -3
59 0 22 4 37 2 42 -5 10 -16 -32 -49 -62 -49 -16 0 -24 -6 -24 -16 0 -13 7
-15 34 -11 56 9 86 34 86 72 0 39 -16 47 -79 44 -22 -2 -43 0 -47 4 -12 11 15
34 47 41 18 3 29 11 27 18 -6 16 -18 18 -51 8z"/>
<path d="M1576 699 c-14 -17 -26 -43 -26 -58 0 -80 114 -127 168 -67 58 64 14
156 -74 156 -35 0 -47 -5 -68 -31z m114 -19 c24 -24 25 -43 4 -75 -29 -44
-104 -23 -104 29 0 58 61 85 100 46z"/>
<path d="M3154 659 l-51 -21 29 -81 c16 -44 30 -82 31 -83 1 -2 30 7 65 19 86
30 76 53 -15 32 -29 -7 -33 -5 -33 13 0 15 10 24 36 32 36 12 43 38 8 31 -75
-17 -96 13 -28 39 24 9 39 20 37 28 -6 16 -18 15 -79 -9z"/>
<path d="M1816 651 c-18 -28 -53 -152 -45 -157 15 -9 39 4 39 21 0 17 2 18 25
9 8 -4 22 -22 30 -40 17 -42 50 -49 35 -8 -9 22 -6 30 20 54 49 46 36 82 -43
115 -42 17 -54 19 -61 6z m72 -47 c26 -18 27 -27 8 -47 -20 -20 -66 -10 -66
13 0 49 20 61 58 34z"/>
<path d="M2950 598 c-19 -5 -36 -11 -38 -12 -2 -3 23 -121 34 -157 8 -28 42
-12 36 17 -6 34 23 42 52 15 22 -21 56 -29 56 -13 0 5 -9 17 -20 27 -14 13
-17 22 -10 29 19 19 12 74 -12 90 -25 18 -47 19 -98 4z m83 -40 c7 -21 -4 -39
-31 -49 -29 -11 -42 1 -42 39 0 18 5 22 34 22 19 0 36 -6 39 -12z"/>
<path d="M2075 576 c-2 -6 -9 -39 -15 -74 -6 -35 -14 -70 -17 -78 -3 -9 2 -14
15 -14 12 0 23 9 27 20 5 16 15 20 49 20 112 0 106 108 -7 129 -34 6 -50 5
-52 -3z m97 -49 c13 -21 -12 -48 -40 -45 -28 3 -39 26 -28 55 7 17 55 10 68
-10z"/>
<path d="M2748 554 c-69 -37 -62 -133 12 -164 30 -13 75 -7 97 12 14 11 18 88
6 88 -17 0 -28 -16 -28 -40 0 -20 -6 -26 -28 -28 -54 -6 -85 49 -53 93 9 13
27 19 57 21 57 2 57 2 35 19 -25 19 -63 18 -98 -1z"/>
<path d="M2266 498 c-11 -95 -8 -118 14 -118 13 0 20 7 20 19 0 33 19 34 47 2
15 -17 36 -31 45 -31 18 0 18 1 1 26 -15 23 -15 28 -2 38 37 27 33 86 -7 105
-14 6 -44 11 -68 11 l-43 0 -7 -52z m102 10 c28 -28 -4 -62 -46 -51 -21 5 -31
41 -15 56 11 11 48 8 61 -5z"/>
<path d="M2515 538 c-52 -28 -67 -76 -40 -127 28 -55 104 -64 153 -19 25 24
30 91 9 119 -28 37 -83 49 -122 27z m80 -43 c31 -31 31 -49 0 -80 -29 -30 -35
-31 -69 -4 -46 37 -24 102 37 108 4 1 19 -10 32 -24z"/>
</g>
</svg>
