<svg width="51" height="45" viewBox="0 0 51 45" fill="none" xmlns="http://www.w3.org/2000/svg">
<rect x="0.75" y="0.25" width="50.25" height="44.25" rx="6" fill="#F2F9F5"/>
<path d="M13.45 30.465C13.45 30.465 12.41 30.5 12.325 29.59C12.24 28.68 12.16 27.255 14.12 25.59C16.08 23.925 17.45 23.92 19.37 20.88C21.29 17.84 22.16 12.465 22.785 11.09C23.41 9.71497 23.7 7.62997 26.45 7.49997C29.2 7.36997 29.62 9.87497 30.16 12.085C30.7 14.295 31.87 19.25 34.12 22.04C36.37 24.83 38.37 25.92 39.245 28.5C40.12 31.08 39.535 31.71 39.325 31.75C39.115 31.79 37.12 31.915 37.12 31.915C37.1971 32.2712 37.2207 32.6368 37.19 33C37.095 33.155 35.005 33.435 33.66 33.405C32.315 33.375 31.47 33.28 31.47 33.095C31.47 32.91 31.38 32.22 31.38 32.22L30.47 32.28C30.47 32.28 30.69 33.53 30.44 33.905C30.1451 34.2274 29.7475 34.4377 29.315 34.5C29.1807 34.5182 29.0455 34.5282 28.91 34.53C28.91 34.53 29.16 35.935 29.005 36.185C28.85 36.435 26.97 36.53 25.065 36.5C23.16 36.47 22.255 36.435 22.22 36.125C22.2431 35.5592 22.2965 34.995 22.38 34.435C22.38 34.435 20.845 34.345 20.69 33.935C20.6038 33.2616 20.5938 32.5806 20.66 31.905H19.565C19.6005 32.103 19.5902 32.3065 19.535 32.5C19.44 32.685 17.19 32.81 15.535 32.655C13.88 32.5 13.345 32.03 13.345 31.875C13.345 31.72 13.45 30.465 13.45 30.465Z" fill="#1D1D1B"/>
<path d="M13.97 29.65C13.97 29.65 13.315 29.59 13.345 29.37C13.375 29.15 13.72 26.59 15.44 25.84C17.16 25.09 19.69 24.9 20.845 23.65C22 22.4 22.69 19.275 22.815 17.9C22.94 16.525 22.815 13.34 23.41 11.68C24.005 10.02 24.41 8.25 26.755 8.245C30.495 8.245 30.38 22.025 32.065 23.12C32.8793 23.7017 33.79 24.135 34.755 24.4C36.1055 25.2226 37.1904 26.4169 37.88 27.84C38.815 30.025 38.63 31.055 38.63 31.055L37.16 31.18C37.0776 30.5031 36.7484 29.8804 36.2354 29.4311C35.7225 28.9818 35.0618 28.7375 34.38 28.745C31.845 28.68 31.5 31.68 31.5 31.68C31.5 31.68 30.375 31.995 30.435 31.775C30.495 31.555 30.28 24.34 29.905 22.965C29.53 21.59 28.715 21.18 28.375 21.12C28.035 21.06 27.81 21.84 27.875 21.93C27.94 22.02 28.84 21.93 29.03 24.84C29.22 27.75 29.685 33.275 29.34 33.525C28.995 33.775 26.935 34.055 24.81 33.93C22.685 33.805 22.03 33.775 21.78 33.215C21.53 32.655 22.25 24.4 22.53 23.275C22.81 22.15 23.28 21.995 23.655 21.9C23.7191 21.8878 23.7798 21.8619 23.833 21.8242C23.8862 21.7864 23.9307 21.7377 23.9634 21.6813C23.9961 21.6249 24.0163 21.562 24.0226 21.4971C24.0289 21.4322 24.0212 21.3667 24 21.305C23.935 21.15 23.405 21.12 22.905 21.245C22.405 21.37 21.56 22.09 21.31 24.9C21.06 27.71 20.84 31.15 20.75 31.15C20.66 31.15 19.09 31.025 19.09 31.025C19.09 31.025 19.375 28.025 16.81 27.9C14.245 27.775 13.97 29.65 13.97 29.65Z" fill="#CBE7F5"/>
<path d="M16.72 28.715C16.917 28.7189 17.1113 28.7616 17.2918 28.8406C17.4723 28.9196 17.6354 29.0334 17.7719 29.1755C17.9084 29.3175 18.0156 29.4851 18.0874 29.6686C18.1591 29.8521 18.194 30.048 18.19 30.245C18.19 31.025 18.255 31.68 18.065 31.745C17.3268 31.8304 16.5806 31.8203 15.845 31.715C14.755 31.59 14.565 31.715 14.565 31.275C14.565 30.835 14.38 28.59 16.72 28.715Z" fill="#E7413E"/>
<path d="M34.345 29.59C35.875 29.49 36.345 32.09 36.065 32.245C35.4038 32.4227 34.719 32.4969 34.035 32.465C33.035 32.495 32.535 32.465 32.47 31.995C32.405 31.525 32.44 29.715 34.345 29.59Z" fill="#E7413E"/>
<path d="M22 17.84C22.125 17.84 22.155 19.65 21.465 21.34C20.775 23.03 19.715 23.9 19.06 24.09C18.5785 24.2108 18.086 24.2829 17.59 24.305C17.59 24.305 19.715 22.87 20.655 20.87C21.595 18.87 22 17.84 22 17.84Z" fill="#1F4863"/>
<path d="M31.325 18.5C31.6703 19.5718 32.1279 20.6042 32.69 21.58C33.505 22.895 34.535 23.455 34.315 23.58C34.095 23.705 32.66 23.15 32 21.9C31.4935 20.8412 31.2614 19.672 31.325 18.5Z" fill="#1F4863"/>
<path d="M23.69 14.215C23.66 14.06 23.88 8.96496 26.44 8.89996C29 8.83496 29.065 14.59 28.815 14.68C28.565 14.77 27.815 14.215 26.005 14.37C24.195 14.525 23.785 14.715 23.69 14.215Z" fill="#1D1D1B"/>
<path d="M24.345 13.745C24.185 13.65 24.66 9.37002 26.535 9.55502C28.41 9.74002 28.41 13.68 28.13 13.745C27.85 13.81 27.095 13.525 26.16 13.555C25.225 13.585 24.565 13.87 24.345 13.745Z" fill="#1F4863"/>
<path d="M28.255 16.18C28.405 16.055 29.38 16.59 29.345 16.87C29.31 17.15 29.41 17.275 29.255 17.245C28.7942 17.0972 28.3603 16.876 27.97 16.59C27.91 16.43 28.065 16.34 28.255 16.18Z" fill="#1D1D1B"/>
<path d="M27.815 17.775C27.905 17.685 29.285 18.495 29.315 18.715C29.345 18.935 29.505 19.215 29.285 19.18C29.065 19.145 27.565 18.37 27.535 18.18C27.505 17.99 27.72 17.87 27.815 17.775Z" fill="#1D1D1B"/>
<path d="M27.44 19.0551C27.595 19.0901 29.535 19.9651 29.47 20.1801C29.405 20.3951 29.595 20.5551 29.315 20.4951C29.035 20.4351 27.22 19.6201 27.22 19.3701C27.2184 19.301 27.2389 19.2332 27.2785 19.1766C27.318 19.1199 27.3746 19.0774 27.44 19.0551Z" fill="#1D1D1B"/>
<path d="M24.66 23.0401C24.835 22.9101 25.16 23.1651 25.99 23.2001C26.82 23.2351 27.365 23.2001 27.365 23.2001C27.365 23.2001 27.425 23.5101 27.365 23.6051C26.9259 23.717 26.4728 23.7642 26.02 23.7451C25.5379 23.7293 25.0594 23.6554 24.595 23.5251C24.5603 23.446 24.5479 23.359 24.5594 23.2734C24.5709 23.1879 24.6057 23.1071 24.66 23.0401Z" fill="#1D1D1B"/>
<path d="M24.675 25.5C24.85 25.365 25.175 25.625 26.005 25.655C26.835 25.685 27.38 25.655 27.38 25.655C27.38 25.655 27.44 25.97 27.38 26.06C26.9413 26.1742 26.4878 26.2214 26.035 26.2C25.555 26.1833 25.0785 26.1112 24.615 25.985C24.5778 25.9069 24.5637 25.8197 24.5744 25.7338C24.585 25.6479 24.6199 25.5668 24.675 25.5Z" fill="#1D1D1B"/>
<path d="M24.63 28.325C24.805 28.19 25.13 28.45 25.955 28.48C26.78 28.51 27.33 28.48 27.33 28.48C27.33 28.48 27.395 28.79 27.33 28.885C26.8931 28.9998 26.4412 29.047 25.99 29.025C25.5079 29.0092 25.0294 28.9353 24.565 28.805C24.5301 28.7269 24.5177 28.6405 24.5292 28.5557C24.5407 28.4709 24.5756 28.391 24.63 28.325Z" fill="#1D1D1B"/>
<path d="M34.91 25.325C34.97 25.4 36.115 26.37 36.08 26.51C36.045 26.65 35.99 26.715 35.94 26.68C35.5116 26.3678 35.0994 26.0341 34.705 25.68C34.675 25.605 34.91 25.325 34.91 25.325Z" fill="#1D1D1B"/>
<path d="M33.675 25.665C33.815 25.665 35.785 27.26 35.755 27.45C35.725 27.64 35.675 27.76 35.595 27.76C35.515 27.76 33.38 26.105 33.395 25.965C33.41 25.825 33.675 25.665 33.675 25.665Z" fill="#1D1D1B"/>
<path d="M33.145 26.965C33.678 27.2448 34.1667 27.602 34.595 28.025C34.535 28.105 34.74 28.215 34.41 28.2C33.8615 28.0077 33.353 27.7162 32.91 27.34C32.88 27.245 33.065 27 33.145 26.965Z" fill="#1D1D1B"/>
<path d="M23.055 34.63C23.09 34.58 24.285 34.735 25.66 34.69C26.5111 34.6137 27.3655 34.5803 28.22 34.59C28.3187 34.9988 28.3541 35.4204 28.325 35.84C27.3315 35.9794 26.3273 36.028 25.325 35.985C23.975 35.94 23.055 35.985 22.95 35.84C22.8923 35.4339 22.9282 35.0201 23.055 34.63Z" fill="#E7413E"/>
</svg>
