<svg width="51" height="45" viewBox="0 0 51 45" fill="none" xmlns="http://www.w3.org/2000/svg">
<rect x="0.75" y="0.25" width="50.25" height="44.25" rx="6" fill="#F2F9F5"/>
<path fill-rule="evenodd" clip-rule="evenodd" d="M17.3333 16C17.1565 16 16.987 16.0702 16.8619 16.1953C16.7369 16.3203 16.6667 16.4899 16.6667 16.6667C16.6667 16.8435 16.7369 17.013 16.8619 17.1381C16.987 17.2631 17.1565 17.3333 17.3333 17.3333C17.5101 17.3333 17.6797 17.2631 17.8047 17.1381C17.9298 17.013 18 16.8435 18 16.6667C18 16.4899 17.9298 16.3203 17.8047 16.1953C17.6797 16.0702 17.5101 16 17.3333 16Z" fill="#808B9B"/>
<path fill-rule="evenodd" clip-rule="evenodd" d="M34.6667 16C34.4899 16 34.3203 16.0702 34.1953 16.1953C34.0702 16.3203 34 16.4899 34 16.6667C34 16.8435 34.0702 17.013 34.1953 17.1381C34.3203 17.2631 34.4899 17.3333 34.6667 17.3333C34.8435 17.3333 35.013 17.2631 35.1381 17.1381C35.2631 17.013 35.3333 16.8435 35.3333 16.6667C35.3333 16.4899 35.2631 16.3203 35.1381 16.1953C35.013 16.0702 34.8435 16 34.6667 16Z" fill="#808B9B"/>
<path fill-rule="evenodd" clip-rule="evenodd" d="M31.3333 24.6667L34.6667 18L38 24.6667H31.3333Z" fill="#E4E9EF"/>
<path fill-rule="evenodd" clip-rule="evenodd" d="M14 24.6667L17.3333 18L20.6667 24.6667H14Z" fill="#E4E9EF"/>
<path fill-rule="evenodd" clip-rule="evenodd" d="M31.0501 24.6667H38.2832V25.1631C38.2832 26.0845 37.9022 26.9682 37.2239 27.6198C36.5457 28.2713 35.6258 28.6373 34.6667 28.6373C33.7075 28.6373 32.7876 28.2713 32.1094 27.6198C31.4312 26.9682 31.0501 26.0845 31.0501 25.1631V24.6667Z" fill="#F2A50C"/>
<path fill-rule="evenodd" clip-rule="evenodd" d="M31.0508 24.6667V25.1628C31.051 25.6902 31.1763 26.2106 31.417 26.6846C31.6577 27.1586 32.0076 27.5737 32.4401 27.8985C33.0223 27.6226 33.6123 27.3131 34.1927 26.9792C35.4384 26.2599 36.595 25.4537 37.5104 24.6667H31.0508Z" fill="#F7C63D"/>
<path fill-rule="evenodd" clip-rule="evenodd" d="M13.7168 24.6667H20.9499V25.1631C20.9499 26.0845 20.5688 26.9682 19.8906 27.6198C19.2124 28.2713 18.2925 28.6373 17.3333 28.6373C16.3742 28.6373 15.4543 28.2713 14.7761 27.6198C14.0978 26.9682 13.7168 26.0845 13.7168 25.1631V24.6667Z" fill="#F2A50C"/>
<path fill-rule="evenodd" clip-rule="evenodd" d="M13.7168 24.6667L13.7168 25.1628C13.7171 25.6902 13.8423 26.2106 14.083 26.6846C14.3237 27.1586 14.6736 27.5737 15.1061 27.8985C15.6884 27.6226 16.2784 27.3131 16.8587 26.9792C18.1045 26.2599 19.261 25.4537 20.1765 24.6667H13.7168Z" fill="#F7C63D"/>
<path fill-rule="evenodd" clip-rule="evenodd" d="M26 11.9871C25.8232 11.9871 25.6536 12.0573 25.5286 12.1823C25.4036 12.3073 25.3333 12.4769 25.3333 12.6537V14.6537H15.3333C15.1565 14.6537 14.987 14.724 14.8619 14.849C14.7369 14.974 14.6667 15.1436 14.6667 15.3204C14.6667 15.4972 14.7369 15.6668 14.8619 15.7918C14.987 15.9168 15.1565 15.9871 15.3333 15.9871H25.3333V31.9871C25.3333 32.1639 25.4036 32.3334 25.5286 32.4585C25.6536 32.5835 25.8232 32.6537 26 32.6537C26.1768 32.6537 26.3464 32.5835 26.4714 32.4585C26.5964 32.3334 26.6667 32.1639 26.6667 31.9871V15.9871H36.6667C36.8435 15.9871 37.0131 15.9168 37.1381 15.7918C37.2631 15.6668 37.3333 15.4972 37.3333 15.3204C37.3333 15.1436 37.2631 14.974 37.1381 14.849C37.0131 14.724 36.8435 14.6537 36.6667 14.6537H26.6667V12.6537C26.6667 12.4769 26.5964 12.3073 26.4714 12.1823C26.3464 12.0573 26.1768 11.9871 26 11.9871Z" fill="#808B9B"/>
<path fill-rule="evenodd" clip-rule="evenodd" d="M23.3333 32H28.6667C29.0203 32 29.3594 32.1405 29.6095 32.3905C29.8595 32.6406 30 32.9797 30 33.3333V34.6667H22V33.3333C22 32.9797 22.1405 32.6406 22.3905 32.3905C22.6406 32.1405 22.9797 32 23.3333 32Z" fill="#E4E9EF"/>
<path fill-rule="evenodd" clip-rule="evenodd" d="M28 11.3334C28 11.596 27.9483 11.8561 27.8478 12.0987C27.7472 12.3414 27.5999 12.5619 27.4142 12.7476C27.2285 12.9333 27.008 13.0806 26.7654 13.1811C26.5227 13.2817 26.2626 13.3334 26 13.3334C25.7373 13.3334 25.4773 13.2817 25.2346 13.1811C24.992 13.0806 24.7715 12.9333 24.5858 12.7476C24.4001 12.5619 24.2527 12.3414 24.1522 12.0987C24.0517 11.8561 24 11.596 24 11.3334C24 11.0707 24.0517 10.8107 24.1522 10.568C24.2527 10.3254 24.4001 10.1049 24.5858 9.91916C24.7715 9.73345 24.992 9.58613 25.2346 9.48562C25.4773 9.38511 25.7374 9.33337 26 9.33337C26.2626 9.33337 26.5227 9.38511 26.7654 9.48562C27.008 9.58613 27.2285 9.73345 27.4142 9.91916C27.5999 10.1049 27.7472 10.3254 27.8478 10.568C27.9483 10.8107 28 11.0707 28 11.3334Z" fill="#FF5576"/>
</svg>
