<svg width="81" height="81" viewBox="0 0 81 81" fill="none" xmlns="http://www.w3.org/2000/svg">
<path d="M38.6016 12.6562V5.0625C38.6016 4.559 38.8016 4.07613 39.1576 3.7201C39.5136 3.36408 39.9965 3.16406 40.5 3.16406C41.0035 3.16406 41.4864 3.36408 41.8424 3.7201C42.1984 4.07613 42.3984 4.559 42.3984 5.0625V12.6562C42.3984 13.1597 42.1984 13.6426 41.8424 13.9986C41.4864 14.3547 41.0035 14.5547 40.5 14.5547C39.9965 14.5547 39.5136 14.3547 39.1576 13.9986C38.8016 13.6426 38.6016 13.1597 38.6016 12.6562ZM60.1172 40.5C60.1172 44.3799 58.9667 48.1727 56.8111 51.3987C54.6555 54.6248 51.5917 57.1391 48.0072 58.6239C44.4226 60.1087 40.4782 60.4972 36.6729 59.7402C32.8675 58.9833 29.3721 57.115 26.6286 54.3714C23.885 51.6279 22.0167 48.1325 21.2598 44.3271C20.5028 40.5218 20.8913 36.5774 22.3761 32.9928C23.8609 29.4083 26.3752 26.3445 29.6013 24.1889C32.8273 22.0333 36.6201 20.8828 40.5 20.8828C45.701 20.8887 50.6873 22.9574 54.365 26.635C58.0426 30.3127 60.1113 35.299 60.1172 40.5ZM56.3203 40.5C56.3203 37.371 55.3925 34.3123 53.6541 31.7107C51.9158 29.1091 49.445 27.0813 46.5542 25.8839C43.6634 24.6865 40.4825 24.3732 37.4136 24.9837C34.3448 25.5941 31.5259 27.1008 29.3133 29.3133C27.1008 31.5259 25.5941 34.3448 24.9837 37.4136C24.3732 40.4825 24.6865 43.6634 25.8839 46.5542C27.0813 49.445 29.1091 51.9158 31.7107 53.6541C34.3123 55.3925 37.371 56.3203 40.5 56.3203C44.6943 56.3153 48.7153 54.6469 51.6811 51.6811C54.6469 48.7153 56.3153 44.6943 56.3203 40.5ZM18.9084 21.5916C19.0822 21.7781 19.2918 21.9277 19.5247 22.0314C19.7576 22.1352 20.009 22.191 20.2639 22.1955C20.5188 22.2 20.772 22.1531 21.0084 22.0576C21.2447 21.9621 21.4595 21.82 21.6398 21.6398C21.82 21.4595 21.9621 21.2447 22.0576 21.0084C22.1531 20.772 22.2 20.5188 22.1955 20.2639C22.191 20.009 22.1352 19.7576 22.0314 19.5247C21.9277 19.2918 21.7781 19.0822 21.5916 18.9084L16.5291 13.8459C16.1692 13.5106 15.6932 13.328 15.2014 13.3367C14.7095 13.3454 14.2403 13.5446 13.8925 13.8925C13.5446 14.2403 13.3454 14.7095 13.3367 15.2014C13.328 15.6932 13.5106 16.1692 13.8459 16.5291L18.9084 21.5916ZM18.9084 59.4084L13.8459 64.4709C13.6594 64.6447 13.5098 64.8543 13.4061 65.0872C13.3023 65.3201 13.2465 65.5715 13.242 65.8264C13.2375 66.0813 13.2844 66.3345 13.3799 66.5709C13.4754 66.8072 13.6175 67.022 13.7977 67.2023C13.978 67.3825 14.1928 67.5246 14.4291 67.6201C14.6655 67.7156 14.9187 67.7625 15.1736 67.758C15.4285 67.7535 15.6799 67.6977 15.9128 67.5939C16.1457 67.4902 16.3553 67.3406 16.5291 67.1541L21.5916 62.0916C21.7781 61.9178 21.9277 61.7082 22.0314 61.4753C22.1352 61.2424 22.191 60.991 22.1955 60.7361C22.2 60.4812 22.1531 60.228 22.0576 59.9916C21.9621 59.7553 21.82 59.5405 21.6398 59.3602C21.4595 59.18 21.2447 59.0379 21.0084 58.9424C20.772 58.8469 20.5188 58.8 20.2639 58.8045C20.009 58.809 19.7576 58.8648 19.5247 58.9686C19.2918 59.0723 19.0822 59.2219 18.9084 59.4084ZM60.75 22.1484C61.2533 22.148 61.7359 21.9477 62.0916 21.5916L67.1541 16.5291C67.4894 16.1692 67.672 15.6932 67.6633 15.2014C67.6546 14.7095 67.4554 14.2403 67.1075 13.8925C66.7597 13.5446 66.2905 13.3454 65.7986 13.3367C65.3068 13.328 64.8308 13.5106 64.4709 13.8459L59.4084 18.9084C59.1433 19.1739 58.9627 19.5121 58.8896 19.8801C58.8165 20.2481 58.8541 20.6296 58.9976 20.9763C59.1412 21.323 59.3843 21.6193 59.6962 21.828C60.008 22.0366 60.3748 22.1481 60.75 22.1484ZM62.0916 59.4084C61.7317 59.0731 61.2557 58.8905 60.7639 58.8992C60.272 58.9079 59.8028 59.1071 59.455 59.455C59.1071 59.8028 58.9079 60.272 58.8992 60.7639C58.8905 61.2557 59.0731 61.7317 59.4084 62.0916L64.4709 67.1541C64.8308 67.4894 65.3068 67.672 65.7986 67.6633C66.2905 67.6546 66.7597 67.4554 67.1075 67.1075C67.4554 66.7597 67.6546 66.2905 67.6633 65.7986C67.672 65.3068 67.4894 64.8308 67.1541 64.4709L62.0916 59.4084ZM14.5547 40.5C14.5547 39.9965 14.3547 39.5136 13.9986 39.1576C13.6426 38.8016 13.1597 38.6016 12.6562 38.6016H5.0625C4.559 38.6016 4.07613 38.8016 3.7201 39.1576C3.36408 39.5136 3.16406 39.9965 3.16406 40.5C3.16406 41.0035 3.36408 41.4864 3.7201 41.8424C4.07613 42.1984 4.559 42.3984 5.0625 42.3984H12.6562C13.1597 42.3984 13.6426 42.1984 13.9986 41.8424C14.3547 41.4864 14.5547 41.0035 14.5547 40.5ZM40.5 66.4453C39.9965 66.4453 39.5136 66.6453 39.1576 67.0014C38.8016 67.3574 38.6016 67.8403 38.6016 68.3438V75.9375C38.6016 76.441 38.8016 76.9239 39.1576 77.2799C39.5136 77.6359 39.9965 77.8359 40.5 77.8359C41.0035 77.8359 41.4864 77.6359 41.8424 77.2799C42.1984 76.9239 42.3984 76.441 42.3984 75.9375V68.3438C42.3984 67.8403 42.1984 67.3574 41.8424 67.0014C41.4864 66.6453 41.0035 66.4453 40.5 66.4453ZM75.9375 38.6016H68.3438C67.8403 38.6016 67.3574 38.8016 67.0014 39.1576C66.6453 39.5136 66.4453 39.9965 66.4453 40.5C66.4453 41.0035 66.6453 41.4864 67.0014 41.8424C67.3574 42.1984 67.8403 42.3984 68.3438 42.3984H75.9375C76.441 42.3984 76.9239 42.1984 77.2799 41.8424C77.6359 41.4864 77.8359 41.0035 77.8359 40.5C77.8359 39.9965 77.6359 39.5136 77.2799 39.1576C76.9239 38.8016 76.441 38.6016 75.9375 38.6016Z" fill="#F2A50C"/>
</svg>
