<svg width="131" height="81" viewBox="0 0 131 81" fill="none" xmlns="http://www.w3.org/2000/svg">
<path d="M54.0438 15.4114C46.6154 12.6116 40.443 14.4224 34.4085 19.0026C36.8235 18.5968 38.8577 17.991 40.8972 17.9684C45.3562 17.9184 49.5519 16.8055 54.0438 15.4114ZM3.83303 57.8576C3.98725 57.754 4.19489 57.6836 4.27764 57.5404C6.40429 53.8877 7.80339 49.9294 9.05222 45.9218C9.83936 43.3964 10.2944 40.7558 11.4949 38.377C12.2699 36.8492 13.2332 35.4184 14.2257 33.7587C4.89228 36.4746 -0.930536 50.282 3.83303 57.8576ZM127.907 52.8557C121.389 67.6034 110.524 75.5837 94.8361 76.9834C100.195 77.3037 105.443 78.4134 110.864 78.0726C116.408 77.7237 120.803 75.3388 124.332 71.3465C126.92 68.4156 128.319 64.831 128.727 60.8589C128.993 58.2393 128.649 55.7361 127.907 52.8557ZM120.897 43.4831C120.534 44.1532 120.186 44.6094 120.024 45.1241C118.395 50.3739 115.192 54.6008 111.264 58.2856C107.55 61.7713 103.495 64.816 98.5471 66.3893C96.6393 66.9953 94.7092 67.5891 92.747 67.9594C90.7802 68.3299 88.7583 68.3643 86.7674 68.6348C81.1121 69.4039 75.6105 70.6666 70.8018 73.9743C70.5576 74.1423 70.3759 74.4 70.047 74.7334C70.5439 74.8906 70.7949 75.0216 71.0597 75.0452C76.1632 75.5005 81.267 75.9518 86.3776 76.3792C86.917 76.4244 87.4763 76.35 88.0128 76.2684C91.5296 75.7409 95.0458 75.2227 98.553 74.6461C100.525 74.3216 102.542 74.0764 104.435 73.4742C110.115 71.6692 114.88 68.277 118.975 64.0788C121.115 61.8831 123.238 59.506 124.402 56.524C125.004 54.9947 125.517 53.407 126.324 51.993C126.898 50.9944 126.749 50.1353 126.246 49.4038C124.783 47.2677 123.247 45.1627 120.897 43.4831ZM67.1109 74.616C71.5193 71.2798 76.4192 68.6443 82.1284 67.7936C85.4695 67.2957 88.7837 66.5687 92.1426 66.2968C96.0345 65.9814 99.5152 64.4736 102.778 62.6747C106.67 60.5306 110.091 57.6146 113.029 54.2108C115.703 51.1088 117.658 47.5976 118.906 43.7029C119.273 42.5615 119.017 42.0586 117.81 41.5543C116.143 40.8556 114.439 40.2513 112.743 39.605C114.144 35.5728 114.209 35.2047 113.9 32.9973C113.566 34.0371 113.291 35.1002 112.884 36.1117C111.794 38.8318 110.873 41.6561 109.106 44.0305C106.724 47.2309 104.035 50.1394 100.862 52.624C97.71 55.094 94.3286 57.0208 90.5374 58.3296C86.9635 59.5637 83.2965 60.4158 79.5649 60.5578C76.1011 60.6909 72.8751 61.5342 69.6543 62.5864C64.3073 64.3324 60.1833 67.9538 56.1115 71.6205C55.6336 72.0524 55.4285 72.7914 55.0008 73.5598L67.1109 74.616ZM28.0685 33.2094C25.6275 32.1416 23.2205 32.1336 20.8456 31.9724C18.806 31.8343 16.9559 32.37 15.8165 34.2094C14.8071 35.847 14.0198 37.6234 13.0102 39.2647C11.4971 41.7362 11.2359 44.6237 10.2187 47.263C8.60957 51.4274 7.77765 55.9172 4.7525 59.4531C4.52811 59.7155 4.50906 60.4184 4.70186 60.7327C6.23348 63.258 7.83928 65.7377 10.84 66.9929C12.3917 64.723 13.7856 62.3825 14.6334 59.7509C15.6677 56.5393 16.5839 53.2855 17.7406 50.1196C18.7743 47.2892 19.8107 44.4291 21.6683 41.9811C24.31 38.4928 27.2275 35.2256 30.8637 32.7936C33.5997 30.9619 36.5376 29.2868 39.6113 28.1488C42.835 26.9558 46.2692 26.2482 49.7546 25.9751C51.5658 25.8319 53.3912 25.6862 55.1732 25.3418C59.2515 24.555 63.1998 23.3775 66.6046 20.8602C68.4624 19.4839 70.3336 18.1151 72.1328 16.6602C75.323 14.0779 77.8431 10.9096 79.6166 7.22299C80.3326 5.72832 81.4101 4.27594 81.3679 2.34279C75.9531 3.09464 71.4362 5.31223 67.4154 8.71713C64.9116 10.8406 63.0273 13.4311 61.2412 16.1329C60.7068 16.9441 60.5501 18.0959 59.2986 18.3732C58.2394 17.7361 57.1446 17.0773 56.1878 16.5005C51.2171 18.068 46.331 19.1496 41.3109 19.6716C38.9521 19.9165 36.603 20.3191 34.2838 20.8097C32.4798 21.1915 31.0522 22.3069 30.327 24.0157C29.4409 26.1198 28.4935 28.2284 28.4279 30.5914C28.4046 31.396 28.2131 32.1962 28.0685 33.2094ZM42.7071 72.4619L52.7299 73.336C55.5471 69.5524 59.0658 66.7495 62.8704 64.2123C68.4855 60.4671 74.8282 59.1738 81.347 58.5993C85.8078 58.2066 90.02 57.173 94.0153 55.1896C97.7167 53.3526 100.903 50.7633 103.79 47.8945C105.79 45.9087 107.572 43.5814 108.948 41.1237C110.911 37.6226 112.102 33.7436 113.317 29.9125C113.666 28.8071 113.911 27.6166 113.917 26.4635C113.945 22.3906 112.1 18.9504 110.078 15.1706C109.557 16.1518 109.153 16.7491 108.909 17.405C108.135 19.4536 107.379 21.5102 106.702 23.5909C105.992 25.7587 105.578 28.0426 104.684 30.1245C103.111 33.7754 100.942 37.0506 98.1623 39.9723C93.0113 45.3792 87.1629 49.5439 79.7303 51.0353C75.8923 51.8061 72.0137 52.4529 68.1185 52.8589C64.2612 53.2626 60.767 54.7083 57.5113 56.5365C54.1377 58.4297 51.133 60.9242 48.4924 63.8637C46.1898 66.419 44.2574 69.1336 42.7071 72.4619ZM40.8872 72.3289C41.435 71.2581 41.9625 70.0965 42.5973 68.9954C44.9278 64.9393 48.0536 61.5911 51.6748 58.6337C56.042 55.07 60.9696 52.7619 66.402 51.4332C66.8424 51.3255 67.2911 51.2279 67.7405 51.1771C70.6407 50.8469 73.5731 50.6862 76.4421 50.1752C80.7815 49.4019 84.9539 48.1263 88.7529 45.7071C92.3043 43.4415 95.5148 40.7897 98.2188 37.6061C100.589 34.8108 102.724 31.8202 103.511 28.0595C103.915 26.1129 104.715 24.2439 105.394 22.3607C106.445 19.4448 107.545 16.5464 108.622 13.651C106.013 9.78521 104.198 8.1004 102.037 7.62769C101.753 8.25816 101.388 8.90011 101.168 9.58841C100.103 12.8856 99.2014 16.2418 97.9958 19.4853C97.0107 22.133 95.9644 24.8377 94.4342 27.1846C91.8437 31.1598 88.4476 34.4905 84.572 37.2521C81.4206 39.4958 78.0566 41.3309 74.2848 42.4171C70.9216 43.3838 67.4553 43.5448 64.049 44.147C60.3713 44.7982 56.5802 45.0315 53.1553 46.7058C49.7357 48.373 46.5737 50.4164 43.6926 52.9447C39.5328 56.6004 36.4444 60.9683 34.4461 66.1035C33.7692 67.8502 33.3276 69.6896 32.7379 71.6181L40.8872 72.3289ZM30.8698 71.4468C31.4574 69.8651 32.0829 68.4409 32.521 66.961C34.3232 60.8527 37.8828 55.9141 42.6392 51.8101C44.5287 50.1785 46.5403 48.6508 48.6391 47.3041C51.7598 45.3049 55.224 43.9867 58.8223 43.1703C60.8581 42.708 63.018 42.8102 65.0868 42.4515C69.3815 41.7066 73.7322 41.395 77.8057 39.427C82.7547 37.0359 86.8119 33.6443 90.5012 29.689C93.5036 26.4687 95.2403 22.5084 96.7933 18.5045C97.9115 15.6184 98.5221 12.5384 99.446 9.57177C99.8168 8.38119 100.42 7.26253 101.014 5.87502C98.4192 4.80174 96.0096 3.80389 93.3376 2.69943C92.5129 5.17427 91.6961 7.39525 91.0393 9.6622C89.8484 13.7574 88.1239 17.5793 85.5189 20.9697C82.3123 25.1362 78.3558 28.5023 73.8745 31.1702C70.5593 33.145 66.9425 34.5477 63.0563 35.0655C59.7106 35.5105 56.349 35.8679 53.0318 36.4681C49.7097 37.0703 46.3545 37.6765 43.4676 39.6807C42.4202 40.4118 41.172 40.866 40.1413 41.6211C36.3127 44.4326 32.7509 47.5681 30.1575 51.5783C28.4198 54.262 27.1127 57.1646 26.315 60.35C25.4388 63.8443 23.9988 67.1972 22.7624 70.7397L30.8698 71.4468ZM12.2014 68.1408C14.8111 69.798 17.7465 70.2465 20.725 70.6829C22.3344 68.0203 22.9873 65.1533 23.948 62.4079C24.8474 59.83 25.448 57.1866 26.6468 54.6667C30.0428 47.523 35.4746 42.4952 42.186 38.6391C44.9773 37.0337 47.8832 35.7779 51.1277 35.3128C55.0886 34.7439 59.007 33.8012 62.9862 33.3988C66.3841 33.0544 69.5051 31.9124 72.3305 30.2917C76.4278 27.943 80.168 24.9637 83.1967 21.2791C84.8263 19.2971 86.5257 17.2142 87.497 14.8862C89.1314 10.9683 90.2146 6.81913 91.5551 2.6748C88.7859 1.1273 86.0607 2.13594 83.6374 2.10136C81.8803 5.86631 80.5778 9.57595 78.0972 12.7233C75.9585 15.4388 73.453 17.7426 70.7897 19.9221C67.0215 23.0077 62.8144 25.0564 58.0788 26.2912C54.2347 27.2933 50.2983 27.3144 46.4627 28.0572C43.3325 28.6625 40.126 29.39 37.2557 30.7201C33.3064 32.5528 29.784 35.2369 26.7239 38.3679C25.0009 40.1316 23.3687 42.0891 22.1433 44.2161C20.322 47.375 18.9881 50.7994 17.9691 54.3206C17.1578 57.1236 16.5881 60.0038 15.1304 62.593C14.1436 64.3469 13.2462 66.1507 12.2014 68.1408ZM26.5791 31.0593C27.506 23.4394 31.4541 17.5917 38.5337 14.5631C44.9853 11.8054 48.5246 10.5389 59.0217 16.1251C60.4344 14.2667 61.7889 12.3247 63.3136 10.5248C65.7264 7.67342 68.6789 5.50812 71.9459 3.65728C75.4744 1.6552 79.2996 0.654269 83.2044 0.406077C85.6725 0.249666 88.1883 -0.18345 90.8333 0.69313C93.4965 1.57633 96.3296 2.01486 98.9209 3.23921C102.034 4.71015 104.699 6.74876 107.205 9.11201C110.733 12.439 112.815 16.552 114.532 20.9697C115.283 22.8938 115.555 24.8751 115.719 26.8646C115.931 29.4248 116.352 32.0101 115.805 34.579C115.524 35.9157 115.119 37.2266 114.768 38.5735C116.842 39.5461 118.798 40.3256 120.616 41.3423C124.314 43.4073 126.73 46.696 128.518 50.4138C130.354 54.235 131.057 58.3686 130.207 62.522C129.271 67.0842 127.307 71.1829 123.657 74.3581C120.581 77.0296 117.181 78.9013 113.149 79.5357C111.253 79.8346 109.363 80.1321 107.411 79.9604C78.3161 77.4023 49.2125 74.8884 20.1187 72.3172C14.3827 71.8104 9.44386 69.3599 5.70396 65.0325C2.16804 60.944 0.365191 56.104 0.748355 50.5286C0.997996 46.8612 1.82183 43.4841 3.77504 40.3161C6.53565 35.839 10.4867 33.019 15.3908 31.4644C17.833 30.6918 20.358 30.1523 22.949 30.4129C24.1144 30.5305 25.2604 30.8187 26.5791 31.0593Z" fill="#E5951A" fill-opacity="0.61"/>
</svg>
