<svg width="523" height="266" viewBox="0 0 523 266" fill="none" xmlns="http://www.w3.org/2000/svg">
<path d="M425.395 75.6998C419.824 67.581 413.493 60.0107 406.488 53.091C403.008 49.5985 399.405 46.2171 395.653 43.0207C393.802 41.3917 391.864 39.8615 389.939 38.3065C388.014 36.7515 386.039 35.2829 384.028 33.839C367.966 22.1172 350.054 13.1695 331.035 7.36757C321.486 4.51197 311.709 2.48059 301.812 1.29577C291.878 0.0743434 281.856 -0.276661 271.86 0.246777C261.795 1.02247 251.854 2.97331 242.242 6.05942C232.661 9.13925 223.406 13.1529 214.61 18.0425C205.882 22.8763 197.454 28.2339 189.373 34.0859C181.265 39.8244 173.33 45.8222 165.629 51.8939C157.928 57.9657 150.202 64.0622 142.477 70.0229C134.751 75.9836 126.903 81.7099 118.893 87.0906C110.911 92.4321 102.606 97.2749 94.0262 101.591L87.5718 104.652C85.3875 105.577 83.1784 106.454 80.9817 107.354C78.785 108.255 76.5389 108.996 74.3052 109.761C72.0715 110.526 69.8377 111.328 67.5423 111.871C58.4734 114.452 49.1503 116.037 39.738 116.598L32.6913 116.931L25.6322 116.746L22.0904 116.647L18.5732 116.289L11.5265 115.574L-6.10352e-05 114.414L5.60278 124.286C7.08368 126.915 8.51526 129.223 10.0332 131.691C11.5511 134.159 13.0691 136.43 14.6364 138.762C17.7587 143.44 21.0291 147.993 24.3735 152.486C31.0952 161.47 38.2242 170.109 45.7604 178.402C60.7913 195.175 77.637 210.229 95.9884 223.286C100.555 226.606 105.355 229.592 110.131 232.628L117.449 236.923C119.918 238.367 122.386 239.601 124.928 240.946C134.986 246.226 145.447 250.699 156.213 254.324L160.248 255.706L164.345 256.94C167.097 257.693 169.812 258.544 172.577 259.223C178.143 260.457 183.684 261.815 189.336 262.58L193.556 263.246C194.26 263.357 194.951 263.493 195.667 263.567L197.789 263.777L206.305 264.604C207.724 264.776 209.143 264.789 210.575 264.838L214.845 264.986C217.695 265.073 220.546 265.245 223.397 265.122C234.835 264.991 246.237 263.805 257.458 261.58C268.681 259.316 279.662 255.981 290.248 251.621C300.775 247.256 310.932 242.048 320.62 236.047C330.188 230.047 339.39 223.482 348.177 216.387C365.689 202.294 381.56 186.621 397.405 171.478L403.366 165.851L406.353 163.062C406.871 162.568 407.34 162.173 407.797 161.828L409.191 160.594C414.907 155.875 421.541 152.395 428.673 150.374C435.805 148.354 443.278 147.838 450.62 148.857C455.533 149.548 460.328 150.905 464.874 152.893C474.548 157.05 483.668 162.394 492.024 168.8C494.122 170.405 496.158 172.058 498.12 173.737C498.614 174.156 499.095 174.601 499.577 175.033C500.32 175.735 501.121 176.375 501.971 176.945C504.529 178.689 507.607 179.505 510.693 179.259C513.779 179.013 516.688 177.72 518.938 175.593C521.188 173.467 522.644 170.636 523.064 167.569C523.484 164.502 522.843 161.383 521.248 158.73C520.956 158.201 520.626 157.693 520.26 157.212L519.693 156.521L519.433 156.262L519.236 156.052L517.804 154.534L514.941 151.498C512.967 149.499 511.066 147.45 509.005 145.513C500.919 137.559 492.166 130.313 482.842 123.854C464.158 110.884 443.055 101.9 421.421 95.8156C399.787 89.7315 377.364 87.1029 355.1 86.2267C332.701 85.5479 310.019 87.8557 288.558 94.5198C277.877 97.8366 267.457 101.941 257.384 106.799C247.326 111.575 237.639 116.956 228.013 122.324C218.387 127.692 208.81 133.073 198.999 137.898C189.24 142.82 179.033 146.795 168.517 149.771C157.968 152.692 147.11 154.349 136.171 154.707C125.169 154.983 114.168 154.156 103.331 152.239C114.126 154.618 125.131 155.912 136.183 156.102C137.565 156.102 138.947 156.176 140.342 156.102L144.489 155.916C145.871 155.842 147.265 155.83 148.647 155.694L152.782 155.262C155.558 155.028 158.286 154.522 161.026 154.028C163.765 153.535 166.48 152.918 169.195 152.325C179.989 149.704 190.51 146.063 200.616 141.453C210.76 136.936 220.559 131.765 230.32 126.643C240.082 121.522 249.844 116.524 259.828 112.143C269.748 107.695 279.981 103.983 290.446 101.036C311.29 95.0752 333.096 93.3845 354.681 94.5322L370.946 95.902C372.304 95.9884 373.649 96.1735 374.994 96.371L379.017 96.9387L387.088 98.0741L389.1 98.3579L391.087 98.7528L395.073 99.5426L403.045 101.085C405.699 101.653 408.29 102.406 410.919 103.047C413.547 103.689 416.164 104.282 418.743 105.108C439.39 111.279 459.234 120.164 476.61 132.654C485.3 138.91 493.434 145.904 500.922 153.559C502.847 155.423 504.624 157.447 506.549 159.384L509.351 162.432L510.733 163.938L510.893 164.111L510.98 164.222C510.98 164.308 511.091 164.358 511.116 164.444C511.281 164.749 511.362 165.093 511.35 165.44C511.338 165.788 511.233 166.125 511.047 166.418C510.861 166.711 510.6 166.95 510.291 167.108C509.982 167.266 509.636 167.339 509.289 167.319C508.957 167.301 508.636 167.19 508.363 166.999C508.45 167.134 506.932 165.703 505.895 164.827C503.736 162.901 501.527 161.063 499.256 159.286C490.168 152.192 480.241 146.244 469.699 141.576C464.182 139.128 458.364 137.426 452.397 136.516C443.321 135.144 434.059 135.68 425.203 138.09C416.346 140.499 408.089 144.73 400.96 150.511L399.207 151.992C398.602 152.486 398.035 152.979 397.541 153.436L394.456 156.262L388.384 161.951C372.341 177.192 356.729 192.47 339.835 205.972C331.446 212.691 322.669 218.909 313.548 224.594C304.493 230.179 295.001 235.02 285.164 239.07C275.346 243.074 265.168 246.128 254.768 248.19C244.386 250.272 233.836 251.4 223.249 251.559C220.596 251.695 217.93 251.559 215.277 251.461L211.29 251.349C209.958 251.349 208.637 251.349 207.304 251.14L199.369 250.387L197.382 250.202C196.728 250.202 196.074 250.004 195.408 249.918L191.471 249.289C186.189 248.61 181.018 247.326 175.822 246.216C173.231 245.599 170.689 244.796 168.122 244.105L164.271 243.019L160.495 241.785C150.354 238.414 140.5 234.237 131.025 229.296C128.667 228.062 126.249 226.828 123.941 225.52L116.98 221.472C112.451 218.609 107.885 215.795 103.516 212.636C85.853 200.217 69.5836 185.925 54.9915 170.01C47.6486 162.075 40.6759 153.769 34.1105 145.18C30.8401 140.86 27.6315 136.541 24.5833 132.037C23.0529 129.815 21.5597 127.573 20.1035 125.311C18.6596 123.065 17.191 120.707 15.9445 118.56L10.0209 127.285L17.6353 127.989L21.4486 128.322L25.2743 128.408C27.8289 128.408 30.3835 128.519 32.9381 128.519L40.5895 128.087C50.7947 127.343 60.8857 125.468 70.6769 122.497C73.1451 121.855 75.5269 120.954 77.9211 120.103C80.3153 119.251 82.7465 118.461 85.0542 117.4C87.362 116.339 89.7315 115.426 92.0392 114.389L98.8392 111.032C107.712 106.346 116.288 101.12 124.521 95.3837C140.922 83.993 156.101 71.3064 171.244 58.9036C178.821 52.7331 186.448 46.5626 194.235 40.8117C201.959 34.9819 210.028 29.6243 218.399 24.7684C226.667 19.893 235.393 15.8381 244.451 12.6619C253.488 9.53589 262.848 7.43299 272.354 6.39262C291.658 4.88354 311.079 6.66121 329.789 11.6499C348.606 16.7293 366.451 24.8946 382.596 35.8136C386.644 38.541 390.593 41.4041 394.431 44.4523C398.269 47.5005 401.996 50.6228 405.538 53.9672C412.832 60.5649 419.481 67.8419 425.395 75.6998Z" fill="#4FC646" fill-opacity="0.05"/>
</svg>
