<svg width="240" height="96" viewBox="0 0 240 96" fill="none" xmlns="http://www.w3.org/2000/svg">
<g opacity="0.43">
<path d="M199.232 56.4532C199.906 57.1117 200.668 57.8513 201.069 58.2392C188.309 71.0025 176.244 83.0819 163.904 95.4232C163.582 95.1399 162.888 94.5322 162.214 93.947C164.178 90.3488 192.09 61.984 199.232 56.4532Z" fill="#E5951A"/>
<path d="M124.85 39.6626C123.833 38.8811 123.243 38.4277 122.7 38.0105C122.793 37.5415 122.75 37.1176 122.94 36.891C125.173 34.2335 127.298 31.4668 129.724 28.9978C138.046 20.5352 146.472 12.1732 154.877 3.79162C155.971 2.69739 157.085 1.58166 158.365 0.734597C158.814 0.436567 160.006 0.678844 160.446 1.10288C160.876 1.52589 161.032 2.5528 160.866 3.19174C160.68 3.87558 159.987 4.43933 159.479 5.01285C158.961 5.59121 158.375 6.11482 157.828 6.66581C146.963 17.5358 136.1 28.4058 124.85 39.6626Z" fill="#E5951A"/>
<path d="M2.51783 59.5424C2.29893 59.8619 2.04305 60.3885 1.65128 60.7813C-9.36135 71.8194 -20.3896 82.8426 -31.4101 93.8728C-32.6977 95.1614 -33.9394 96.6796 -35.7497 93.9607C-33.8329 90.933 -31.672 88.1292 -28.5084 85.7336C-24.9317 83.0254 -22.2312 79.1633 -19.1321 75.82C-18.206 74.8206 -17.361 73.6403 -16.2276 72.9604C-14.3558 71.8368 -13.198 70.1818 -11.7971 68.6079C-8.49683 64.9002 -4.83105 61.4984 -1.11653 58.1942C-0.176689 57.3579 1.75182 55.8827 2.51783 59.5424Z" fill="#E5951A"/>
<path d="M159.41 57.0042C160.045 57.7409 160.534 58.3135 160.993 58.8556C158.306 62.7861 133.804 87.6973 124.729 95.7252C124.046 95.266 123.291 94.758 122.379 94.1455C124.457 91.1999 126.375 88.6254 129.246 86.4408C132.969 83.6096 135.78 79.5854 139.022 76.1112C139.942 75.1264 140.985 74.2549 141.995 73.359C143.141 72.343 144.354 71.3991 145.466 70.3489C146.966 68.9313 148.39 67.4354 149.865 65.9876C150.558 65.3057 151.594 64.7869 151.936 63.9682C153.402 60.5067 156.626 59.1194 159.41 57.0042Z" fill="#E5951A"/>
<path d="M85.0185 39.778C84.3132 38.1151 83.4593 37.06 83.7114 36.514C84.4226 34.9703 85.3067 33.2371 86.6335 32.3012C89.1922 30.4947 90.949 27.9975 93.1325 25.9438C95.7822 23.4526 98.1895 20.7708 100.766 18.2559C105.24 13.8878 109.835 9.67113 113.97 4.94934C115.557 3.13609 117.847 1.93931 120.432 0C120.64 1.61885 120.987 2.62124 120.813 3.52393C120.685 4.18249 119.9 4.73741 119.354 5.28542C108.115 16.5862 96.8665 27.8793 85.0185 39.778Z" fill="#E5951A"/>
<path d="M1.29749 0.554833C1.6121 0.911482 2.2226 1.60427 3.09404 2.59396C-9.47781 14.9147 -21.7721 26.9638 -34.5364 39.4742C-35.1686 38.7668 -35.7498 38.1152 -36 37.8358C-23.5571 25.3978 -11.501 13.3465 1.29749 0.554833Z" fill="#E5951A"/>
<path d="M120.309 56.8968C121.828 58.9221 120.896 60.1004 119.719 61.2678C116.124 64.8339 112.546 68.4174 108.965 71.9981C101.666 79.2962 94.3634 86.5904 87.079 93.9051C85.7493 95.2396 84.4959 96.5391 82.917 94.2295C85.7063 90.088 115.751 60.027 120.309 56.8968Z" fill="#E5951A"/>
<path d="M4.74718 39.183C4.55469 37.9178 4.16983 36.894 4.33692 35.9698C4.45218 35.3288 5.31176 34.8111 5.86274 34.261C16.7454 23.3823 27.6302 12.5044 38.5246 1.63734C38.9232 1.24074 39.4312 0.954512 40.1747 0.406442C40.8742 0.94866 41.5943 1.50555 42.0633 1.86703C29.7386 14.1918 17.5183 26.4118 4.74718 39.183Z" fill="#E5951A"/>
<path d="M198.568 0.312613C199.408 1.01315 199.984 1.49085 200.199 1.67458C187.938 13.9054 175.736 26.0797 162.996 38.7824C163.035 38.8313 162.527 38.125 162.058 37.4703C164.872 33.3554 189.081 8.73031 198.568 0.312613Z" fill="#E5951A"/>
<path d="M44.7003 38.5343C44.6231 38.4483 44.1217 37.8885 43.6489 37.36C46.3229 33.2986 68.4966 10.6901 79.8043 0.480593C80.4979 0.908503 81.2689 1.38334 81.6021 1.58948C69.377 13.8282 57.2067 26.0133 44.7003 38.5343Z" fill="#E5951A"/>
<path d="M40.9094 57.2494C41.0657 57.3803 41.6412 57.8649 41.8728 58.0613C29.6144 70.3156 17.4138 82.5134 4.6993 95.223C4.63973 95.1565 4.05928 94.5079 3.88641 94.3154C16.3654 81.8227 28.4215 69.7519 40.9094 57.2494Z" fill="#E5951A"/>
<path d="M80.7306 56.3721C80.8283 58.032 81.1663 59.1203 80.8663 59.988C80.5742 60.832 79.654 61.4759 78.9672 62.1637C68.1969 72.9389 57.4216 83.7092 46.6377 94.4707C46.2312 94.8771 45.7222 95.1799 44.7676 95.9068C44.369 94.7999 43.6813 93.8386 43.8279 93.0296C43.9793 92.1963 44.884 91.4509 45.5641 90.7708C56.4653 79.851 67.3791 68.944 78.3096 58.0525C78.8157 57.5474 79.4976 57.2182 80.7306 56.3721Z" fill="#E5951A"/>
<path d="M203.521 39.2709C202.974 38.716 202.427 38.1718 201.938 37.6853C204.215 33.8154 233.436 4.35536 238.546 0.680862C240.178 1.56501 239.865 2.80878 239.054 4.03496C238.634 4.67581 237.999 5.17796 237.452 5.73002C226.676 16.4954 215.9 27.2598 205.123 38.0154C204.723 38.418 204.225 38.7258 203.521 39.2709Z" fill="#E5951A"/>
<path d="M239.172 55.827C239.338 57.9618 239.621 58.9105 239.406 59.7321C239.23 60.4102 238.517 60.9796 237.97 61.5277C226.666 72.853 215.353 84.1694 204.059 95.4741C202.32 94.4991 201.284 93.5212 202.896 91.8222C203.707 90.9732 204.537 90.1514 205.368 89.3229C215.03 79.6606 224.692 69.9952 234.365 60.3426C235.576 59.1332 236.856 57.993 239.172 55.827Z" fill="#E5951A"/>
</g>
</svg>
