<svg width="51" height="45" viewBox="0 0 51 45" fill="none" xmlns="http://www.w3.org/2000/svg">
<rect x="0.25" y="0.25" width="50.25" height="44.25" rx="6" fill="#F2F9F5"/>
<g clip-path="url(#clip0_24_121)">
<path d="M25.5 38C34.3366 38 41.5 30.8366 41.5 22C41.5 13.1634 34.3366 6 25.5 6C16.6634 6 9.5 13.1634 9.5 22C9.5 30.8366 16.6634 38 25.5 38Z" fill="#FFD15D"/>
<path d="M40.8878 26.3979L36.4899 22L19.6122 22.9181L16.2586 24.1683L29.6716 37.4494C35.0794 35.9927 39.3543 31.7737 40.8878 26.3979Z" fill="#F9B54C"/>
<path d="M25.5 16.1442C20.8039 16.1442 16.7039 18.4995 14.5101 22C16.7039 25.5005 20.8039 27.8559 25.5 27.8559C30.1961 27.8559 34.2961 25.5007 36.4899 22C34.2961 18.4995 30.1961 16.1442 25.5 16.1442Z" fill="#324A5E"/>
<path d="M25.5 16.1442C25.4879 16.1442 25.476 16.1447 25.4641 16.1447V27.8554C25.4762 27.8554 25.488 27.8559 25.5 27.8559C30.1961 27.8559 34.2961 25.5006 36.4899 22C34.2961 18.4995 30.1961 16.1442 25.5 16.1442Z" fill="#2B3B4E"/>
<path d="M25.5 17.504C21.7246 17.504 18.4286 19.3124 16.665 22C18.4287 24.6875 21.7247 26.4959 25.5 26.4959C29.2753 26.4959 32.5714 24.6875 34.335 22C32.5714 19.3124 29.2754 17.504 25.5 17.504Z" fill="#E6F3FF"/>
<path d="M25.5 17.504C25.4879 17.504 25.476 17.5046 25.4641 17.5046V26.4954C25.4762 26.4954 25.488 26.496 25.5 26.496C29.2754 26.496 32.5714 24.6876 34.335 22C32.5714 19.3124 29.2754 17.504 25.5 17.504Z" fill="#CFDBE6"/>
<path d="M25.5 26.0943C27.7612 26.0943 29.5943 24.2612 29.5943 22C29.5943 19.7388 27.7612 17.9058 25.5 17.9058C23.2388 17.9058 21.4058 19.7388 21.4058 22C21.4058 24.2612 23.2388 26.0943 25.5 26.0943Z" fill="#84DBFF"/>
<path d="M25.5 17.9058C25.4879 17.9058 25.4761 17.9065 25.464 17.9066V26.0934C25.4761 26.0935 25.4879 26.0943 25.5 26.0943C27.7612 26.0943 29.5942 24.2612 29.5942 22C29.5942 19.7388 27.7612 17.9058 25.5 17.9058Z" fill="#31BAFD"/>
<path d="M25.5 23.3468C26.2438 23.3468 26.8468 22.7438 26.8468 22C26.8468 21.2562 26.2438 20.6532 25.5 20.6532C24.7562 20.6532 24.1532 21.2562 24.1532 22C24.1532 22.7438 24.7562 23.3468 25.5 23.3468Z" fill="#324A5E"/>
<path d="M25.5 20.6532C25.4878 20.6532 25.4761 20.6547 25.464 20.655V23.3449C25.4761 23.3453 25.4878 23.3468 25.5 23.3468C26.2439 23.3468 26.8468 22.7438 26.8468 21.9999C26.8468 21.2561 26.2439 20.6532 25.5 20.6532Z" fill="#2B3B4E"/>
<path d="M24.7458 21.4074C25.0731 21.4074 25.3384 21.1421 25.3384 20.8149C25.3384 20.4876 25.0731 20.2223 24.7458 20.2223C24.4186 20.2223 24.1533 20.4876 24.1533 20.8149C24.1533 21.1421 24.4186 21.4074 24.7458 21.4074Z" fill="white"/>
</g>
<defs>
<clipPath id="clip0_24_121">
<rect width="32" height="32" fill="white" transform="translate(9.5 6)"/>
</clipPath>
</defs>
</svg>
